<svg width="233" height="74" viewBox="0 0 233 74" fill="none" xmlns="http://www.w3.org/2000/svg">
<g filter="url(#filter0_d)">
<rect x="5" y="2" width="223" height="64" rx="32" fill="#614BDA"/>
</g>
<path d="M42.493 33.88C42.493 33.12 42.3664 32.4667 42.113 31.92C41.8597 31.36 41.5064 30.9267 41.053 30.62C40.613 30.3133 40.1264 30.0933 39.593 29.96C39.073 29.8267 38.4997 29.76 37.873 29.76H36.173V38.04H37.793C39.1664 38.04 40.293 37.7133 41.173 37.06C42.053 36.4067 42.493 35.3467 42.493 33.88ZM38.113 41H34.793C33.4864 41 32.833 40.3467 32.833 39.04V28.8C32.833 27.4933 33.4864 26.84 34.793 26.84H37.953C38.793 26.84 39.5864 26.9133 40.333 27.06C41.093 27.1933 41.8264 27.4333 42.533 27.78C43.2397 28.1267 43.8464 28.56 44.353 29.08C44.873 29.6 45.2864 30.2733 45.593 31.1C45.8997 31.9133 46.053 32.84 46.053 33.88C46.053 35.08 45.8264 36.1467 45.373 37.08C44.9197 38.0133 44.3064 38.76 43.533 39.32C42.773 39.88 41.933 40.3 41.013 40.58C40.093 40.86 39.1264 41 38.113 41ZM63.0813 33.86C63.0813 36.0867 62.3547 37.9 60.9013 39.3C59.448 40.6867 57.6013 41.38 55.3613 41.38C53.1347 41.38 51.2947 40.6867 49.8413 39.3C48.388 37.9 47.6613 36.0867 47.6613 33.86C47.6613 31.62 48.3813 29.8267 49.8213 28.48C51.2747 27.1333 53.1213 26.46 55.3613 26.46C57.6147 26.46 59.4613 27.1333 60.9013 28.48C62.3547 29.8267 63.0813 31.62 63.0813 33.86ZM59.4213 33.86C59.4213 32.6067 59.0413 31.5733 58.2813 30.76C57.5213 29.9467 56.548 29.54 55.3613 29.54C54.1747 29.54 53.2013 29.9467 52.4413 30.76C51.6947 31.5733 51.3213 32.6067 51.3213 33.86C51.3213 35.14 51.6947 36.1933 52.4413 37.02C53.2013 37.8467 54.1747 38.26 55.3613 38.26C56.548 38.26 57.5213 37.8467 58.2813 37.02C59.0413 36.1933 59.4213 35.14 59.4213 33.86ZM84.073 29.06L80.913 39.32C80.5264 40.5733 79.7997 41.2 78.733 41.2C77.653 41.2 76.9264 40.5733 76.553 39.32L74.153 31.42H74.093L71.693 39.32C71.3197 40.5733 70.593 41.2 69.513 41.2C68.433 41.2 67.6997 40.5733 67.313 39.32L64.193 29.16C64.113 28.8933 64.073 28.6267 64.073 28.36C64.073 27.8667 64.2397 27.46 64.573 27.14C64.9064 26.8067 65.313 26.64 65.793 26.64C66.6997 26.64 67.293 27.1867 67.573 28.28L69.693 36.26H69.753L71.873 28.84C72.1264 27.9467 72.4464 27.36 72.833 27.08C73.233 26.7867 73.673 26.64 74.153 26.64C74.3664 26.64 74.5597 26.6667 74.733 26.72C74.9197 26.76 75.1197 26.8467 75.333 26.98C75.5464 27.1133 75.7464 27.34 75.933 27.66C76.133 27.9667 76.2997 28.36 76.433 28.84L78.573 36.26H78.633L80.813 28.2C81.093 27.16 81.6664 26.64 82.533 26.64C82.9864 26.64 83.373 26.7867 83.693 27.08C84.0264 27.3733 84.193 27.7733 84.193 28.28C84.193 28.4933 84.153 28.7533 84.073 29.06ZM94.5209 39.86L89.1409 32.06H89.0809L89.1409 39.36C89.1409 39.84 89.0342 40.2333 88.8209 40.54C88.6209 40.8333 88.4075 41.0133 88.1809 41.08C87.9542 41.16 87.7209 41.2 87.4809 41.2C87.0809 41.2 86.7075 41.0667 86.3609 40.8C86.0142 40.5333 85.8409 40.0533 85.8409 39.36V28.98C85.8409 28.5133 85.9142 28.1133 86.0609 27.78C86.2075 27.4467 86.3942 27.2067 86.6209 27.06C86.8609 26.9 87.0809 26.7933 87.2809 26.74C87.4942 26.6733 87.6942 26.64 87.8809 26.64C88.7075 26.64 89.4275 27.0867 90.0409 27.98L95.4209 35.76H95.4809L95.4209 28.48C95.4209 28 95.5209 27.6133 95.7209 27.32C95.9342 27.0133 96.1475 26.8267 96.3609 26.76C96.5875 26.68 96.8209 26.64 97.0609 26.64C97.4609 26.64 97.8342 26.7733 98.1809 27.04C98.5409 27.3067 98.7209 27.7867 98.7209 28.48V38.86C98.7209 39.3267 98.6475 39.7267 98.5009 40.06C98.3542 40.3933 98.1609 40.64 97.9209 40.8C97.6942 40.9467 97.4742 41.0467 97.2609 41.1C97.0609 41.1667 96.8675 41.2 96.6809 41.2C95.8542 41.2 95.1342 40.7533 94.5209 39.86ZM109.082 41H103.602C102.295 41 101.642 40.3467 101.642 39.04V28.56C101.642 27.84 101.822 27.34 102.182 27.06C102.555 26.78 102.948 26.64 103.362 26.64C103.775 26.64 104.162 26.78 104.522 27.06C104.895 27.34 105.082 27.84 105.082 28.56V38.02H109.082C109.708 38.02 110.142 38.18 110.382 38.5C110.635 38.82 110.762 39.1533 110.762 39.5C110.762 39.86 110.635 40.2 110.382 40.52C110.142 40.84 109.708 41 109.082 41ZM126.324 33.86C126.324 36.0867 125.597 37.9 124.144 39.3C122.69 40.6867 120.844 41.38 118.604 41.38C116.377 41.38 114.537 40.6867 113.084 39.3C111.63 37.9 110.904 36.0867 110.904 33.86C110.904 31.62 111.624 29.8267 113.064 28.48C114.517 27.1333 116.364 26.46 118.604 26.46C120.857 26.46 122.704 27.1333 124.144 28.48C125.597 29.8267 126.324 31.62 126.324 33.86ZM122.664 33.86C122.664 32.6067 122.284 31.5733 121.524 30.76C120.764 29.9467 119.79 29.54 118.604 29.54C117.417 29.54 116.444 29.9467 115.684 30.76C114.937 31.5733 114.564 32.6067 114.564 33.86C114.564 35.14 114.937 36.1933 115.684 37.02C116.444 37.8467 117.417 38.26 118.604 38.26C119.79 38.26 120.764 37.8467 121.524 37.02C122.284 36.1933 122.664 35.14 122.664 33.86ZM137.744 39.9L137.064 38.22H130.964L130.264 39.92C129.904 40.7733 129.344 41.2 128.584 41.2C128.117 41.2 127.724 41.0533 127.404 40.76C127.084 40.4667 126.924 40.0667 126.924 39.56C126.924 39.2667 126.997 38.9467 127.144 38.6L131.824 28.32C132.33 27.2 133.084 26.64 134.084 26.64C135.084 26.64 135.83 27.2 136.324 28.32L140.964 38.56C141.097 38.88 141.164 39.1867 141.164 39.48C141.164 40 140.997 40.42 140.664 40.74C140.33 41.0467 139.93 41.2 139.464 41.2C138.664 41.2 138.09 40.7667 137.744 39.9ZM134.024 30.78L132.084 35.48H135.944L134.024 30.78ZM152.454 33.88C152.454 33.12 152.327 32.4667 152.074 31.92C151.821 31.36 151.467 30.9267 151.014 30.62C150.574 30.3133 150.087 30.0933 149.554 29.96C149.034 29.8267 148.461 29.76 147.834 29.76H146.134V38.04H147.754C149.127 38.04 150.254 37.7133 151.134 37.06C152.014 36.4067 152.454 35.3467 152.454 33.88ZM148.074 41H144.754C143.447 41 142.794 40.3467 142.794 39.04V28.8C142.794 27.4933 143.447 26.84 144.754 26.84H147.914C148.754 26.84 149.547 26.9133 150.294 27.06C151.054 27.1933 151.787 27.4333 152.494 27.78C153.201 28.1267 153.807 28.56 154.314 29.08C154.834 29.6 155.247 30.2733 155.554 31.1C155.861 31.9133 156.014 32.84 156.014 33.88C156.014 35.08 155.787 36.1467 155.334 37.08C154.881 38.0133 154.267 38.76 153.494 39.32C152.734 39.88 151.894 40.3 150.974 40.58C150.054 40.86 149.087 41 148.074 41ZM172.451 39.9L171.771 38.22H165.671L164.971 39.92C164.611 40.7733 164.051 41.2 163.291 41.2C162.824 41.2 162.431 41.0533 162.111 40.76C161.791 40.4667 161.631 40.0667 161.631 39.56C161.631 39.2667 161.704 38.9467 161.851 38.6L166.531 28.32C167.037 27.2 167.791 26.64 168.791 26.64C169.791 26.64 170.537 27.2 171.031 28.32L175.671 38.56C175.804 38.88 175.871 39.1867 175.871 39.48C175.871 40 175.704 40.42 175.371 40.74C175.037 41.0467 174.637 41.2 174.171 41.2C173.371 41.2 172.797 40.7667 172.451 39.9ZM168.731 30.78L166.791 35.48H170.651L168.731 30.78ZM184.821 31.22C184.821 30.14 184.021 29.6 182.421 29.6H180.921V32.94H182.361C184.001 32.94 184.821 32.3667 184.821 31.22ZM177.501 39.28V28.8C177.501 27.4933 178.154 26.84 179.461 26.84H182.701C184.381 26.84 185.721 27.1867 186.721 27.88C187.734 28.56 188.241 29.6667 188.241 31.2C188.241 32.24 187.968 33.1067 187.421 33.8C186.888 34.4933 186.214 34.98 185.401 35.26C184.601 35.5267 183.674 35.66 182.621 35.66H180.921V39.28C180.921 40 180.734 40.5 180.361 40.78C180.001 41.06 179.621 41.2 179.221 41.2C178.808 41.2 178.414 41.06 178.041 40.78C177.681 40.5 177.501 40 177.501 39.28ZM197.614 31.22C197.614 30.14 196.814 29.6 195.214 29.6H193.714V32.94H195.154C196.794 32.94 197.614 32.3667 197.614 31.22ZM190.294 39.28V28.8C190.294 27.4933 190.947 26.84 192.254 26.84H195.494C197.174 26.84 198.514 27.1867 199.514 27.88C200.527 28.56 201.034 29.6667 201.034 31.2C201.034 32.24 200.761 33.1067 200.214 33.8C199.681 34.4933 199.007 34.98 198.194 35.26C197.394 35.5267 196.467 35.66 195.414 35.66H193.714V39.28C193.714 40 193.527 40.5 193.154 40.78C192.794 41.06 192.414 41.2 192.014 41.2C191.601 41.2 191.207 41.06 190.834 40.78C190.474 40.5 190.294 40 190.294 39.28Z" fill="white"/>
<defs>
<filter id="filter0_d" x="0" y="0" width="233" height="74" filterUnits="userSpaceOnUse" color-interpolation-filters="sRGB">
<feFlood flood-opacity="0" result="BackgroundImageFix"/>
<feColorMatrix in="SourceAlpha" type="matrix" values="0 0 0 0 0 0 0 0 0 0 0 0 0 0 0 0 0 0 127 0"/>
<feOffset dy="3"/>
<feGaussianBlur stdDeviation="2.5"/>
<feColorMatrix type="matrix" values="0 0 0 0 0.219608 0 0 0 0 0.219608 0 0 0 0 0.219608 0 0 0 0.1 0"/>
<feBlend mode="normal" in2="BackgroundImageFix" result="effect1_dropShadow"/>
<feBlend mode="normal" in="SourceGraphic" in2="effect1_dropShadow" result="shape"/>
</filter>
</defs>
</svg>
