<svg width="197" height="74" viewBox="0 0 197 74" fill="none" xmlns="http://www.w3.org/2000/svg">
<g filter="url(#filter0_d)">
<rect x="5" y="2" width="187" height="64" rx="32" fill="#614BDA"/>
</g>
<path d="M49.13 34.52V38.7C49.13 39.78 48.6167 40.4733 47.59 40.78C46.31 41.1667 45.0034 41.36 43.67 41.36C41.39 41.36 39.5234 40.6733 38.07 39.3C36.6167 37.9133 35.89 36.1133 35.89 33.9C35.89 31.6733 36.6167 29.88 38.07 28.52C39.5367 27.1467 41.37 26.46 43.57 26.46C45.2634 26.46 46.6234 26.7867 47.65 27.44C48.25 27.8267 48.55 28.3067 48.55 28.88C48.55 29.3333 48.4034 29.7133 48.11 30.02C47.83 30.3133 47.4767 30.46 47.05 30.46C46.73 30.46 46.37 30.3467 45.97 30.12C45.1967 29.6933 44.4167 29.48 43.63 29.48C42.4567 29.48 41.4767 29.9 40.69 30.74C39.9167 31.58 39.53 32.6333 39.53 33.9C39.53 35.2333 39.91 36.3133 40.67 37.14C41.43 37.9533 42.49 38.36 43.85 38.36C44.69 38.36 45.4034 38.2333 45.99 37.98V35.4H44.63C44.0567 35.4 43.6567 35.2533 43.43 34.96C43.2034 34.6667 43.09 34.3533 43.09 34.02C43.09 33.8867 43.11 33.7533 43.15 33.62C43.19 33.4733 43.2567 33.3267 43.35 33.18C43.4567 33.02 43.6167 32.8933 43.83 32.8C44.0567 32.6933 44.3234 32.64 44.63 32.64H47.25C48.5034 32.64 49.13 33.2667 49.13 34.52ZM66.6811 33.86C66.6811 36.0867 65.9545 37.9 64.5011 39.3C63.0478 40.6867 61.2011 41.38 58.9611 41.38C56.7345 41.38 54.8945 40.6867 53.4411 39.3C51.9878 37.9 51.2611 36.0867 51.2611 33.86C51.2611 31.62 51.9811 29.8267 53.4211 28.48C54.8745 27.1333 56.7211 26.46 58.9611 26.46C61.2145 26.46 63.0611 27.1333 64.5011 28.48C65.9545 29.8267 66.6811 31.62 66.6811 33.86ZM63.0211 33.86C63.0211 32.6067 62.6411 31.5733 61.8811 30.76C61.1211 29.9467 60.1478 29.54 58.9611 29.54C57.7745 29.54 56.8011 29.9467 56.0411 30.76C55.2945 31.5733 54.9211 32.6067 54.9211 33.86C54.9211 35.14 55.2945 36.1933 56.0411 37.02C56.8011 37.8467 57.7745 38.26 58.9611 38.26C60.1478 38.26 61.1211 37.8467 61.8811 37.02C62.6411 36.1933 63.0211 35.14 63.0211 33.86ZM76.0846 29.76H73.5046C72.8912 29.76 72.4646 29.6067 72.2246 29.3C71.9979 28.9933 71.8846 28.66 71.8846 28.3C71.8846 28.0867 71.9179 27.8867 71.9846 27.7C72.0512 27.5 72.2112 27.3067 72.4646 27.12C72.7312 26.9333 73.0779 26.84 73.5046 26.84H82.0846C82.6979 26.84 83.1179 26.9933 83.3446 27.3C83.5846 27.6067 83.7046 27.94 83.7046 28.3C83.7046 28.5133 83.6712 28.72 83.6046 28.92C83.5379 29.1067 83.3712 29.2933 83.1046 29.48C82.8512 29.6667 82.5112 29.76 82.0846 29.76H79.5046V39.28C79.5046 40 79.3179 40.5 78.9446 40.78C78.5846 41.06 78.2046 41.2 77.8046 41.2C77.3912 41.2 76.9979 41.06 76.6246 40.78C76.2646 40.5 76.0846 40 76.0846 39.28V29.76ZM99.2202 33.86C99.2202 36.0867 98.4935 37.9 97.0402 39.3C95.5869 40.6867 93.7402 41.38 91.5002 41.38C89.2735 41.38 87.4335 40.6867 85.9802 39.3C84.5268 37.9 83.8002 36.0867 83.8002 33.86C83.8002 31.62 84.5202 29.8267 85.9602 28.48C87.4135 27.1333 89.2602 26.46 91.5002 26.46C93.7535 26.46 95.6002 27.1333 97.0402 28.48C98.4935 29.8267 99.2202 31.62 99.2202 33.86ZM95.5602 33.86C95.5602 32.6067 95.1802 31.5733 94.4202 30.76C93.6602 29.9467 92.6868 29.54 91.5002 29.54C90.3135 29.54 89.3402 29.9467 88.5802 30.76C87.8335 31.5733 87.4602 32.6067 87.4602 33.86C87.4602 35.14 87.8335 36.1933 88.5802 37.02C89.3402 37.8467 90.3135 38.26 91.5002 38.26C92.6868 38.26 93.6602 37.8467 94.4202 37.02C95.1802 36.1933 95.5602 35.14 95.5602 33.86ZM106.532 40.22C106.012 39.82 105.752 39.3733 105.752 38.88C105.752 38.44 105.899 38.0667 106.192 37.76C106.499 37.44 106.879 37.28 107.332 37.28C107.679 37.28 108.065 37.4333 108.492 37.74C109.225 38.2733 110.012 38.54 110.852 38.54C111.319 38.54 111.719 38.4133 112.052 38.16C112.399 37.8933 112.572 37.5067 112.572 37C112.572 36.7867 112.519 36.6 112.412 36.44C112.319 36.2667 112.212 36.1267 112.092 36.02C111.972 35.9 111.759 35.7733 111.452 35.64C111.145 35.5067 110.885 35.4067 110.672 35.34C110.459 35.26 110.112 35.14 109.632 34.98C109.112 34.8067 108.665 34.6267 108.292 34.44C107.919 34.2533 107.545 34.0067 107.172 33.7C106.799 33.3933 106.512 33.0067 106.312 32.54C106.112 32.0733 106.012 31.5333 106.012 30.92C106.012 30.1733 106.172 29.5067 106.492 28.92C106.812 28.32 107.239 27.8533 107.772 27.52C108.305 27.1733 108.885 26.9133 109.512 26.74C110.152 26.5667 110.812 26.48 111.492 26.48C112.732 26.48 113.805 26.7533 114.712 27.3C115.325 27.6733 115.632 28.1467 115.632 28.72C115.632 29.1333 115.492 29.4867 115.212 29.78C114.945 30.0733 114.605 30.22 114.192 30.22C113.939 30.22 113.605 30.1133 113.192 29.9C112.432 29.5 111.812 29.3 111.332 29.3C110.785 29.3 110.332 29.42 109.972 29.66C109.625 29.8867 109.452 30.24 109.452 30.72C109.452 30.9467 109.499 31.1467 109.592 31.32C109.685 31.48 109.839 31.6267 110.052 31.76C110.279 31.88 110.499 31.9867 110.712 32.08C110.925 32.16 111.232 32.26 111.632 32.38C112.152 32.5533 112.559 32.6933 112.852 32.8C113.145 32.9067 113.519 33.0867 113.972 33.34C114.439 33.58 114.799 33.8333 115.052 34.1C115.305 34.3667 115.532 34.7267 115.732 35.18C115.932 35.62 116.032 36.1067 116.032 36.64C116.032 38.1733 115.505 39.3467 114.452 40.16C113.412 40.96 112.132 41.36 110.612 41.36C109.892 41.36 109.139 41.2533 108.352 41.04C107.565 40.8267 106.959 40.5533 106.532 40.22ZM118.288 39.28V28.56C118.288 27.84 118.468 27.34 118.828 27.06C119.202 26.78 119.595 26.64 120.008 26.64C120.408 26.64 120.788 26.78 121.148 27.06C121.522 27.34 121.708 27.84 121.708 28.56V32.2H127.228V28.56C127.228 27.84 127.408 27.34 127.768 27.06C128.142 26.78 128.535 26.64 128.948 26.64C129.348 26.64 129.728 26.78 130.088 27.06C130.462 27.34 130.648 27.84 130.648 28.56V39.28C130.648 40 130.462 40.5 130.088 40.78C129.728 41.06 129.348 41.2 128.948 41.2C128.535 41.2 128.142 41.06 127.768 40.78C127.408 40.5 127.228 40 127.228 39.28V35.08H121.708V39.28C121.708 40 121.522 40.5 121.148 40.78C120.788 41.06 120.408 41.2 120.008 41.2C119.595 41.2 119.202 41.06 118.828 40.78C118.468 40.5 118.288 40 118.288 39.28ZM148.322 33.86C148.322 36.0867 147.595 37.9 146.142 39.3C144.688 40.6867 142.842 41.38 140.602 41.38C138.375 41.38 136.535 40.6867 135.082 39.3C133.628 37.9 132.902 36.0867 132.902 33.86C132.902 31.62 133.622 29.8267 135.062 28.48C136.515 27.1333 138.362 26.46 140.602 26.46C142.855 26.46 144.702 27.1333 146.142 28.48C147.595 29.8267 148.322 31.62 148.322 33.86ZM144.662 33.86C144.662 32.6067 144.282 31.5733 143.522 30.76C142.762 29.9467 141.788 29.54 140.602 29.54C139.415 29.54 138.442 29.9467 137.682 30.76C136.935 31.5733 136.562 32.6067 136.562 33.86C136.562 35.14 136.935 36.1933 137.682 37.02C138.442 37.8467 139.415 38.26 140.602 38.26C141.788 38.26 142.762 37.8467 143.522 37.02C144.282 36.1933 144.662 35.14 144.662 33.86ZM157.893 31.22C157.893 30.14 157.093 29.6 155.493 29.6H153.993V32.94H155.433C157.073 32.94 157.893 32.3667 157.893 31.22ZM150.573 39.28V28.8C150.573 27.4933 151.227 26.84 152.533 26.84H155.773C157.453 26.84 158.793 27.1867 159.793 27.88C160.807 28.56 161.313 29.6667 161.313 31.2C161.313 32.24 161.04 33.1067 160.493 33.8C159.96 34.4933 159.287 34.98 158.473 35.26C157.673 35.5267 156.747 35.66 155.693 35.66H153.993V39.28C153.993 40 153.807 40.5 153.433 40.78C153.073 41.06 152.693 41.2 152.293 41.2C151.88 41.2 151.487 41.06 151.113 40.78C150.753 40.5 150.573 40 150.573 39.28Z" fill="white"/>
<defs>
<filter id="filter0_d" x="0" y="0" width="197" height="74" filterUnits="userSpaceOnUse" color-interpolation-filters="sRGB">
<feFlood flood-opacity="0" result="BackgroundImageFix"/>
<feColorMatrix in="SourceAlpha" type="matrix" values="0 0 0 0 0 0 0 0 0 0 0 0 0 0 0 0 0 0 127 0"/>
<feOffset dy="3"/>
<feGaussianBlur stdDeviation="2.5"/>
<feColorMatrix type="matrix" values="0 0 0 0 0.219608 0 0 0 0 0.219608 0 0 0 0 0.219608 0 0 0 0.1 0"/>
<feBlend mode="normal" in2="BackgroundImageFix" result="effect1_dropShadow"/>
<feBlend mode="normal" in="SourceGraphic" in2="effect1_dropShadow" result="shape"/>
</filter>
</defs>
</svg>
