<svg width="223" height="64" viewBox="0 0 223 64" fill="none" xmlns="http://www.w3.org/2000/svg">
<rect width="223" height="64" rx="32" fill="#614BDA"/>
<path d="M51.6316 27.06L48.4716 37.32C48.085 38.5733 47.3583 39.2 46.2916 39.2C45.2116 39.2 44.485 38.5733 44.1116 37.32L41.7116 29.42H41.6516L39.2516 37.32C38.8783 38.5733 38.1516 39.2 37.0716 39.2C35.9916 39.2 35.2583 38.5733 34.8716 37.32L31.7516 27.16C31.6716 26.8933 31.6316 26.6267 31.6316 26.36C31.6316 25.8667 31.7983 25.46 32.1316 25.14C32.465 24.8067 32.8716 24.64 33.3516 24.64C34.2583 24.64 34.8516 25.1867 35.1316 26.28L37.2516 34.26H37.3116L39.4316 26.84C39.685 25.9467 40.005 25.36 40.3916 25.08C40.7916 24.7867 41.2316 24.64 41.7116 24.64C41.925 24.64 42.1183 24.6667 42.2916 24.72C42.4783 24.76 42.6783 24.8467 42.8916 24.98C43.105 25.1133 43.305 25.34 43.4916 25.66C43.6916 25.9667 43.8583 26.36 43.9916 26.84L46.1316 34.26H46.1916L48.3716 26.2C48.6516 25.16 49.225 24.64 50.0916 24.64C50.545 24.64 50.9316 24.7867 51.2516 25.08C51.585 25.3733 51.7516 25.7733 51.7516 26.28C51.7516 26.4933 51.7116 26.7533 51.6316 27.06ZM62.6851 37.9L62.0051 36.22H55.9051L55.2051 37.92C54.8451 38.7733 54.2851 39.2 53.5251 39.2C53.0584 39.2 52.6651 39.0533 52.3451 38.76C52.0251 38.4667 51.8651 38.0667 51.8651 37.56C51.8651 37.2667 51.9384 36.9467 52.0851 36.6L56.7651 26.32C57.2717 25.2 58.0251 24.64 59.0251 24.64C60.0251 24.64 60.7717 25.2 61.2651 26.32L65.9051 36.56C66.0384 36.88 66.1051 37.1867 66.1051 37.48C66.1051 38 65.9384 38.42 65.6051 38.74C65.2717 39.0467 64.8717 39.2 64.4051 39.2C63.6051 39.2 63.0317 38.7667 62.6851 37.9ZM58.9651 28.78L57.0251 33.48H60.8851L58.9651 28.78ZM69.184 27.76H66.604C65.9907 27.76 65.564 27.6067 65.324 27.3C65.0973 26.9933 64.984 26.66 64.984 26.3C64.984 26.0867 65.0173 25.8867 65.084 25.7C65.1507 25.5 65.3107 25.3067 65.564 25.12C65.8307 24.9333 66.1773 24.84 66.604 24.84H75.184C75.7973 24.84 76.2173 24.9933 76.444 25.3C76.684 25.6067 76.804 25.94 76.804 26.3C76.804 26.5133 76.7707 26.72 76.704 26.92C76.6373 27.1067 76.4707 27.2933 76.204 27.48C75.9507 27.6667 75.6107 27.76 75.184 27.76H72.604V37.28C72.604 38 72.4173 38.5 72.044 38.78C71.684 39.06 71.304 39.2 70.904 39.2C70.4907 39.2 70.0973 39.06 69.724 38.78C69.364 38.5 69.184 38 69.184 37.28V27.76ZM86.5396 28.04C86.0196 27.72 85.4063 27.56 84.6996 27.56C83.5129 27.56 82.5329 27.9733 81.7596 28.8C80.9996 29.6133 80.6196 30.6467 80.6196 31.9C80.6196 33.18 80.9929 34.2267 81.7396 35.04C82.4863 35.84 83.4529 36.24 84.6396 36.24C85.3996 36.24 86.0796 36.0333 86.6796 35.62C87.1196 35.3133 87.5196 35.16 87.8796 35.16C88.3063 35.16 88.6663 35.3067 88.9596 35.6C89.2529 35.88 89.3996 36.2467 89.3996 36.7C89.3996 37.2333 89.1396 37.7067 88.6196 38.12C88.1929 38.4667 87.6063 38.76 86.8596 39C86.1263 39.2533 85.3463 39.38 84.5196 39.38C82.3196 39.38 80.4996 38.6867 79.0596 37.3C77.6196 35.9 76.8996 34.1 76.8996 31.9C76.8996 29.6733 77.6263 27.88 79.0796 26.52C80.5463 25.1467 82.3796 24.46 84.5796 24.46C85.3129 24.46 86.0396 24.56 86.7596 24.76C87.4929 24.9467 88.0529 25.18 88.4396 25.46C88.9863 25.86 89.2596 26.3467 89.2596 26.92C89.2596 27.36 89.1063 27.7267 88.7996 28.02C88.5063 28.3133 88.1396 28.46 87.6996 28.46C87.3663 28.46 86.9796 28.32 86.5396 28.04ZM91.4854 37.28V26.56C91.4854 25.84 91.6654 25.34 92.0254 25.06C92.3987 24.78 92.7921 24.64 93.2054 24.64C93.6054 24.64 93.9854 24.78 94.3454 25.06C94.7187 25.34 94.9054 25.84 94.9054 26.56V30.2H100.425V26.56C100.425 25.84 100.605 25.34 100.965 25.06C101.339 24.78 101.732 24.64 102.145 24.64C102.545 24.64 102.925 24.78 103.285 25.06C103.659 25.34 103.845 25.84 103.845 26.56V37.28C103.845 38 103.659 38.5 103.285 38.78C102.925 39.06 102.545 39.2 102.145 39.2C101.732 39.2 101.339 39.06 100.965 38.78C100.605 38.5 100.425 38 100.425 37.28V33.08H94.9054V37.28C94.9054 38 94.7187 38.5 94.3454 38.78C93.9854 39.06 93.6054 39.2 93.2054 39.2C92.7921 39.2 92.3987 39.06 92.0254 38.78C91.6654 38.5 91.4854 38 91.4854 37.28ZM113.911 27.76H111.331C110.717 27.76 110.291 27.6067 110.051 27.3C109.824 26.9933 109.711 26.66 109.711 26.3C109.711 26.0867 109.744 25.8867 109.811 25.7C109.877 25.5 110.037 25.3067 110.291 25.12C110.557 24.9333 110.904 24.84 111.331 24.84H119.911C120.524 24.84 120.944 24.9933 121.171 25.3C121.411 25.6067 121.531 25.94 121.531 26.3C121.531 26.5133 121.497 26.72 121.431 26.92C121.364 27.1067 121.197 27.2933 120.931 27.48C120.677 27.6667 120.337 27.76 119.911 27.76H117.331V37.28C117.331 38 117.144 38.5 116.771 38.78C116.411 39.06 116.031 39.2 115.631 39.2C115.217 39.2 114.824 39.06 114.451 38.78C114.091 38.5 113.911 38 113.911 37.28V27.76ZM130.332 29.18C130.332 28.1267 129.572 27.6 128.052 27.6H126.232V30.9H127.852C129.505 30.9 130.332 30.3267 130.332 29.18ZM130.772 38.32L127.472 33.38H126.252V37.32C126.252 38.0267 126.072 38.52 125.712 38.8C125.352 39.0667 124.972 39.2 124.572 39.2C124.172 39.2 123.792 39.0667 123.432 38.8C123.072 38.52 122.892 38.0267 122.892 37.32V26.8C122.892 25.4933 123.545 24.84 124.852 24.84H128.292C130.145 24.84 131.512 25.24 132.392 26.04C133.272 26.8267 133.712 27.8533 133.712 29.12C133.712 30.0533 133.458 30.8533 132.952 31.52C132.445 32.1733 131.738 32.64 130.832 32.92L133.452 36.42C133.745 36.82 133.892 37.2133 133.892 37.6C133.892 38.0533 133.732 38.4333 133.412 38.74C133.092 39.0467 132.698 39.2 132.232 39.2C131.645 39.2 131.158 38.9067 130.772 38.32ZM145.673 37.9L144.993 36.22H138.893L138.193 37.92C137.833 38.7733 137.273 39.2 136.513 39.2C136.047 39.2 135.653 39.0533 135.333 38.76C135.013 38.4667 134.853 38.0667 134.853 37.56C134.853 37.2667 134.927 36.9467 135.073 36.6L139.753 26.32C140.26 25.2 141.013 24.64 142.013 24.64C143.013 24.64 143.76 25.2 144.253 26.32L148.893 36.56C149.027 36.88 149.093 37.1867 149.093 37.48C149.093 38 148.927 38.42 148.593 38.74C148.26 39.0467 147.86 39.2 147.393 39.2C146.593 39.2 146.02 38.7667 145.673 37.9ZM141.953 28.78L140.013 33.48H143.873L141.953 28.78ZM150.724 37.28V26.56C150.724 25.84 150.904 25.34 151.264 25.06C151.637 24.78 152.03 24.64 152.444 24.64C152.857 24.64 153.244 24.78 153.604 25.06C153.977 25.34 154.164 25.84 154.164 26.56V37.28C154.164 38 153.977 38.5 153.604 38.78C153.244 39.06 152.857 39.2 152.444 39.2C152.03 39.2 151.637 39.06 151.264 38.78C150.904 38.5 150.724 38 150.724 37.28ZM164.531 39H159.051C157.744 39 157.091 38.3467 157.091 37.04V26.56C157.091 25.84 157.271 25.34 157.631 25.06C158.004 24.78 158.398 24.64 158.811 24.64C159.224 24.64 159.611 24.78 159.971 25.06C160.344 25.34 160.531 25.84 160.531 26.56V36.02H164.531C165.158 36.02 165.591 36.18 165.831 36.5C166.084 36.82 166.211 37.1533 166.211 37.5C166.211 37.86 166.084 38.2 165.831 38.52C165.591 38.84 165.158 39 164.531 39ZM170.918 30.4H175.418C176.032 30.4 176.445 30.5467 176.658 30.84C176.885 31.12 176.998 31.4267 176.998 31.76C176.998 31.96 176.965 32.1533 176.898 32.34C176.845 32.5133 176.692 32.6933 176.438 32.88C176.185 33.0533 175.845 33.14 175.418 33.14H170.918V36.08H176.078C176.692 36.08 177.112 36.2333 177.338 36.54C177.578 36.8467 177.698 37.18 177.698 37.54C177.698 37.7533 177.665 37.96 177.598 38.16C177.532 38.3467 177.365 38.5333 177.098 38.72C176.845 38.9067 176.505 39 176.078 39H169.578C168.272 39 167.618 38.3467 167.618 37.04V26.8C167.618 25.4933 168.272 24.84 169.578 24.84H175.718C176.332 24.84 176.752 24.9933 176.978 25.3C177.218 25.6067 177.338 25.9333 177.338 26.28C177.338 26.4933 177.305 26.7 177.238 26.9C177.172 27.0867 177.005 27.2733 176.738 27.46C176.485 27.6467 176.145 27.74 175.718 27.74H170.918V30.4ZM187.207 29.18C187.207 28.1267 186.447 27.6 184.927 27.6H183.107V30.9H184.727C186.38 30.9 187.207 30.3267 187.207 29.18ZM187.647 38.32L184.347 33.38H183.127V37.32C183.127 38.0267 182.947 38.52 182.587 38.8C182.227 39.0667 181.847 39.2 181.447 39.2C181.047 39.2 180.667 39.0667 180.307 38.8C179.947 38.52 179.767 38.0267 179.767 37.32V26.8C179.767 25.4933 180.42 24.84 181.727 24.84H185.167C187.02 24.84 188.387 25.24 189.267 26.04C190.147 26.8267 190.587 27.8533 190.587 29.12C190.587 30.0533 190.333 30.8533 189.827 31.52C189.32 32.1733 188.613 32.64 187.707 32.92L190.327 36.42C190.62 36.82 190.767 37.2133 190.767 37.6C190.767 38.0533 190.607 38.4333 190.287 38.74C189.967 39.0467 189.573 39.2 189.107 39.2C188.52 39.2 188.033 38.9067 187.647 38.32Z" fill="white"/>
</svg>
