<svg width="231" height="72" viewBox="0 0 231 72" fill="none" xmlns="http://www.w3.org/2000/svg">
<g filter="url(#filter0_d)">
<rect x="4" width="223" height="64" rx="32" fill="#614BDA"/>
</g>
<path d="M55.6316 27.06L52.4716 37.32C52.085 38.5733 51.3583 39.2 50.2916 39.2C49.2116 39.2 48.485 38.5733 48.1116 37.32L45.7116 29.42H45.6516L43.2516 37.32C42.8783 38.5733 42.1516 39.2 41.0716 39.2C39.9916 39.2 39.2583 38.5733 38.8716 37.32L35.7516 27.16C35.6716 26.8933 35.6316 26.6267 35.6316 26.36C35.6316 25.8667 35.7983 25.46 36.1316 25.14C36.465 24.8067 36.8716 24.64 37.3516 24.64C38.2583 24.64 38.8516 25.1867 39.1316 26.28L41.2516 34.26H41.3116L43.4316 26.84C43.685 25.9467 44.005 25.36 44.3916 25.08C44.7916 24.7867 45.2316 24.64 45.7116 24.64C45.925 24.64 46.1183 24.6667 46.2916 24.72C46.4783 24.76 46.6783 24.8467 46.8916 24.98C47.105 25.1133 47.305 25.34 47.4916 25.66C47.6916 25.9667 47.8583 26.36 47.9916 26.84L50.1316 34.26H50.1916L52.3716 26.2C52.6516 25.16 53.225 24.64 54.0916 24.64C54.545 24.64 54.9316 24.7867 55.2516 25.08C55.585 25.3733 55.7516 25.7733 55.7516 26.28C55.7516 26.4933 55.7116 26.7533 55.6316 27.06ZM66.6851 37.9L66.0051 36.22H59.9051L59.2051 37.92C58.8451 38.7733 58.2851 39.2 57.5251 39.2C57.0584 39.2 56.6651 39.0533 56.3451 38.76C56.0251 38.4667 55.8651 38.0667 55.8651 37.56C55.8651 37.2667 55.9384 36.9467 56.0851 36.6L60.7651 26.32C61.2717 25.2 62.0251 24.64 63.0251 24.64C64.0251 24.64 64.7717 25.2 65.2651 26.32L69.9051 36.56C70.0384 36.88 70.1051 37.1867 70.1051 37.48C70.1051 38 69.9384 38.42 69.6051 38.74C69.2717 39.0467 68.8717 39.2 68.4051 39.2C67.6051 39.2 67.0317 38.7667 66.6851 37.9ZM62.9651 28.78L61.0251 33.48H64.8851L62.9651 28.78ZM73.184 27.76H70.604C69.9907 27.76 69.564 27.6067 69.324 27.3C69.0973 26.9933 68.984 26.66 68.984 26.3C68.984 26.0867 69.0173 25.8867 69.084 25.7C69.1507 25.5 69.3107 25.3067 69.564 25.12C69.8307 24.9333 70.1773 24.84 70.604 24.84H79.184C79.7973 24.84 80.2173 24.9933 80.444 25.3C80.684 25.6067 80.804 25.94 80.804 26.3C80.804 26.5133 80.7707 26.72 80.704 26.92C80.6373 27.1067 80.4707 27.2933 80.204 27.48C79.9507 27.6667 79.6107 27.76 79.184 27.76H76.604V37.28C76.604 38 76.4173 38.5 76.044 38.78C75.684 39.06 75.304 39.2 74.904 39.2C74.4907 39.2 74.0973 39.06 73.724 38.78C73.364 38.5 73.184 38 73.184 37.28V27.76ZM90.5396 28.04C90.0196 27.72 89.4063 27.56 88.6996 27.56C87.5129 27.56 86.5329 27.9733 85.7596 28.8C84.9996 29.6133 84.6196 30.6467 84.6196 31.9C84.6196 33.18 84.9929 34.2267 85.7396 35.04C86.4863 35.84 87.4529 36.24 88.6396 36.24C89.3996 36.24 90.0796 36.0333 90.6796 35.62C91.1196 35.3133 91.5196 35.16 91.8796 35.16C92.3063 35.16 92.6663 35.3067 92.9596 35.6C93.2529 35.88 93.3996 36.2467 93.3996 36.7C93.3996 37.2333 93.1396 37.7067 92.6196 38.12C92.1929 38.4667 91.6063 38.76 90.8596 39C90.1263 39.2533 89.3463 39.38 88.5196 39.38C86.3196 39.38 84.4996 38.6867 83.0596 37.3C81.6196 35.9 80.8996 34.1 80.8996 31.9C80.8996 29.6733 81.6263 27.88 83.0796 26.52C84.5463 25.1467 86.3796 24.46 88.5796 24.46C89.3129 24.46 90.0396 24.56 90.7596 24.76C91.4929 24.9467 92.0529 25.18 92.4396 25.46C92.9863 25.86 93.2596 26.3467 93.2596 26.92C93.2596 27.36 93.1063 27.7267 92.7996 28.02C92.5063 28.3133 92.1396 28.46 91.6996 28.46C91.3663 28.46 90.9796 28.32 90.5396 28.04ZM95.4854 37.28V26.56C95.4854 25.84 95.6654 25.34 96.0254 25.06C96.3987 24.78 96.7921 24.64 97.2054 24.64C97.6054 24.64 97.9854 24.78 98.3454 25.06C98.7187 25.34 98.9054 25.84 98.9054 26.56V30.2H104.425V26.56C104.425 25.84 104.605 25.34 104.965 25.06C105.339 24.78 105.732 24.64 106.145 24.64C106.545 24.64 106.925 24.78 107.285 25.06C107.659 25.34 107.845 25.84 107.845 26.56V37.28C107.845 38 107.659 38.5 107.285 38.78C106.925 39.06 106.545 39.2 106.145 39.2C105.732 39.2 105.339 39.06 104.965 38.78C104.605 38.5 104.425 38 104.425 37.28V33.08H98.9054V37.28C98.9054 38 98.7187 38.5 98.3454 38.78C97.9854 39.06 97.6054 39.2 97.2054 39.2C96.7921 39.2 96.3987 39.06 96.0254 38.78C95.6654 38.5 95.4854 38 95.4854 37.28ZM117.911 27.76H115.331C114.717 27.76 114.291 27.6067 114.051 27.3C113.824 26.9933 113.711 26.66 113.711 26.3C113.711 26.0867 113.744 25.8867 113.811 25.7C113.877 25.5 114.037 25.3067 114.291 25.12C114.557 24.9333 114.904 24.84 115.331 24.84H123.911C124.524 24.84 124.944 24.9933 125.171 25.3C125.411 25.6067 125.531 25.94 125.531 26.3C125.531 26.5133 125.497 26.72 125.431 26.92C125.364 27.1067 125.197 27.2933 124.931 27.48C124.677 27.6667 124.337 27.76 123.911 27.76H121.331V37.28C121.331 38 121.144 38.5 120.771 38.78C120.411 39.06 120.031 39.2 119.631 39.2C119.217 39.2 118.824 39.06 118.451 38.78C118.091 38.5 117.911 38 117.911 37.28V27.76ZM134.332 29.18C134.332 28.1267 133.572 27.6 132.052 27.6H130.232V30.9H131.852C133.505 30.9 134.332 30.3267 134.332 29.18ZM134.772 38.32L131.472 33.38H130.252V37.32C130.252 38.0267 130.072 38.52 129.712 38.8C129.352 39.0667 128.972 39.2 128.572 39.2C128.172 39.2 127.792 39.0667 127.432 38.8C127.072 38.52 126.892 38.0267 126.892 37.32V26.8C126.892 25.4933 127.545 24.84 128.852 24.84H132.292C134.145 24.84 135.512 25.24 136.392 26.04C137.272 26.8267 137.712 27.8533 137.712 29.12C137.712 30.0533 137.458 30.8533 136.952 31.52C136.445 32.1733 135.738 32.64 134.832 32.92L137.452 36.42C137.745 36.82 137.892 37.2133 137.892 37.6C137.892 38.0533 137.732 38.4333 137.412 38.74C137.092 39.0467 136.698 39.2 136.232 39.2C135.645 39.2 135.158 38.9067 134.772 38.32ZM149.673 37.9L148.993 36.22H142.893L142.193 37.92C141.833 38.7733 141.273 39.2 140.513 39.2C140.047 39.2 139.653 39.0533 139.333 38.76C139.013 38.4667 138.853 38.0667 138.853 37.56C138.853 37.2667 138.927 36.9467 139.073 36.6L143.753 26.32C144.26 25.2 145.013 24.64 146.013 24.64C147.013 24.64 147.76 25.2 148.253 26.32L152.893 36.56C153.027 36.88 153.093 37.1867 153.093 37.48C153.093 38 152.927 38.42 152.593 38.74C152.26 39.0467 151.86 39.2 151.393 39.2C150.593 39.2 150.02 38.7667 149.673 37.9ZM145.953 28.78L144.013 33.48H147.873L145.953 28.78ZM154.724 37.28V26.56C154.724 25.84 154.904 25.34 155.264 25.06C155.637 24.78 156.03 24.64 156.444 24.64C156.857 24.64 157.244 24.78 157.604 25.06C157.977 25.34 158.164 25.84 158.164 26.56V37.28C158.164 38 157.977 38.5 157.604 38.78C157.244 39.06 156.857 39.2 156.444 39.2C156.03 39.2 155.637 39.06 155.264 38.78C154.904 38.5 154.724 38 154.724 37.28ZM168.531 39H163.051C161.744 39 161.091 38.3467 161.091 37.04V26.56C161.091 25.84 161.271 25.34 161.631 25.06C162.004 24.78 162.398 24.64 162.811 24.64C163.224 24.64 163.611 24.78 163.971 25.06C164.344 25.34 164.531 25.84 164.531 26.56V36.02H168.531C169.158 36.02 169.591 36.18 169.831 36.5C170.084 36.82 170.211 37.1533 170.211 37.5C170.211 37.86 170.084 38.2 169.831 38.52C169.591 38.84 169.158 39 168.531 39ZM174.918 30.4H179.418C180.032 30.4 180.445 30.5467 180.658 30.84C180.885 31.12 180.998 31.4267 180.998 31.76C180.998 31.96 180.965 32.1533 180.898 32.34C180.845 32.5133 180.692 32.6933 180.438 32.88C180.185 33.0533 179.845 33.14 179.418 33.14H174.918V36.08H180.078C180.692 36.08 181.112 36.2333 181.338 36.54C181.578 36.8467 181.698 37.18 181.698 37.54C181.698 37.7533 181.665 37.96 181.598 38.16C181.532 38.3467 181.365 38.5333 181.098 38.72C180.845 38.9067 180.505 39 180.078 39H173.578C172.272 39 171.618 38.3467 171.618 37.04V26.8C171.618 25.4933 172.272 24.84 173.578 24.84H179.718C180.332 24.84 180.752 24.9933 180.978 25.3C181.218 25.6067 181.338 25.9333 181.338 26.28C181.338 26.4933 181.305 26.7 181.238 26.9C181.172 27.0867 181.005 27.2733 180.738 27.46C180.485 27.6467 180.145 27.74 179.718 27.74H174.918V30.4ZM191.207 29.18C191.207 28.1267 190.447 27.6 188.927 27.6H187.107V30.9H188.727C190.38 30.9 191.207 30.3267 191.207 29.18ZM191.647 38.32L188.347 33.38H187.127V37.32C187.127 38.0267 186.947 38.52 186.587 38.8C186.227 39.0667 185.847 39.2 185.447 39.2C185.047 39.2 184.667 39.0667 184.307 38.8C183.947 38.52 183.767 38.0267 183.767 37.32V26.8C183.767 25.4933 184.42 24.84 185.727 24.84H189.167C191.02 24.84 192.387 25.24 193.267 26.04C194.147 26.8267 194.587 27.8533 194.587 29.12C194.587 30.0533 194.333 30.8533 193.827 31.52C193.32 32.1733 192.613 32.64 191.707 32.92L194.327 36.42C194.62 36.82 194.767 37.2133 194.767 37.6C194.767 38.0533 194.607 38.4333 194.287 38.74C193.967 39.0467 193.573 39.2 193.107 39.2C192.52 39.2 192.033 38.9067 191.647 38.32Z" fill="white"/>
<defs>
<filter id="filter0_d" x="0" y="0" width="231" height="72" filterUnits="userSpaceOnUse" color-interpolation-filters="sRGB">
<feFlood flood-opacity="0" result="BackgroundImageFix"/>
<feColorMatrix in="SourceAlpha" type="matrix" values="0 0 0 0 0 0 0 0 0 0 0 0 0 0 0 0 0 0 127 0"/>
<feOffset dy="4"/>
<feGaussianBlur stdDeviation="2"/>
<feColorMatrix type="matrix" values="0 0 0 0 0 0 0 0 0 0 0 0 0 0 0 0 0 0 0.25 0"/>
<feBlend mode="normal" in2="BackgroundImageFix" result="effect1_dropShadow"/>
<feBlend mode="normal" in="SourceGraphic" in2="effect1_dropShadow" result="shape"/>
</filter>
</defs>
</svg>
