<svg width="360" height="157" viewBox="0 0 360 157" fill="none" xmlns="http://www.w3.org/2000/svg">
<path d="M171.672 59.8137C163.333 59.8137 152.244 75.4643 152.244 84.3135C152.244 85.6738 153.053 86.7561 154.7 86.7561C161.951 86.7561 173.319 64.5674 173.319 61.5836C173.319 60.3549 172.76 59.8137 171.672 59.8137ZM171.672 59.8137C163.333 59.8137 152.244 75.4643 152.244 84.3135C152.244 85.6738 153.053 86.7561 154.7 86.7561C161.951 86.7561 173.319 64.5674 173.319 61.5836C173.319 60.3549 172.76 59.8137 171.672 59.8137ZM171.672 59.8137C163.333 59.8137 152.244 75.4643 152.244 84.3135C152.244 85.6738 153.053 86.7561 154.7 86.7561C161.951 86.7561 173.319 64.5674 173.319 61.5836C173.319 60.3549 172.76 59.8137 171.672 59.8137ZM171.672 59.8137C163.333 59.8137 152.244 75.4643 152.244 84.3135C152.244 85.6738 153.053 86.7561 154.7 86.7561C161.951 86.7561 173.319 64.5674 173.319 61.5836C173.319 60.3549 172.76 59.8137 171.672 59.8137ZM171.672 59.8137C163.333 59.8137 152.244 75.4643 152.244 84.3135C152.244 85.6738 153.053 86.7561 154.7 86.7561C161.951 86.7561 173.319 64.5674 173.319 61.5836C173.319 60.3549 172.76 59.8137 171.672 59.8137ZM171.672 59.8137C163.333 59.8137 152.244 75.4643 152.244 84.3135C152.244 85.6738 153.053 86.7561 154.7 86.7561C161.951 86.7561 173.319 64.5674 173.319 61.5836C173.319 60.3549 172.76 59.8137 171.672 59.8137ZM357.273 53.5681C355.832 51.2571 353.876 49.2094 351.464 47.4834C346.669 44.0608 340.581 42.2471 333.845 42.2471C330.536 42.2471 327.447 43.4172 325.124 45.5381C323.8 46.7375 322.756 48.2001 322.079 49.853C321.815 49.5897 321.55 49.3264 321.285 49.0778C317.27 45.3187 312.211 42.9492 306.975 42.3787C306.167 42.2763 305.358 42.2325 304.549 42.2325C302.813 42.2178 301.093 42.4665 299.445 42.993C299.49 42.5396 299.519 42.0862 299.519 41.6181C299.519 38.5465 298.475 35.5188 296.401 32.6227C294.901 30.575 293.122 28.7613 291.092 27.2401C289.062 25.6897 286.842 24.4025 284.489 23.4225C281.65 22.2524 278.841 21.6673 276.12 21.6673C272.973 21.6673 270.208 22.384 267.914 23.8174C264.428 25.9822 262.34 29.6389 262.266 33.6173C262.222 33.9684 261.958 35.2994 260.663 38.8244C259.987 40.6674 259.178 42.7444 258.281 44.9676C257.928 45.1139 257.604 45.2602 257.34 45.3918C256.516 45.7721 255.737 46.2402 255.001 46.7814L254.913 46.7082C254.56 46.4157 254.192 46.1524 253.839 45.9038C253.575 45.7136 253.31 45.5381 253.016 45.3626C252.81 45.2309 252.604 45.1139 252.398 44.9969L252.295 44.9384C252.251 44.9091 252.192 44.8799 252.148 44.8653C251.148 44.3094 250.104 43.856 249.016 43.505L248.942 43.4757L248.78 43.4172C248.589 43.3587 248.413 43.3002 248.221 43.2417C247.868 43.1393 247.442 43.0223 246.957 42.9199C246.368 42.7736 245.78 42.6712 245.221 42.5835C244.868 42.525 244.574 42.4957 244.353 42.4665C243.28 42.3348 242.191 42.2763 241.103 42.2763C233.279 42.2763 226.573 45.0261 221.617 47.9515C218.484 45.1432 213.366 42.2763 205.498 42.2763C202.262 42.2763 199.453 43.0369 197.13 44.5288C195.644 45.4796 194.394 46.7521 193.453 48.244C191.247 46.8545 188.894 45.7136 186.438 44.8214C182.04 43.2271 177.393 42.408 172.716 42.408C165.26 42.408 157.994 44.0608 151.112 47.3372C150.126 47.8052 149.141 48.3172 148.17 48.8583C148.288 48.5658 148.42 48.2733 148.538 47.9807L148.567 47.9076C148.685 47.5858 148.832 47.2494 148.979 46.8984C149.067 46.679 149.17 46.4596 149.258 46.2402C149.273 46.2109 149.273 46.1817 149.288 46.1524C151.038 41.7937 152.215 38.5904 152.95 36.06C152.965 36.0161 152.979 35.9722 152.979 35.9283C152.994 35.8406 153.023 35.7674 153.038 35.6943C153.112 35.4603 153.185 35.197 153.259 34.8898C153.303 34.7436 153.347 34.5827 153.376 34.4364C153.391 34.3925 153.391 34.3633 153.406 34.3194L153.435 34.217C153.45 34.1585 153.465 34.1146 153.465 34.0708C153.553 33.7197 153.641 33.3687 153.685 33.0176C153.715 32.8714 153.729 32.7543 153.759 32.652C153.818 32.3302 153.862 32.0523 153.891 31.8329C153.935 31.5257 153.965 31.2771 153.979 31.0723C154.024 30.6335 154.053 30.18 154.038 29.7412C154.038 22.9106 148.714 17.8205 145.538 15.4071C143.508 13.8567 141.287 12.5695 138.934 11.5749C136.066 10.3901 133.243 9.7758 130.522 9.7758C122.227 9.7758 117.536 14.9244 116.771 20.4533C116.609 20.19 116.433 19.9267 116.241 19.6488C115.83 19.0491 115.433 18.4933 115.021 17.9668C114.521 17.3086 114.006 16.7089 113.535 16.1823C113.065 15.6411 112.609 15.1584 112.138 14.705C111.373 13.9444 110.594 13.2423 109.815 12.5841C109.432 12.2477 109.094 11.9844 108.859 11.8089L108.844 11.7943C108.55 11.5749 108.167 11.2531 107.711 10.9313C106.961 10.3755 106.167 9.83431 105.358 9.32237C104.991 9.08835 104.667 8.91283 104.344 8.72268C104.02 8.53253 103.623 8.28388 103.152 8.04985L102.946 7.93284C102.829 7.8597 102.696 7.8012 102.549 7.71344C102.108 7.46478 101.682 7.24538 101.255 7.04061C100.608 6.70419 99.9462 6.39703 99.255 6.1045C98.4902 5.75346 97.7402 5.4463 97.0048 5.16839L96.9019 5.12451C96.6813 5.03675 96.4166 4.93436 96.0783 4.81735C95.8283 4.71496 95.4753 4.59795 95.0782 4.45168C94.6959 4.30542 94.2841 4.17378 93.8428 4.04213C92.7251 3.67647 91.7545 3.38393 90.8426 3.14991C90.4161 3.03289 90.0338 2.91588 89.6514 2.82812C89.1661 2.69648 88.6807 2.57946 88.166 2.47708C87.4306 2.30156 86.6659 2.12604 85.9011 1.97977C84.9746 1.78962 84.0775 1.62873 83.1509 1.48246C82.5774 1.3947 81.945 1.27769 81.2537 1.20455L80.8714 1.13142L80.6655 1.10217C80.1948 1.02903 79.783 0.985154 79.4595 0.941274C78.8271 0.853514 78.2388 0.795007 77.6211 0.7365C76.121 0.575607 74.8856 0.47322 73.7091 0.414713C73.2679 0.38546 72.7826 0.356206 72.2972 0.34158C72.0913 0.326953 71.8119 0.312326 71.5031 0.297699C69.9735 0.224566 68.3852 0.195312 66.6351 0.195312C57.7521 0.195312 49.5162 0.838887 42.1481 2.11141C34.3681 3.44244 27.5294 5.49018 21.8084 8.18149C15.3226 11.2238 10.2046 15.1292 6.60145 19.8097C2.54234 25.0022 0.365717 31.4087 0.409837 37.9761C0.409837 46.6497 4.52777 54.5189 12.0283 60.1648C16.1904 63.2949 21.2201 65.5474 25.9557 66.4835C23.8674 72.2903 22.0143 77.7607 20.6171 82.2365C17.7346 91.4074 17.3522 94.5083 17.3522 96.4683C17.3522 100.754 19.367 104.659 23.0291 107.468C25.0733 109.033 27.5882 110.247 30.6914 111.153C36.3682 112.821 42.2804 113.011 44.56 113.011C46.5601 113.026 48.5309 112.587 50.3251 111.724C52.2076 110.802 53.8401 109.428 55.0313 107.702C56.5167 105.581 57.1638 103.343 57.6344 101.251C57.6491 101.193 57.6638 101.134 57.6786 101.076C59.5757 91.8316 62.2524 82.7192 65.3261 73.8261C69.9882 76.5759 75.6357 78.0825 81.3567 78.0825C82.695 78.0825 84.0186 78.024 85.3128 77.907C85.4158 77.8923 85.5334 77.8923 85.6364 77.8777H85.7099C85.8864 77.8631 86.1364 77.8338 86.4306 77.79C86.9747 77.7315 87.5042 77.6583 88.063 77.5706C89.1219 77.4097 90.1955 77.2049 91.2839 76.9416L91.3574 76.927C91.6221 76.8685 91.9751 76.7807 92.3869 76.6637H92.4163C92.6222 76.6052 92.8869 76.5321 93.2105 76.4443C93.534 76.3565 93.7987 76.2688 93.9899 76.2103L94.0782 76.181C94.5929 76.0201 95.0929 75.8592 95.5636 75.6837C95.1371 76.7661 94.7253 77.8192 94.3135 78.887C94.2693 78.9747 94.2399 79.0917 94.2105 79.1795C94.1811 79.2673 94.1223 79.4135 94.0635 79.5744C94.0046 79.7353 93.9311 79.9108 93.8576 80.1156C93.0928 82.1195 92.4457 83.9917 91.9162 85.6445C91.8133 85.9224 91.7398 86.1711 91.6809 86.3612C91.6662 86.4051 91.6515 86.449 91.6368 86.4782C91.3868 87.2534 91.1956 87.9848 91.0044 88.643V88.6576L90.975 88.7892C90.9309 88.9355 90.8721 89.1403 90.8132 89.3743C90.7103 89.74 90.622 90.1056 90.5485 90.4713C90.475 90.7931 90.4161 91.071 90.372 91.2904V91.3197V91.3489C90.2838 91.817 90.225 92.2119 90.1808 92.4752L90.1661 92.5922C90.1367 92.797 90.0926 93.0749 90.0632 93.4259C90.0338 93.6307 90.0043 93.9232 89.9896 94.2889C89.9602 94.7277 89.9602 95.0641 89.9602 95.2542C89.9602 99.2327 91.6515 102.963 94.74 105.742C96.6519 107.468 99.1079 108.828 102.035 109.822C107.094 111.534 112.579 111.782 115.388 111.782C117.183 111.797 118.977 111.461 120.639 110.773C122.757 109.881 124.566 108.404 125.845 106.517C126.301 105.844 126.683 105.127 126.992 104.381C127.286 104.747 127.595 105.083 127.919 105.434C129.934 107.555 132.39 109.208 135.11 110.276C137.787 111.314 140.64 111.826 143.508 111.812C148.817 111.812 154.068 110.759 158.965 108.696C160.583 108.009 162.171 107.234 163.701 106.371C167.127 108.784 172.128 111.256 178.908 111.724C179.628 111.782 180.408 111.812 181.261 111.812C184.29 111.812 187.041 110.861 189.217 109.047C189.232 109.062 189.247 109.062 189.261 109.062C189.805 109.296 190.364 109.515 190.953 109.72L190.982 109.735C191.114 109.779 191.232 109.822 191.335 109.852C191.879 110.042 192.394 110.188 192.953 110.334C193.512 110.495 194.012 110.612 194.438 110.7L194.644 110.744C195.115 110.832 195.615 110.934 196.174 111.036C196.865 111.168 197.482 111.256 197.983 111.314C198.556 111.387 199.071 111.446 199.527 111.49H199.63C199.953 111.519 200.365 111.563 200.836 111.592C201.527 111.651 202.159 111.68 202.792 111.695C203.306 111.709 203.895 111.724 204.527 111.724C206.336 111.739 208.116 111.387 209.792 110.7C210.439 110.422 211.057 110.1 211.631 109.72C214.763 118.642 220.999 126.16 229.205 130.943C232.014 132.567 235.015 133.825 238.132 134.717C241.383 135.639 244.736 136.136 248.118 136.209C248.457 136.224 248.81 136.224 249.148 136.224C253.56 136.224 257.943 135.565 262.163 134.249C263.134 133.942 264.105 133.605 265.046 133.24C265.546 134.688 266.178 136.107 266.928 137.452C268.708 140.641 270.973 143.537 273.65 146.038C276.856 149.081 280.577 151.523 284.65 153.278C289.474 155.326 294.666 156.379 299.916 156.35C307.299 156.35 314.049 154.288 320.006 150.192C324.947 146.799 329.227 142.133 333.08 135.946C339.448 125.692 343.434 113.04 346.949 101.88C347.817 99.1303 348.625 96.5414 349.449 94.0987V94.0841C351.287 88.5552 353.302 83.1872 355.082 78.4335C358.656 68.9262 359.891 65.4743 359.891 62.271C359.861 59.2726 358.964 56.2741 357.273 53.5681ZM252.222 84.3427C253.236 82.1926 254.178 79.9986 255.06 77.79C255.119 77.6291 255.178 77.4828 255.251 77.3219C256.207 74.9378 257.09 72.7584 257.81 71.0617C258.354 69.7745 258.854 68.5459 259.296 67.4343C259.296 67.405 259.31 67.3904 259.325 67.3757C260.163 65.211 260.075 64.8161 260.06 63.9677C260.06 63.8507 259.972 63.763 259.854 63.763C258.428 63.763 255.942 63.6752 255.942 61.9931C255.942 60.3549 258.281 55.0454 260.06 53.3926C260.399 53.0855 260.766 52.8368 261.178 52.6613C261.325 52.5882 261.472 52.515 261.619 52.4711H261.634C261.737 52.4273 261.84 52.398 261.943 52.3688C262.84 52.1055 263.796 52.047 264.855 52.047C264.943 52.047 265.017 52.0031 265.046 51.9153C265.061 51.8861 265.075 51.8568 265.075 51.8422C268.605 43.1978 271.723 35.6651 271.723 32.2717C271.723 31.043 272.958 30.0923 275.547 30.0923C281.312 30.0923 288.857 36.0892 288.857 40.0384C288.857 41.9107 286.856 46.05 284.577 51.7544C284.533 51.8568 284.577 51.9885 284.68 52.0323C284.709 52.047 284.739 52.047 284.768 52.047C285.018 52.047 285.253 52.047 285.489 52.0323C285.812 52.0323 286.106 52.0323 286.415 52.0177C286.577 52.0177 286.724 52.0177 286.871 52.0031H286.886C287.092 52.0031 287.283 52.0031 287.474 51.9885C288.004 51.9592 288.474 51.93 288.886 51.9153C290.563 51.7691 291.386 51.5935 292.151 51.535C292.239 51.5204 292.327 51.5204 292.416 51.5204H292.445C292.533 51.5058 292.621 51.5058 292.695 51.5058C293.651 51.5058 294.063 52.0616 294.063 52.9977C294.063 53.7729 293.989 54.5481 293.827 55.3087C293.769 55.5574 293.71 55.806 293.636 56.0693C293.563 56.3326 293.474 56.5812 293.386 56.8299C293.298 57.0786 293.18 57.3126 293.063 57.5612C292.96 57.7806 292.842 58 292.724 58.2048C292.636 58.3511 292.548 58.4973 292.445 58.6436C292.371 58.7606 292.298 58.863 292.21 58.98C292.048 59.2141 291.871 59.4481 291.68 59.6675C291.489 59.9015 291.268 60.1063 291.063 60.3111C290.827 60.5305 290.592 60.7499 290.327 60.94C290.121 61.1009 289.901 61.2618 289.665 61.4227C289.607 61.4666 289.548 61.4958 289.474 61.5397C289.239 61.7006 288.974 61.8469 288.709 61.9931C288.665 62.0224 288.621 62.037 288.577 62.0663C288.312 62.1979 288.033 62.3295 287.739 62.4466C287.401 62.5928 287.048 62.7245 286.665 62.8561C286.665 62.8707 286.65 62.8707 286.636 62.8707C286.459 62.9292 286.298 62.9731 286.121 63.017C285.915 63.0755 285.709 63.134 285.489 63.1925C285.268 63.251 285.077 63.2949 284.871 63.3388C284.665 63.3827 284.444 63.4265 284.224 63.4704C283.547 63.5874 282.871 63.6898 282.194 63.7337C281.827 63.7776 281.444 63.8068 281.047 63.8215H280.974C280.621 63.8507 280.224 63.8507 279.841 63.8507C279.782 63.8507 279.738 63.88 279.694 63.9239C279.606 64.1286 279.503 64.3334 279.415 64.5382C278.885 65.6644 278.312 66.9077 277.753 68.2095C277.503 68.7653 277.253 69.3357 277.003 69.9208C276.767 70.462 276.517 71.0324 276.282 71.6029C275.517 73.3581 274.753 75.1425 274.017 76.927C273.9 77.2195 273.782 77.4974 273.664 77.79C273.561 78.024 273.473 78.2434 273.385 78.4774C271.958 81.9439 269.664 88.5698 268.237 92.9725C268.237 92.9871 268.223 93.0164 268.208 93.031C268.149 93.1187 268.105 93.2065 268.061 93.3089C268.061 93.3235 268.046 93.3235 268.046 93.3381C266.84 97.9602 262.222 100.856 257.501 99.9494C256.913 99.8324 256.34 99.6715 255.795 99.4375C255.266 99.2181 254.751 98.9548 254.266 98.633C251.751 96.9948 250.207 94.2304 250.148 91.2465V91.0417C250.148 90.3397 250.251 89.6522 250.442 88.9794C250.648 88.2773 250.883 87.5752 251.163 86.8878C251.427 86.0687 251.825 85.1911 252.222 84.3427ZM99.4315 61.2325C99.2991 61.3057 99.1668 61.3934 99.0491 61.4812C98.6079 61.7591 98.1667 62.0224 97.6961 62.271C97.5343 62.3734 97.3578 62.4612 97.196 62.5489C96.7548 62.7976 96.3136 63.017 95.843 63.2218C95.5341 63.3827 95.2106 63.5289 94.887 63.6606C94.49 63.8361 94.0635 63.997 93.6517 64.1579C93.534 64.2164 93.4163 64.2603 93.2987 64.2895C92.784 64.4943 92.2692 64.6698 91.7251 64.8307C91.4897 64.9038 91.2691 64.977 91.0338 65.0355C90.7985 65.094 90.5779 65.1671 90.3573 65.2256C90.1073 65.2988 89.8426 65.3573 89.5926 65.4158C88.8131 65.6059 87.9895 65.7668 87.1806 65.8838C86.7394 65.957 86.2835 66.0155 85.8276 66.0593C85.5776 66.1032 85.3423 66.1179 85.1069 66.1471C84.1069 66.2349 83.0921 66.2787 82.0626 66.2787C72.8855 66.2934 66.1792 60.8522 66.1792 57.3126C66.1792 56.5081 66.8557 55.8207 67.5469 55.8207C68.5176 55.8207 70.4147 57.1809 73.562 57.1809C83.0186 57.1809 93.0046 47.3811 93.0046 32.8129C93.0046 22.618 85.8717 18.4056 79.8566 18.4056C77.9447 18.4056 76.5769 20.4387 74.6503 24.9291C65.2232 46.2987 54.1342 71.0617 48.7956 97.0533C48.2514 99.496 47.6926 101.003 45.5012 101.003C39.0743 101.003 28.3971 99.3643 28.3971 94.4644C28.3971 88.2188 45.5012 41.1208 53.7077 26.2893C57.1344 20.1754 60.4287 18.5372 60.8405 18.2593C47.6926 20.0291 30.4561 27.3863 30.4561 41.9399C30.4561 50.5112 33.8828 52.4126 33.8828 53.9192C33.8828 54.7237 33.1915 55.2795 31.6914 55.2795C25.1322 55.2795 11.5724 48.8876 11.5724 36.3671C11.5724 18.1276 34.4416 8.73731 67.4145 8.73731C68.9293 8.73731 70.4442 8.76656 71.9296 8.83969C72.0913 8.83969 72.2678 8.85432 72.4296 8.86895C72.9002 8.88357 73.3855 8.91283 73.8709 8.94208C75.018 9.00059 76.1504 9.10297 77.2829 9.21999C77.8417 9.27849 78.4153 9.337 78.9742 9.41013C79.2389 9.43939 79.5183 9.46864 79.8125 9.51252C80.0919 9.5564 80.3566 9.58565 80.636 9.62953C81.1508 9.68804 81.6949 9.7758 82.2244 9.86356C83.0333 9.9952 83.8422 10.1415 84.6363 10.3024C85.3128 10.434 86.0041 10.5803 86.6659 10.7412C87.0336 10.8143 87.4012 10.9021 87.7689 11.0044C88.1366 11.1068 88.5042 11.1946 88.8719 11.297C89.7396 11.5164 90.6073 11.7797 91.4456 12.0576C91.7839 12.16 92.1368 12.277 92.4751 12.4086C92.7398 12.4817 92.9898 12.5841 93.2546 12.6865C93.5193 12.7889 93.7693 12.8767 94.034 12.979C94.6223 13.1985 95.2253 13.4471 95.7989 13.7104C96.3724 13.9737 96.9607 14.2223 97.5196 14.5149C97.7843 14.6319 98.0343 14.7489 98.2696 14.8951C98.5491 15.0414 98.8285 15.2023 99.1079 15.3486C99.3138 15.451 99.5197 15.568 99.7109 15.6996C99.9903 15.8605 100.27 16.0214 100.564 16.1969C101.167 16.5772 101.785 16.9868 102.358 17.4256C102.667 17.645 102.961 17.879 103.241 18.0984C103.432 18.2447 103.623 18.3909 103.799 18.5518C104.417 19.0638 105.02 19.6049 105.579 20.1754C105.932 20.5264 106.27 20.8921 106.608 21.2724C106.932 21.6381 107.27 22.033 107.579 22.4572C107.888 22.8813 108.182 23.2616 108.462 23.6858C108.712 24.0515 108.947 24.4171 109.167 24.8121C109.212 24.8852 109.256 24.9729 109.3 25.0461C109.491 25.3679 109.667 25.7043 109.844 26.0407C109.918 26.2162 110.006 26.3771 110.094 26.5526C110.52 27.4302 110.888 28.3225 111.197 29.2439C111.271 29.4487 111.344 29.6535 111.403 29.8729C111.491 30.1362 111.565 30.4287 111.638 30.692C111.741 31.0577 111.829 31.4233 111.903 31.8182C111.947 32.0084 111.991 32.2132 112.021 32.4033C112.197 33.2663 112.315 34.1439 112.388 35.0215C112.432 35.431 112.462 35.8406 112.477 36.2794C112.521 36.8059 112.535 37.3179 112.535 37.8298C112.535 38.488 112.506 39.1462 112.447 39.7898C112.418 40.1555 112.388 40.5358 112.344 40.916C112.271 41.6474 112.153 42.3933 111.991 43.1101C111.962 43.2709 111.932 43.4026 111.903 43.5489C111.888 43.622 111.874 43.6951 111.859 43.7536C111.785 44.0754 111.697 44.4118 111.609 44.719C111.373 45.6112 111.079 46.4888 110.756 47.3518C110.638 47.659 110.52 47.9661 110.373 48.2587C110.285 48.5073 110.182 48.7413 110.065 48.9607C110.006 49.0924 109.947 49.2386 109.873 49.3703C109.756 49.6189 109.638 49.853 109.506 50.1016C108.314 52.3834 106.829 54.5043 105.064 56.3911C104.858 56.6251 104.638 56.8445 104.417 57.0639C103.814 57.7075 103.152 58.3218 102.461 58.8776C101.946 59.3457 101.387 59.7845 100.814 60.194C100.667 60.3257 100.505 60.4427 100.329 60.5451C100.034 60.8376 99.7403 61.0424 99.4315 61.2325ZM125.433 75.3473C125.095 76.1518 124.757 76.9562 124.433 77.7315C124.257 78.1556 124.08 78.5798 123.918 79.004C123.624 79.7646 123.33 80.5105 123.036 81.2272C122.845 81.7099 122.668 82.1926 122.492 82.646C122.227 83.3189 121.977 83.9917 121.727 84.6353C121.595 85.0009 121.462 85.352 121.345 85.7176C120.271 88.6722 119.418 91.2612 118.948 93.3089C118.903 93.4698 118.874 93.6161 118.845 93.7769C118.771 94.0841 118.712 94.362 118.668 94.6399C118.624 94.9178 118.58 95.1665 118.55 95.4151C118.521 95.5468 118.506 95.6638 118.506 95.7954C118.492 95.8247 118.492 95.8539 118.492 95.8832C118.477 96.1172 118.462 96.3366 118.462 96.5414C118.462 98.5745 118.05 99.8031 115.859 99.8031C109.432 99.8031 100.534 98.1942 100.534 93.2796C100.534 93.1626 100.535 93.031 100.549 92.914C100.549 92.797 100.564 92.6799 100.579 92.5629C100.593 92.3874 100.623 92.1973 100.652 91.9925C100.682 91.7877 100.711 91.5829 100.755 91.3635C100.799 91.1441 100.843 90.9247 100.902 90.6907C100.961 90.4567 101.005 90.208 101.079 89.9447C101.123 89.7546 101.182 89.5498 101.24 89.3304C101.387 88.7892 101.549 88.1895 101.74 87.5899C101.814 87.3558 101.888 87.1072 101.976 86.8585C102.461 85.2935 103.079 83.5675 103.785 81.6953C103.917 81.3296 104.064 80.964 104.197 80.569C104.697 79.2526 105.241 77.8777 105.814 76.4589C106.05 75.8885 106.285 75.3034 106.52 74.7184C106.564 74.5867 106.623 74.4405 106.682 74.3088C107.211 72.9924 107.785 71.6614 108.344 70.2718C108.697 69.3942 109.065 68.5166 109.462 67.6244L121.257 39.468C121.477 38.9122 121.698 38.371 121.904 37.8152C121.933 37.7859 121.948 37.7567 121.948 37.7128C122.212 37.0546 122.463 36.3818 122.713 35.7382C122.977 35.0654 123.227 34.3925 123.463 33.7343C123.58 33.4272 123.698 33.12 123.801 32.8129C123.948 32.4179 124.08 32.0376 124.213 31.6573C125.095 29.1562 125.83 26.9183 126.316 25.0315C126.419 24.6365 126.507 24.2709 126.595 23.8906V23.8613C126.683 23.4956 126.757 23.1592 126.816 22.8082C126.845 22.618 126.875 22.4425 126.904 22.267C126.992 21.7258 127.051 21.1846 127.051 20.6288C127.051 19.2685 128.286 18.3178 130.875 18.3178C136.625 18.3178 144.288 24.4464 144.288 28.2493C144.288 28.3517 144.288 28.4687 144.273 28.5711C144.258 28.7028 144.243 28.8198 144.229 28.9368C144.214 29.0684 144.199 29.2001 144.17 29.3463C144.14 29.4926 144.111 29.6827 144.067 29.8729C144.067 29.9021 144.067 29.946 144.052 29.9753C144.008 30.1508 143.964 30.3409 143.92 30.5311C143.905 30.575 143.89 30.6335 143.876 30.6774C143.802 30.9991 143.699 31.3356 143.596 31.7159C142.905 34.0708 141.729 37.2155 140.258 40.8575C140.023 41.428 139.773 42.0277 139.537 42.6127C138.905 44.1632 138.214 45.7721 137.508 47.4396C137.272 47.9954 137.022 48.5658 136.787 49.1216C136.302 50.2625 135.787 51.418 135.287 52.6028C135.022 53.1879 134.772 53.7875 134.522 54.3726C134.243 54.9723 133.993 55.572 133.728 56.1717C133.346 57.0201 132.978 57.883 132.61 58.7314C132.596 58.7314 132.596 58.746 132.596 58.7606C130.125 64.3334 127.625 70.0524 125.433 75.3473ZM181.231 99.8031C180.687 99.8031 180.158 99.7885 179.658 99.7446C169.731 99.0864 165.716 92.1826 164.804 92.1826C163.157 92.1826 156.185 99.8031 143.729 99.8031C136.802 99.8031 132.449 95.2542 132.375 87.7507V87.5606C132.375 79.6183 136.022 71.3688 142.082 64.6844C149.464 56.5081 160.465 50.6867 172.745 50.6867C180.364 50.6867 186.599 53.5389 190.055 56.4057C191.953 57.9708 192.997 59.5212 192.997 60.6182C192.997 63.2071 182.32 75.318 182.32 92.051C182.32 96.1318 183.276 96.5414 183.276 98.1796C183.29 99.1303 182.599 99.8031 181.231 99.8031ZM248.707 124.098C248.442 124.098 248.177 124.083 247.927 124.083C227.058 123.615 213.366 102.173 221.572 83.0556C221.617 82.9678 221.646 82.8801 221.69 82.7777C221.999 82.061 222.322 81.3442 222.646 80.6568C226.132 73.2557 230.176 67.405 230.176 64.3041C230.176 63.0755 229.499 62.1248 227.985 62.1248C225.94 62.1248 221.411 65.1232 217.425 71.2664C212.631 78.7553 206.998 90.6176 206.998 96.4829C206.998 98.516 206.601 99.7446 204.395 99.7446C203.939 99.7446 203.483 99.73 202.968 99.7154C202.468 99.7008 201.939 99.6715 201.409 99.6276C201.1 99.613 200.806 99.5837 200.512 99.5545C200.086 99.5106 199.659 99.4667 199.218 99.4082C198.777 99.3497 198.335 99.2766 197.894 99.2035C197.453 99.1303 197.027 99.0426 196.585 98.9548C196.203 98.867 195.821 98.7793 195.453 98.6769C195.041 98.5745 194.659 98.4575 194.276 98.3259C194.232 98.3112 194.173 98.2966 194.129 98.282C193.791 98.165 193.453 98.0333 193.115 97.8871C192.791 97.7554 192.482 97.6091 192.173 97.4482C191.659 97.185 191.173 96.8778 190.732 96.5121C190.556 96.3805 190.408 96.2342 190.261 96.0733C190.085 95.8978 189.938 95.7223 189.805 95.5322C189.717 95.4151 189.629 95.2835 189.555 95.1519C189.467 95.0348 189.394 94.9032 189.35 94.7569C189.305 94.6838 189.276 94.596 189.247 94.5083C189.173 94.3328 189.129 94.1426 189.1 93.9525C189.085 93.9232 189.07 93.8793 189.085 93.8355C189.041 93.6453 189.026 93.4405 189.026 93.2504C189.026 92.9871 189.041 92.7238 189.055 92.4459C189.055 92.3289 189.07 92.1826 189.085 92.051C189.114 91.6414 189.173 91.2173 189.247 90.7785C189.305 90.3836 189.379 90.0179 189.467 89.6083C189.555 89.1988 189.644 88.7746 189.747 88.3651C189.805 88.131 189.864 87.8824 189.938 87.6484C190.217 86.5952 190.57 85.4982 190.967 84.3574C191.041 84.1672 191.1 83.9771 191.173 83.7723C192.32 80.5398 193.791 77.0294 195.262 73.4751C195.453 73.007 195.644 72.539 195.835 72.0709C196.453 70.579 197.071 69.0871 197.644 67.6098C197.982 66.8053 198.277 65.9862 198.571 65.1964C199.247 63.3388 199.865 61.5543 200.336 59.8284C200.483 59.3018 200.615 58.7899 200.733 58.2926C200.997 57.2687 201.189 56.2448 201.321 55.1917C201.35 55.0308 201.365 54.8699 201.38 54.7237C201.409 54.4896 201.424 54.2556 201.439 54.0362C201.453 53.8168 201.468 53.5974 201.468 53.3926C201.483 53.261 201.483 53.1293 201.483 52.9977V52.9099C201.483 51.5497 202.718 50.5989 205.321 50.5989C217.513 50.5989 218.057 60.5451 218.616 60.5451C219.175 60.5451 228.352 50.5989 240.691 50.5989C241.397 50.5989 242.103 50.6428 242.794 50.7306C242.956 50.7452 243.103 50.7598 243.25 50.7891C243.603 50.833 243.956 50.9061 244.309 50.9938C244.559 51.0377 244.809 51.1109 245.045 51.184C245.059 51.184 245.074 51.1986 245.089 51.1986C245.192 51.2279 245.295 51.2718 245.398 51.301C245.912 51.4765 246.412 51.6959 246.883 51.9446C246.986 52.0031 247.074 52.047 247.162 52.1055C247.192 52.1055 247.207 52.1201 247.221 52.1347C247.339 52.1932 247.442 52.2664 247.545 52.3395L247.56 52.3541C247.765 52.4858 247.957 52.632 248.133 52.7783C248.324 52.9392 248.515 53.1001 248.692 53.2756C248.854 53.4219 249.016 53.5974 249.148 53.7583C249.221 53.8314 249.28 53.9046 249.339 53.9923C249.442 54.124 249.545 54.2702 249.648 54.4165C249.707 54.5043 249.766 54.592 249.824 54.6798C249.898 54.7968 249.971 54.9284 250.03 55.0601C250.177 55.3087 250.295 55.572 250.398 55.8353C250.486 56.0401 250.56 56.2595 250.619 56.4789C250.648 56.5812 250.692 56.669 250.707 56.7714C250.78 57.0054 250.824 57.2541 250.869 57.4881C250.927 57.7368 250.957 57.9854 250.972 58.2194C251.001 58.3657 251.016 58.512 251.016 58.6582C251.045 58.9508 251.06 59.2433 251.06 59.5358C251.06 61.9492 250.295 64.5674 249.163 67.3465L249.089 67.5074C247.251 71.9832 244.486 76.8831 242.441 82.0756C241.927 83.4066 241.456 84.7523 241.059 86.1126C240.677 87.3997 240.485 88.7454 240.485 90.091V90.1203C240.485 98.0918 245.912 105.054 253.678 107.043C263.075 109.442 272.65 103.825 275.061 94.479C275.253 94.0256 275.459 93.7038 275.738 93.5722C275.753 93.5575 275.782 93.5575 275.811 93.5429C276.812 93.1041 277.988 93.5575 278.429 94.5522C278.797 95.3274 279.018 96.556 278.959 97.9163C278.959 98.8232 278.915 99.7154 278.841 100.593C278.738 101.749 278.503 102.889 278.15 104.001V104.016C274.385 115.629 262.619 124.098 248.707 124.098ZM337.507 89.74C330.168 111.782 323.094 144.356 298.092 144.356C281.106 144.356 272.679 130.563 272.679 126.102V126.029C272.694 124.932 273.605 124.054 274.723 124.069C276.62 124.069 278.253 127.184 286.548 127.184C306.667 127.184 314.417 105.829 318.491 93.7916C318.491 93.382 318.623 93.1188 318.623 92.8408C318.609 92.6946 318.491 92.5776 318.344 92.5776C316.844 92.5776 310.196 100.417 297.548 100.417C291.165 100.417 286.68 97.4482 286.68 90.8223C286.68 80.9493 298.916 64.7283 298.916 53.9192C298.916 52.5735 300.269 51.6228 302.725 51.6228C309.52 51.6228 316.182 57.5759 316.182 63.1048C316.182 70.813 308.167 78.6529 308.167 85.4105C308.167 87.034 309.123 87.8385 310.608 87.8385C312.373 87.8385 317.535 85.8054 320.123 81.7538C327.197 70.6668 328.962 62.0224 328.962 53.9046C328.962 52.5589 329.918 51.6082 331.551 51.6082C341.478 51.6082 347.316 57.1517 347.316 61.4812C347.302 64.1871 341.86 76.6198 337.507 89.74ZM171.672 59.8137C163.333 59.8137 152.244 75.4643 152.244 84.3135C152.244 85.6738 153.053 86.7561 154.7 86.7561C161.951 86.7561 173.319 64.5674 173.319 61.5836C173.319 60.3549 172.76 59.8137 171.672 59.8137ZM171.672 59.8137C163.333 59.8137 152.244 75.4643 152.244 84.3135C152.244 85.6738 153.053 86.7561 154.7 86.7561C161.951 86.7561 173.319 64.5674 173.319 61.5836C173.319 60.3549 172.76 59.8137 171.672 59.8137ZM171.672 59.8137C163.333 59.8137 152.244 75.4643 152.244 84.3135C152.244 85.6738 153.053 86.7561 154.7 86.7561C161.951 86.7561 173.319 64.5674 173.319 61.5836C173.319 60.3549 172.76 59.8137 171.672 59.8137ZM171.672 59.8137C163.333 59.8137 152.244 75.4643 152.244 84.3135C152.244 85.6738 153.053 86.7561 154.7 86.7561C161.951 86.7561 173.319 64.5674 173.319 61.5836C173.319 60.3549 172.76 59.8137 171.672 59.8137ZM171.672 59.8137C163.333 59.8137 152.244 75.4643 152.244 84.3135C152.244 85.6738 153.053 86.7561 154.7 86.7561C161.951 86.7561 173.319 64.5674 173.319 61.5836C173.319 60.3549 172.76 59.8137 171.672 59.8137Z" fill="black"/>
</svg>
