<svg width="2205" height="202" viewBox="0 0 2205 202" fill="none" xmlns="http://www.w3.org/2000/svg">
<path fill-rule="evenodd" clip-rule="evenodd" d="M0.121094 0C20.293 33.0247 58.5323 54.7266 101.834 53.4506C108.104 126.02 194.649 164.737 257.615 124.701C296.223 179.315 362.993 190.563 416.276 170.079C452.355 156.209 478.127 129.258 490.072 97.3605C513.588 125.071 553.349 137.947 591.716 126.957C613.414 184.562 692.519 198.101 734.462 152.594C778.298 188.942 835.065 184.273 873.624 156.636C884.735 148.672 893.789 139.171 900.709 128.698C912.937 156.833 936.679 180.371 969.137 192.849C1020.13 212.454 1084.04 201.688 1120.99 149.419C1172.77 182.343 1241.21 159.621 1263.26 108.513C1268.89 111.732 1274.88 114.58 1281.2 117.009C1322.08 132.726 1371.26 128.924 1408.19 99.8685C1416.06 130.067 1438.55 156.187 1471.6 168.893C1515.2 185.657 1569.84 176.452 1601.44 131.758C1642.12 157.626 1694.84 143.32 1717.75 106.923C1765.3 142.25 1835.55 145.049 1889.81 103.081C1912.72 207.532 2060.09 217.931 2105.01 117.264C2162.37 127.389 2210.73 47.7755 2203.62 0H0.121094Z" fill="white"/>
</svg>
