<svg width="1920" height="496" viewBox="0 0 1920 496" fill="none" xmlns="http://www.w3.org/2000/svg">
<g filter="url(#filter0_d)">
<path fill-rule="evenodd" clip-rule="evenodd" d="M802.493 327.216C773.189 332.688 748.27 323.458 730.828 306.832C710.832 326.249 680.295 334.829 649.1 319.897C583.644 368.606 489.252 335.226 469.182 255.97C439.083 280.124 402.93 281.497 373.525 268.254C379.098 320.841 335.106 376.041 271.089 364.086C210.849 440.24 92.0602 430.944 44.5772 346.017C-18.0542 431.425 -155 387.49 -155 280.962C-155 218.438 -103.298 168.851 -40.8088 170.789C-34.6809 96.147 49.9059 56.3244 111.447 97.5039C149.182 41.3309 214.44 29.7609 266.518 50.8304C301.779 65.0955 326.967 92.8134 338.642 125.62C361.626 97.1173 400.488 83.8722 437.987 95.177C459.194 35.9267 536.509 22.0008 577.503 68.8079C620.347 31.4218 675.83 36.2236 713.516 64.6503C724.377 72.8423 733.227 82.6156 739.99 93.3889C751.942 64.4515 775.146 40.2418 806.868 27.4083C856.71 7.24336 919.167 18.3166 955.282 72.0781C1005.89 38.2154 1072.78 61.584 1094.33 114.148C1099.84 110.836 1105.69 107.907 1111.87 105.408C1151.82 89.2427 1199.89 93.153 1235.99 123.039C1243.68 91.979 1265.66 65.1135 1297.96 52.0448C1340.58 34.8023 1393.98 44.2707 1424.86 90.2407C1464.63 63.6337 1516.15 78.3485 1538.54 115.784C1585.01 79.4476 1653.68 76.5677 1706.71 119.735C1729.1 12.301 1873.13 1.60501 1917.04 105.147C1942.81 165.916 1915.71 234.273 1857.45 256.755C1882.58 331.693 1821.21 403.382 1747.65 387.353C1736.1 456.664 1680.86 493.355 1624.29 493.183C1562.27 492.995 1510 448.227 1495.54 387.698C1456.62 440.652 1369.88 450.099 1324.28 387.923C1278.84 469.203 1165.15 478.1 1107.49 405.216C1051.11 415.746 1010.95 371.838 1009.07 325.541C958.588 392.037 856.215 395.129 802.493 327.216Z" fill="white"/>
</g>
<defs>
<filter id="filter0_d" x="-165" y="0" width="2101.8" height="495.184" filterUnits="userSpaceOnUse" color-interpolation-filters="sRGB">
<feFlood flood-opacity="0" result="BackgroundImageFix"/>
<feColorMatrix in="SourceAlpha" type="matrix" values="0 0 0 0 0 0 0 0 0 0 0 0 0 0 0 0 0 0 127 0"/>
<feOffset dy="-8"/>
<feGaussianBlur stdDeviation="5"/>
<feColorMatrix type="matrix" values="0 0 0 0 0.219608 0 0 0 0 0.219608 0 0 0 0 0.219608 0 0 0 0.2 0"/>
<feBlend mode="normal" in2="BackgroundImageFix" result="effect1_dropShadow"/>
<feBlend mode="normal" in="SourceGraphic" in2="effect1_dropShadow" result="shape"/>
</filter>
</defs>
</svg>
