<svg width="355" height="88" viewBox="0 0 355 88" fill="none" xmlns="http://www.w3.org/2000/svg">
<g filter="url(#filter0_d)">
<rect x="6" y="2" width="343" height="76" rx="38" fill="#614BDA" stroke="white" stroke-width="4"/>
<path d="M65.9896 40.32C65.9896 39.18 65.7996 38.2 65.4196 37.38C65.0396 36.54 64.5096 35.89 63.8296 35.43C63.1696 34.97 62.4396 34.64 61.6396 34.44C60.8596 34.24 59.9996 34.14 59.0596 34.14H56.5096V46.56H58.9396C60.9996 46.56 62.6896 46.07 64.0096 45.09C65.3296 44.11 65.9896 42.52 65.9896 40.32ZM59.4196 51H54.4396C52.4796 51 51.4996 50.02 51.4996 48.06V32.7C51.4996 30.74 52.4796 29.76 54.4396 29.76H59.1796C60.4396 29.76 61.6296 29.87 62.7496 30.09C63.8896 30.29 64.9896 30.65 66.0496 31.17C67.1096 31.69 68.0196 32.34 68.7796 33.12C69.5596 33.9 70.1796 34.91 70.6396 36.15C71.0996 37.37 71.3296 38.76 71.3296 40.32C71.3296 42.12 70.9896 43.72 70.3096 45.12C69.6296 46.52 68.7096 47.64 67.5496 48.48C66.4096 49.32 65.1496 49.95 63.7696 50.37C62.3896 50.79 60.9396 51 59.4196 51ZM96.872 40.29C96.872 43.63 95.782 46.35 93.602 48.45C91.422 50.53 88.652 51.57 85.292 51.57C81.952 51.57 79.192 50.53 77.012 48.45C74.832 46.35 73.742 43.63 73.742 40.29C73.742 36.93 74.822 34.24 76.982 32.22C79.162 30.2 81.932 29.19 85.292 29.19C88.672 29.19 91.442 30.2 93.602 32.22C95.782 34.24 96.872 36.93 96.872 40.29ZM91.382 40.29C91.382 38.41 90.812 36.86 89.672 35.64C88.532 34.42 87.072 33.81 85.292 33.81C83.512 33.81 82.052 34.42 80.912 35.64C79.792 36.86 79.232 38.41 79.232 40.29C79.232 42.21 79.792 43.79 80.912 45.03C82.052 46.27 83.512 46.89 85.292 46.89C87.072 46.89 88.532 46.27 89.672 45.03C90.812 43.79 91.382 42.21 91.382 40.29ZM128.36 33.09L123.62 48.48C123.04 50.36 121.95 51.3 120.35 51.3C118.73 51.3 117.64 50.36 117.08 48.48L113.48 36.63H113.39L109.79 48.48C109.23 50.36 108.14 51.3 106.52 51.3C104.9 51.3 103.8 50.36 103.22 48.48L98.5396 33.24C98.4196 32.84 98.3596 32.44 98.3596 32.04C98.3596 31.3 98.6096 30.69 99.1096 30.21C99.6096 29.71 100.22 29.46 100.94 29.46C102.3 29.46 103.19 30.28 103.61 31.92L106.79 43.89H106.88L110.06 32.76C110.44 31.42 110.92 30.54 111.5 30.12C112.1 29.68 112.76 29.46 113.48 29.46C113.8 29.46 114.09 29.5 114.35 29.58C114.63 29.64 114.93 29.77 115.25 29.97C115.57 30.17 115.87 30.51 116.15 30.99C116.45 31.45 116.7 32.04 116.9 32.76L120.11 43.89H120.2L123.47 31.8C123.89 30.24 124.75 29.46 126.05 29.46C126.73 29.46 127.31 29.68 127.79 30.12C128.29 30.56 128.54 31.16 128.54 31.92C128.54 32.24 128.48 32.63 128.36 33.09ZM144.031 49.29L135.961 37.59H135.871L135.961 48.54C135.961 49.26 135.801 49.85 135.481 50.31C135.181 50.75 134.861 51.02 134.521 51.12C134.181 51.24 133.831 51.3 133.471 51.3C132.871 51.3 132.311 51.1 131.791 50.7C131.271 50.3 131.011 49.58 131.011 48.54V32.97C131.011 32.27 131.121 31.67 131.341 31.17C131.561 30.67 131.841 30.31 132.181 30.09C132.541 29.85 132.871 29.69 133.171 29.61C133.491 29.51 133.791 29.46 134.071 29.46C135.311 29.46 136.391 30.13 137.311 31.47L145.381 43.14H145.471L145.381 32.22C145.381 31.5 145.531 30.92 145.831 30.48C146.151 30.02 146.471 29.74 146.791 29.64C147.131 29.52 147.481 29.46 147.841 29.46C148.441 29.46 149.001 29.66 149.521 30.06C150.061 30.46 150.331 31.18 150.331 32.22V47.79C150.331 48.49 150.221 49.09 150.001 49.59C149.781 50.09 149.491 50.46 149.131 50.7C148.791 50.92 148.461 51.07 148.141 51.15C147.841 51.25 147.551 51.3 147.271 51.3C146.031 51.3 144.951 50.63 144.031 49.29ZM165.872 51H157.652C155.692 51 154.712 50.02 154.712 48.06V32.34C154.712 31.26 154.982 30.51 155.522 30.09C156.082 29.67 156.672 29.46 157.292 29.46C157.912 29.46 158.492 29.67 159.032 30.09C159.592 30.51 159.872 31.26 159.872 32.34V46.53H165.872C166.812 46.53 167.462 46.77 167.822 47.25C168.202 47.73 168.392 48.23 168.392 48.75C168.392 49.29 168.202 49.8 167.822 50.28C167.462 50.76 166.812 51 165.872 51ZM191.735 40.29C191.735 43.63 190.645 46.35 188.465 48.45C186.285 50.53 183.515 51.57 180.155 51.57C176.815 51.57 174.055 50.53 171.875 48.45C169.695 46.35 168.605 43.63 168.605 40.29C168.605 36.93 169.685 34.24 171.845 32.22C174.025 30.2 176.795 29.19 180.155 29.19C183.535 29.19 186.305 30.2 188.465 32.22C190.645 34.24 191.735 36.93 191.735 40.29ZM186.245 40.29C186.245 38.41 185.675 36.86 184.535 35.64C183.395 34.42 181.935 33.81 180.155 33.81C178.375 33.81 176.915 34.42 175.775 35.64C174.655 36.86 174.095 38.41 174.095 40.29C174.095 42.21 174.655 43.79 175.775 45.03C176.915 46.27 178.375 46.89 180.155 46.89C181.935 46.89 183.395 46.27 184.535 45.03C185.675 43.79 186.245 42.21 186.245 40.29ZM208.866 49.35L207.846 46.83H198.696L197.646 49.38C197.106 50.66 196.266 51.3 195.126 51.3C194.426 51.3 193.836 51.08 193.356 50.64C192.876 50.2 192.636 49.6 192.636 48.84C192.636 48.4 192.746 47.92 192.966 47.4L199.986 31.98C200.746 30.3 201.876 29.46 203.376 29.46C204.876 29.46 205.996 30.3 206.736 31.98L213.696 47.34C213.896 47.82 213.996 48.28 213.996 48.72C213.996 49.5 213.746 50.13 213.246 50.61C212.746 51.07 212.146 51.3 211.446 51.3C210.246 51.3 209.386 50.65 208.866 49.35ZM203.286 35.67L200.376 42.72H206.166L203.286 35.67ZM230.931 40.32C230.931 39.18 230.741 38.2 230.361 37.38C229.981 36.54 229.451 35.89 228.771 35.43C228.111 34.97 227.381 34.64 226.581 34.44C225.801 34.24 224.941 34.14 224.001 34.14H221.451V46.56H223.881C225.941 46.56 227.631 46.07 228.951 45.09C230.271 44.11 230.931 42.52 230.931 40.32ZM224.361 51H219.381C217.421 51 216.441 50.02 216.441 48.06V32.7C216.441 30.74 217.421 29.76 219.381 29.76H224.121C225.381 29.76 226.571 29.87 227.691 30.09C228.831 30.29 229.931 30.65 230.991 31.17C232.051 31.69 232.961 32.34 233.721 33.12C234.501 33.9 235.121 34.91 235.581 36.15C236.041 37.37 236.271 38.76 236.271 40.32C236.271 42.12 235.931 43.72 235.251 45.12C234.571 46.52 233.651 47.64 232.491 48.48C231.351 49.32 230.091 49.95 228.711 50.37C227.331 50.79 225.881 51 224.361 51ZM260.926 49.35L259.906 46.83H250.756L249.706 49.38C249.166 50.66 248.326 51.3 247.186 51.3C246.486 51.3 245.896 51.08 245.416 50.64C244.936 50.2 244.696 49.6 244.696 48.84C244.696 48.4 244.806 47.92 245.026 47.4L252.046 31.98C252.806 30.3 253.936 29.46 255.436 29.46C256.936 29.46 258.056 30.3 258.796 31.98L265.756 47.34C265.956 47.82 266.056 48.28 266.056 48.72C266.056 49.5 265.806 50.13 265.306 50.61C264.806 51.07 264.206 51.3 263.506 51.3C262.306 51.3 261.446 50.65 260.926 49.35ZM255.346 35.67L252.436 42.72H258.226L255.346 35.67ZM279.482 36.33C279.482 34.71 278.282 33.9 275.882 33.9H273.632V38.91H275.792C278.252 38.91 279.482 38.05 279.482 36.33ZM268.502 48.42V32.7C268.502 30.74 269.482 29.76 271.442 29.76H276.302C278.822 29.76 280.832 30.28 282.332 31.32C283.852 32.34 284.612 34 284.612 36.3C284.612 37.86 284.202 39.16 283.382 40.2C282.582 41.24 281.572 41.97 280.352 42.39C279.152 42.79 277.762 42.99 276.182 42.99H273.632V48.42C273.632 49.5 273.352 50.25 272.792 50.67C272.252 51.09 271.682 51.3 271.082 51.3C270.462 51.3 269.872 51.09 269.312 50.67C268.772 50.25 268.502 49.5 268.502 48.42ZM298.671 36.33C298.671 34.71 297.471 33.9 295.071 33.9H292.821V38.91H294.981C297.441 38.91 298.671 38.05 298.671 36.33ZM287.691 48.42V32.7C287.691 30.74 288.671 29.76 290.631 29.76H295.491C298.011 29.76 300.021 30.28 301.521 31.32C303.041 32.34 303.801 34 303.801 36.3C303.801 37.86 303.391 39.16 302.571 40.2C301.771 41.24 300.761 41.97 299.541 42.39C298.341 42.79 296.951 42.99 295.371 42.99H292.821V48.42C292.821 49.5 292.541 50.25 291.981 50.67C291.441 51.09 290.871 51.3 290.271 51.3C289.651 51.3 289.061 51.09 288.501 50.67C287.961 50.25 287.691 49.5 287.691 48.42Z" fill="white"/>
</g>
<defs>
<filter id="filter0_d" x="0" y="0" width="355" height="88" filterUnits="userSpaceOnUse" color-interpolation-filters="sRGB">
<feFlood flood-opacity="0" result="BackgroundImageFix"/>
<feColorMatrix in="SourceAlpha" type="matrix" values="0 0 0 0 0 0 0 0 0 0 0 0 0 0 0 0 0 0 127 0"/>
<feOffset dy="4"/>
<feGaussianBlur stdDeviation="2"/>
<feColorMatrix type="matrix" values="0 0 0 0 0 0 0 0 0 0 0 0 0 0 0 0 0 0 0.25 0"/>
<feBlend mode="normal" in2="BackgroundImageFix" result="effect1_dropShadow"/>
<feBlend mode="normal" in="SourceGraphic" in2="effect1_dropShadow" result="shape"/>
</filter>
</defs>
</svg>
