<svg width="190" height="83" viewBox="0 0 190 83" fill="none" xmlns="http://www.w3.org/2000/svg">
<path d="M90.5189 31.5106C86.1116 31.5106 80.2506 39.7826 80.2506 44.4597C80.2506 45.1787 80.6781 45.7507 81.5487 45.7507C85.3809 45.7507 91.3895 34.0231 91.3895 32.4461C91.3895 31.7967 91.0942 31.5106 90.5189 31.5106ZM90.5189 31.5106C86.1116 31.5106 80.2506 39.7826 80.2506 44.4597C80.2506 45.1787 80.6781 45.7507 81.5487 45.7507C85.3809 45.7507 91.3895 34.0231 91.3895 32.4461C91.3895 31.7967 91.0942 31.5106 90.5189 31.5106ZM90.5189 31.5106C86.1116 31.5106 80.2506 39.7826 80.2506 44.4597C80.2506 45.1787 80.6781 45.7507 81.5487 45.7507C85.3809 45.7507 91.3895 34.0231 91.3895 32.4461C91.3895 31.7967 91.0942 31.5106 90.5189 31.5106ZM90.5189 31.5106C86.1116 31.5106 80.2506 39.7826 80.2506 44.4597C80.2506 45.1787 80.6781 45.7507 81.5487 45.7507C85.3809 45.7507 91.3895 34.0231 91.3895 32.4461C91.3895 31.7967 91.0942 31.5106 90.5189 31.5106ZM90.5189 31.5106C86.1116 31.5106 80.2506 39.7826 80.2506 44.4597C80.2506 45.1787 80.6781 45.7507 81.5487 45.7507C85.3809 45.7507 91.3895 34.0231 91.3895 32.4461C91.3895 31.7967 91.0942 31.5106 90.5189 31.5106ZM90.5189 31.5106C86.1116 31.5106 80.2506 39.7826 80.2506 44.4597C80.2506 45.1787 80.6781 45.7507 81.5487 45.7507C85.3809 45.7507 91.3895 34.0231 91.3895 32.4461C91.3895 31.7967 91.0942 31.5106 90.5189 31.5106ZM188.616 28.2096C187.855 26.9881 186.821 25.9058 185.546 24.9936C183.012 23.1846 179.794 22.226 176.234 22.226C174.485 22.226 172.852 22.8444 171.624 23.9654C170.925 24.5993 170.373 25.3724 170.015 26.246C169.875 26.1068 169.735 25.9677 169.595 25.8363C167.473 23.8494 164.799 22.5971 162.032 22.2956C161.605 22.2414 161.177 22.2182 160.75 22.2182C159.832 22.2105 158.923 22.3419 158.052 22.6203C158.076 22.3806 158.091 22.1409 158.091 21.8936C158.091 20.2701 157.539 18.6698 156.443 17.1391C155.65 16.0568 154.71 15.0982 153.637 14.2942C152.564 13.4747 151.391 12.7944 150.147 12.2765C148.647 11.658 147.162 11.3488 145.724 11.3488C144.061 11.3488 142.599 11.7276 141.387 12.4852C139.544 13.6294 138.441 15.5621 138.402 17.6648C138.378 17.8504 138.238 18.5539 137.554 20.417C137.197 21.3911 136.769 22.4888 136.295 23.6639C136.109 23.7412 135.938 23.8185 135.798 23.8881C135.362 24.0891 134.95 24.3365 134.562 24.6225L134.515 24.5839C134.329 24.4293 134.134 24.2901 133.948 24.1587C133.808 24.0582 133.668 23.9654 133.512 23.8726C133.404 23.8031 133.295 23.7412 133.186 23.6794L133.131 23.6484C133.108 23.633 133.077 23.6175 133.054 23.6098C132.525 23.316 131.973 23.0764 131.398 22.8908L131.359 22.8754L131.274 22.8444C131.173 22.8135 131.079 22.7826 130.978 22.7517C130.792 22.6976 130.566 22.6357 130.31 22.5816C129.999 22.5043 129.688 22.4502 129.393 22.4038C129.206 22.3729 129.051 22.3574 128.934 22.3419C128.367 22.2724 127.791 22.2414 127.216 22.2414C123.081 22.2414 119.536 23.6948 116.917 25.241C115.261 23.7567 112.556 22.2414 108.397 22.2414C106.687 22.2414 105.202 22.6434 103.974 23.432C103.189 23.9345 102.528 24.6071 102.031 25.3956C100.865 24.6612 99.6213 24.0582 98.3232 23.5866C95.999 22.7439 93.5427 22.311 91.0708 22.311C87.1298 22.311 83.2899 23.1846 79.652 24.9163C79.1312 25.1637 78.6104 25.4343 78.0974 25.7203C78.1596 25.5657 78.2296 25.4111 78.2917 25.2564L78.3073 25.2178C78.3695 25.0477 78.4472 24.8699 78.5249 24.6844C78.5716 24.5684 78.626 24.4524 78.6726 24.3365C78.6804 24.321 78.6804 24.3056 78.6882 24.2901C79.6132 21.9863 80.235 20.2933 80.6237 18.9559C80.6315 18.9327 80.6392 18.9095 80.6392 18.8863C80.647 18.8399 80.6626 18.8012 80.6703 18.7626C80.7092 18.6389 80.7481 18.4997 80.7869 18.3374C80.8103 18.2601 80.8336 18.1751 80.8491 18.0977C80.8569 18.0746 80.8569 18.0591 80.8647 18.0359L80.8802 17.9818C80.888 17.9509 80.8957 17.9277 80.8957 17.9045C80.9424 17.7189 80.989 17.5334 81.0123 17.3479C81.0279 17.2706 81.0357 17.2087 81.0512 17.1546C81.0823 16.9845 81.1056 16.8376 81.1212 16.7217C81.1445 16.5593 81.16 16.4279 81.1678 16.3197C81.1911 16.0877 81.2067 15.8481 81.1989 15.6162C81.1989 12.0059 78.385 9.31559 76.706 8.04001C75.6333 7.22054 74.4596 6.54024 73.2159 6.01454C71.7001 5.38835 70.2076 5.06366 68.7696 5.06366C64.3855 5.06366 61.9059 7.78489 61.5017 10.7071C61.4162 10.568 61.3229 10.4288 61.2218 10.2819C61.0042 9.96497 60.7943 9.6712 60.5767 9.39289C60.3124 9.04501 60.0403 8.72805 59.7916 8.44974C59.5428 8.1637 59.3019 7.90858 59.0531 7.66893C58.6489 7.26693 58.237 6.89585 57.825 6.54797C57.6229 6.37016 57.4441 6.23101 57.3197 6.13824L57.3119 6.13051C57.1565 6.01454 56.9544 5.84447 56.7134 5.67439C56.317 5.38062 55.8972 5.09458 55.4697 4.824C55.2754 4.70031 55.1044 4.60754 54.9334 4.50704C54.7623 4.40654 54.5525 4.27512 54.3037 4.15143L54.1949 4.08958C54.1327 4.05093 54.0628 4.02 53.985 3.97362C53.7518 3.8422 53.5264 3.72623 53.301 3.618C52.959 3.4402 52.6092 3.27785 52.2438 3.12323C51.8396 2.9377 51.4432 2.77535 51.0545 2.62846L51.0001 2.60527C50.8835 2.55889 50.7436 2.50477 50.5648 2.44293C50.4327 2.38881 50.2461 2.32696 50.0363 2.24966C49.8342 2.17235 49.6165 2.10277 49.3833 2.03319C48.7925 1.83992 48.2795 1.68531 47.7976 1.56162C47.5722 1.49977 47.3701 1.43792 47.168 1.39154C46.9114 1.32196 46.6549 1.26012 46.3829 1.206C45.9942 1.11323 45.59 1.02046 45.1858 0.943155C44.6961 0.842655 44.2219 0.757616 43.7322 0.680308C43.4291 0.633924 43.0948 0.572077 42.7295 0.533424L42.5274 0.49477L42.4185 0.479308C42.1698 0.440654 41.9522 0.417462 41.7811 0.39427C41.4469 0.347885 41.136 0.316962 40.8095 0.286039C40.0166 0.201 39.3637 0.146885 38.7418 0.115962C38.5086 0.1005 38.2521 0.0850385 37.9956 0.0773078C37.8868 0.069577 37.7391 0.0618462 37.5759 0.0541154C36.7675 0.0154616 35.9279 0 35.0029 0C30.3079 0 25.955 0.340154 22.0606 1.01273C17.9486 1.71623 14.3341 2.79854 11.3103 4.221C7.88234 5.829 5.17728 7.89312 3.27285 10.367C1.12746 13.1114 -0.0229719 16.4975 0.000347652 19.9686C0.000347652 24.5529 2.17684 28.7121 6.14115 31.6962C8.34096 33.3506 10.9994 34.5411 13.5023 35.0359C12.3986 38.105 11.4191 40.9963 10.6807 43.3619C9.15714 48.2091 8.95504 49.848 8.95504 50.884C8.95504 53.1491 10.02 55.2132 11.9555 56.6975C13.036 57.5247 14.3652 58.1664 16.0053 58.6457C19.0058 59.527 22.1306 59.6275 23.3354 59.6275C24.3926 59.6352 25.4342 59.4033 26.3825 58.9472C27.3775 58.4601 28.2403 57.7334 28.8699 56.8212C29.655 55.7002 29.997 54.5174 30.2458 53.4119C30.2535 53.381 30.2613 53.3501 30.2691 53.3192C31.2718 48.4333 32.6865 43.617 34.3111 38.9167C36.7752 40.3701 39.7601 41.1664 42.7839 41.1664C43.4912 41.1664 44.1908 41.1355 44.8749 41.0736C44.9293 41.0659 44.9915 41.0659 45.0459 41.0581H45.0847C45.178 41.0504 45.3102 41.035 45.4656 41.0118C45.7532 40.9808 46.0331 40.9422 46.3285 40.8958C46.8881 40.8108 47.4556 40.7025 48.0308 40.5634L48.0696 40.5556C48.2096 40.5247 48.3961 40.4783 48.6138 40.4165H48.6293C48.7381 40.3856 48.8781 40.3469 49.0491 40.3005C49.2201 40.2542 49.36 40.2078 49.461 40.1768L49.5077 40.1614C49.7797 40.0763 50.044 39.9913 50.2928 39.8985C50.0673 40.4706 49.8497 41.0272 49.6321 41.5916C49.6087 41.638 49.5932 41.6998 49.5776 41.7462C49.5621 41.7926 49.531 41.8699 49.4999 41.9549C49.4688 42.04 49.4299 42.1327 49.3911 42.241C48.9869 43.3001 48.6449 44.2896 48.365 45.1632C48.3106 45.3101 48.2717 45.4415 48.2407 45.542C48.2329 45.5652 48.2251 45.5884 48.2173 45.6038C48.0852 46.0136 47.9841 46.4001 47.8831 46.748V46.7557L47.8675 46.8253C47.8442 46.9026 47.8131 47.0109 47.782 47.1345C47.7276 47.3278 47.681 47.5211 47.6421 47.7144C47.6033 47.8844 47.5722 48.0313 47.5488 48.1473V48.1627V48.1782C47.5022 48.4256 47.4711 48.6343 47.4478 48.7735L47.44 48.8353C47.4245 48.9435 47.4011 49.0904 47.3856 49.276C47.3701 49.3842 47.3545 49.5388 47.3467 49.7321C47.3312 49.964 47.3312 50.1418 47.3312 50.2423C47.3312 52.3451 48.2251 54.3164 49.8575 55.7853C50.868 56.6975 52.1661 57.4165 53.713 57.9422C56.3869 58.8467 59.2863 58.9781 60.771 58.9781C61.7193 58.9858 62.6677 58.808 63.546 58.4447C64.6654 57.9731 65.6215 57.1923 66.2977 56.195C66.5387 55.8394 66.7408 55.4606 66.904 55.0663C67.0595 55.2596 67.2227 55.4374 67.3937 55.6229C68.4587 56.7439 69.7568 57.6175 71.1948 58.1818C72.6095 58.7307 74.1175 59.0013 75.6333 58.9936C78.4394 58.9936 81.2145 58.4369 83.8029 57.3469C84.658 56.9835 85.4975 56.5738 86.3059 56.1177C88.117 57.3933 90.7599 58.6998 94.3433 58.9472C94.7242 58.9781 95.1362 58.9936 95.587 58.9936C97.1883 58.9936 98.6419 58.4911 99.7923 57.5324C99.8001 57.5402 99.8079 57.5402 99.8157 57.5402C100.103 57.6639 100.399 57.7798 100.71 57.8881L100.725 57.8958C100.795 57.919 100.857 57.9422 100.912 57.9576C101.199 58.0581 101.471 58.1354 101.767 58.2127C102.062 58.2978 102.326 58.3596 102.552 58.406L102.661 58.4292C102.909 58.4756 103.174 58.5297 103.469 58.5838C103.834 58.6534 104.161 58.6998 104.425 58.7307C104.728 58.7694 105 58.8003 105.241 58.8235H105.296C105.467 58.8389 105.684 58.8621 105.933 58.8776C106.298 58.9085 106.633 58.924 106.967 58.9317C107.239 58.9394 107.55 58.9472 107.884 58.9472C108.84 58.9549 109.781 58.7694 110.667 58.406C111.009 58.2591 111.335 58.0891 111.639 57.8881C113.294 62.6038 116.59 66.5774 120.928 69.1054C122.412 69.9635 123.998 70.6284 125.646 71.0999C127.364 71.587 129.136 71.8498 130.924 71.8885C131.103 71.8962 131.289 71.8962 131.468 71.8962C133.8 71.8962 136.116 71.5483 138.347 70.8526C138.86 70.6902 139.373 70.5124 139.871 70.3191C140.135 71.0845 140.469 71.8344 140.866 72.5456C141.806 74.2309 143.003 75.7616 144.418 77.0836C146.113 78.6916 148.079 79.9826 150.232 80.9103C152.782 81.9926 155.526 82.5492 158.301 82.5338C162.203 82.5338 165.771 81.4437 168.919 79.2791C171.531 77.4856 173.793 75.0194 175.829 71.7493C179.195 66.3301 181.302 59.6429 183.16 53.7444C183.618 52.291 184.046 50.9226 184.481 49.6316V49.6239C185.453 46.7016 186.518 43.8644 187.458 41.3519C189.347 36.3269 190 34.5025 190 32.8094C189.984 31.2246 189.51 29.6398 188.616 28.2096ZM133.093 44.4752C133.629 43.3387 134.126 42.1791 134.593 41.0118C134.624 40.9267 134.655 40.8494 134.694 40.7644C135.199 39.5043 135.666 38.3524 136.046 37.4556C136.334 36.7753 136.598 36.1259 136.832 35.5384C136.832 35.5229 136.839 35.5152 136.847 35.5075C137.29 34.3633 137.243 34.1546 137.236 33.7062C137.236 33.6443 137.189 33.598 137.127 33.598C136.373 33.598 135.059 33.5516 135.059 32.6625C135.059 31.7967 136.295 28.9904 137.236 28.1168C137.414 27.9545 137.609 27.8231 137.826 27.7303C137.904 27.6916 137.982 27.653 138.06 27.6298H138.067C138.122 27.6066 138.176 27.5911 138.231 27.5757C138.705 27.4365 139.21 27.4056 139.77 27.4056C139.816 27.4056 139.855 27.3824 139.871 27.336C139.879 27.3206 139.886 27.3051 139.886 27.2974C141.752 22.7285 143.4 18.7471 143.4 16.9536C143.4 16.3042 144.053 15.8017 145.421 15.8017C148.468 15.8017 152.456 18.9713 152.456 21.0586C152.456 22.0482 151.398 24.236 150.194 27.251C150.17 27.3051 150.194 27.3747 150.248 27.3979C150.264 27.4056 150.279 27.4056 150.295 27.4056C150.427 27.4056 150.551 27.4056 150.676 27.3979C150.847 27.3979 151.002 27.3979 151.165 27.3901C151.251 27.3901 151.328 27.3901 151.406 27.3824H151.414C151.523 27.3824 151.624 27.3824 151.725 27.3747C152.005 27.3592 152.253 27.3438 152.471 27.336C153.357 27.2587 153.793 27.1659 154.197 27.135C154.243 27.1273 154.29 27.1273 154.337 27.1273H154.352C154.399 27.1196 154.446 27.1196 154.484 27.1196C154.99 27.1196 155.207 27.4133 155.207 27.9081C155.207 28.3178 155.168 28.7276 155.083 29.1296C155.052 29.261 155.021 29.3924 154.982 29.5316C154.943 29.6707 154.896 29.8021 154.85 29.9336C154.803 30.065 154.741 30.1887 154.679 30.3201C154.624 30.4361 154.562 30.552 154.5 30.6603C154.453 30.7376 154.407 30.8149 154.352 30.8922C154.313 30.954 154.274 31.0081 154.228 31.07C154.142 31.1937 154.049 31.3174 153.948 31.4333C153.847 31.557 153.73 31.6653 153.622 31.7735C153.497 31.8895 153.373 32.0054 153.233 32.1059C153.124 32.191 153.007 32.276 152.883 32.361C152.852 32.3842 152.821 32.3997 152.782 32.4229C152.658 32.5079 152.518 32.5852 152.378 32.6625C152.355 32.678 152.331 32.6857 152.308 32.7012C152.168 32.7708 152.02 32.8403 151.865 32.9022C151.686 32.9795 151.499 33.0491 151.297 33.1186C151.297 33.1264 151.29 33.1264 151.282 33.1264C151.189 33.1573 151.103 33.1805 151.01 33.2037C150.901 33.2346 150.792 33.2655 150.676 33.2965C150.559 33.3274 150.458 33.3506 150.349 33.3738C150.24 33.397 150.124 33.4201 150.007 33.4433C149.649 33.5052 149.292 33.5593 148.934 33.5825C148.74 33.6057 148.538 33.6211 148.328 33.6289H148.289C148.103 33.6443 147.893 33.6443 147.691 33.6443C147.66 33.6443 147.636 33.6598 147.613 33.683C147.566 33.7912 147.512 33.8995 147.465 34.0077C147.185 34.603 146.882 35.2601 146.587 35.9481C146.455 36.2419 146.323 36.5434 146.19 36.8526C146.066 37.1386 145.934 37.4401 145.81 37.7416C145.405 38.6693 145.001 39.6125 144.612 40.5556C144.55 40.7103 144.488 40.8572 144.426 41.0118C144.371 41.1355 144.325 41.2514 144.278 41.3751C143.524 43.2073 142.312 46.7093 141.558 49.0363C141.558 49.044 141.55 49.0595 141.542 49.0672C141.511 49.1136 141.488 49.16 141.464 49.2141C141.464 49.2218 141.457 49.2219 141.457 49.2296C140.819 51.6725 138.378 53.2032 135.883 52.7239C135.572 52.662 135.269 52.577 134.981 52.4533C134.702 52.3374 134.43 52.1982 134.173 52.0281C132.844 51.1623 132.028 49.7012 131.997 48.1241V48.0158C131.997 47.6448 132.051 47.2814 132.152 46.9258C132.261 46.5547 132.385 46.1837 132.533 45.8203C132.673 45.3874 132.883 44.9235 133.093 44.4752ZM52.3371 32.2605C52.2672 32.2992 52.1972 32.3456 52.135 32.392C51.9018 32.5388 51.6686 32.678 51.4199 32.8094C51.3344 32.8635 51.2411 32.9099 51.1556 32.9563C50.9224 33.0877 50.6892 33.2037 50.4405 33.3119C50.2772 33.397 50.1062 33.4743 49.9352 33.5438C49.7253 33.6366 49.4999 33.7216 49.2823 33.8067C49.2201 33.8376 49.1579 33.8608 49.0957 33.8763C48.8236 33.9845 48.5516 34.0773 48.264 34.1623C48.1396 34.201 48.023 34.2396 47.8986 34.2705C47.7743 34.3015 47.6577 34.3401 47.5411 34.371C47.4089 34.4097 47.269 34.4406 47.1369 34.4715C46.7249 34.572 46.2896 34.6571 45.8621 34.7189C45.6289 34.7576 45.3879 34.7885 45.1469 34.8117C45.0148 34.8349 44.8904 34.8426 44.766 34.8581C44.2375 34.9045 43.7011 34.9276 43.157 34.9276C38.3065 34.9354 34.762 32.0595 34.762 30.1887C34.762 29.7635 35.1195 29.4001 35.4849 29.4001C35.9979 29.4001 37.0006 30.1191 38.6641 30.1191C43.6623 30.1191 48.9402 24.9395 48.9402 17.2396C48.9402 11.8513 45.1703 9.62482 41.991 9.62482C40.9805 9.62482 40.2576 10.6994 39.2393 13.0727C34.2567 24.3674 28.3957 37.4556 25.5741 51.1932C25.2865 52.4842 24.9911 53.2805 23.8329 53.2805C20.436 53.2805 14.7927 52.4147 14.7927 49.8249C14.7927 46.5238 23.8329 21.6307 28.1703 13.7917C29.9815 10.5602 31.7227 9.69439 31.9403 9.54751C24.9911 10.4829 15.8809 14.3715 15.8809 22.0636C15.8809 26.5939 17.6921 27.5989 17.6921 28.3951C17.6921 28.8203 17.3267 29.1141 16.5339 29.1141C13.067 29.1141 5.90019 25.7358 5.90019 19.1182C5.90019 9.47793 17.9875 4.51477 35.4149 4.51477C36.2156 4.51477 37.0162 4.53023 37.8013 4.56889C37.8868 4.56889 37.9801 4.57662 38.0656 4.58435C38.3143 4.59208 38.5708 4.60754 38.8273 4.623C39.4337 4.65393 40.0322 4.70804 40.6307 4.76989C40.9261 4.80081 41.2293 4.83174 41.5246 4.87039C41.6645 4.88585 41.8122 4.90131 41.9677 4.9245C42.1154 4.9477 42.2553 4.96316 42.403 4.98635C42.6751 5.01727 42.9627 5.06366 43.2425 5.11004C43.67 5.17962 44.0976 5.25693 44.5173 5.34197C44.8749 5.41154 45.2402 5.48885 45.59 5.57389C45.7843 5.61254 45.9787 5.65893 46.173 5.71304C46.3673 5.76716 46.5616 5.81354 46.756 5.86766C47.2146 5.98362 47.6732 6.12277 48.1163 6.26966C48.2951 6.32377 48.4816 6.38562 48.6604 6.4552C48.8003 6.49385 48.9325 6.54797 49.0724 6.60208C49.2123 6.6562 49.3444 6.70258 49.4844 6.7567C49.7953 6.87266 50.114 7.00408 50.4171 7.14324C50.7203 7.28239 51.0312 7.41381 51.3266 7.56843C51.4665 7.63028 51.5987 7.69212 51.723 7.76943C51.8707 7.84674 52.0184 7.93178 52.1661 8.00908C52.2749 8.0632 52.3838 8.12505 52.4848 8.19462C52.6325 8.27966 52.7802 8.3647 52.9356 8.45747C53.2543 8.65847 53.5808 8.87493 53.884 9.10685C54.0472 9.22282 54.2027 9.34651 54.3504 9.46247C54.4514 9.53978 54.5525 9.61709 54.6457 9.70212C54.9722 9.9727 55.2909 10.2587 55.5863 10.5602C55.7729 10.7458 55.9516 10.939 56.1304 11.14C56.3014 11.3333 56.4802 11.542 56.6435 11.7662C56.8067 11.9904 56.9622 12.1914 57.1098 12.4156C57.242 12.6089 57.3664 12.8022 57.483 13.0109C57.5063 13.0496 57.5296 13.0959 57.5529 13.1346C57.654 13.3047 57.7472 13.4825 57.8405 13.6603C57.8794 13.7531 57.926 13.8381 57.9727 13.9309C58.1981 14.3947 58.3924 14.8663 58.5557 15.3533C58.5945 15.4616 58.6334 15.5698 58.6645 15.6857C58.7111 15.8249 58.75 15.9795 58.7888 16.1187C58.8433 16.3119 58.8899 16.5052 58.9288 16.7139C58.9521 16.8144 58.9754 16.9227 58.991 17.0232C59.0842 17.4793 59.1464 17.9431 59.1853 18.407C59.2086 18.6234 59.2241 18.8399 59.2319 19.0718C59.2552 19.3501 59.263 19.6207 59.263 19.8913C59.263 20.2392 59.2475 20.5871 59.2164 20.9272C59.2008 21.1205 59.1853 21.3215 59.162 21.5225C59.1231 21.909 59.0609 22.3033 58.9754 22.6821C58.9599 22.7671 58.9443 22.8367 58.9288 22.914C58.921 22.9527 58.9132 22.9913 58.9054 23.0223C58.8666 23.1923 58.8199 23.3701 58.7733 23.5325C58.6489 24.0041 58.4935 24.4679 58.3225 24.924C58.2603 25.0864 58.1981 25.2487 58.1204 25.4033C58.0737 25.5348 58.0193 25.6584 57.9571 25.7744C57.926 25.844 57.8949 25.9213 57.8561 25.9909C57.7939 26.1223 57.7317 26.246 57.6617 26.3774C57.0321 27.5834 56.247 28.7044 55.3142 29.7016C55.2054 29.8253 55.0888 29.9413 54.9722 30.0573C54.6535 30.3974 54.3037 30.7221 53.9384 31.0159C53.6663 31.2633 53.3709 31.4952 53.0678 31.7116C52.9901 31.7812 52.9046 31.8431 52.8113 31.8972C52.6558 32.0518 52.5003 32.16 52.3371 32.2605ZM66.0801 39.7207C65.9013 40.1459 65.7225 40.5711 65.5515 40.9808C65.4582 41.205 65.3649 41.4292 65.2794 41.6534C65.124 42.0554 64.9685 42.4497 64.8131 42.8285C64.712 43.0836 64.6187 43.3387 64.5254 43.5784C64.3855 43.934 64.2534 44.2896 64.1212 44.6298C64.0513 44.823 63.9813 45.0086 63.9191 45.2018C63.3517 46.7635 62.9009 48.1318 62.6521 49.2141C62.6288 49.2992 62.6132 49.3765 62.5977 49.4615C62.5588 49.6239 62.5277 49.7707 62.5044 49.9176C62.4811 50.0645 62.4578 50.1959 62.4422 50.3274C62.4267 50.3969 62.4189 50.4588 62.4189 50.5284C62.4111 50.5438 62.4111 50.5593 62.4111 50.5747C62.4034 50.6984 62.3956 50.8144 62.3956 50.9226C62.3956 51.9972 62.178 52.6466 61.0197 52.6466C57.6229 52.6466 52.9201 51.7962 52.9201 49.1987C52.9201 49.1368 52.9201 49.0672 52.9279 49.0054C52.9279 48.9435 52.9356 48.8817 52.9434 48.8199C52.9512 48.7271 52.9667 48.6266 52.9823 48.5183C52.9978 48.4101 53.0134 48.3019 53.0367 48.1859C53.06 48.07 53.0833 47.954 53.1144 47.8303C53.1455 47.7066 53.1688 47.5752 53.2077 47.436C53.231 47.3355 53.2621 47.2273 53.2932 47.1114C53.3709 46.8253 53.4565 46.5083 53.5575 46.1914C53.5964 46.0677 53.6352 45.9363 53.6819 45.8048C53.9384 44.9777 54.2649 44.0654 54.638 43.0759C54.7079 42.8826 54.7857 42.6893 54.8556 42.4806C55.1199 41.7848 55.4075 41.0582 55.7107 40.3083C55.835 40.0068 55.9594 39.6975 56.0838 39.3883C56.1071 39.3187 56.1382 39.2414 56.1693 39.1718C56.4491 38.4761 56.7523 37.7726 57.0477 37.0381C57.2342 36.5743 57.4285 36.1105 57.6384 35.6389L63.8725 20.7571C63.9891 20.4634 64.1057 20.1773 64.2145 19.8836C64.2301 19.8681 64.2378 19.8526 64.2378 19.8294C64.3778 19.4816 64.5099 19.1259 64.642 18.7858C64.782 18.4302 64.9141 18.0746 65.0385 17.7267C65.1007 17.5643 65.1628 17.402 65.2173 17.2396C65.295 17.0309 65.3649 16.8299 65.4349 16.6289C65.9013 15.3069 66.29 14.1241 66.5465 13.1269C66.6009 12.9181 66.6475 12.7249 66.6942 12.5239V12.5084C66.7408 12.3151 66.7797 12.1373 66.8108 11.9518C66.8263 11.8513 66.8419 11.7585 66.8574 11.6657C66.904 11.3797 66.9351 11.0937 66.9351 10.7999C66.9351 10.0809 67.5881 9.57843 68.9562 9.57843C71.9955 9.57843 76.0453 12.8176 76.0453 14.8276C76.0453 14.8817 76.0453 14.9436 76.0375 14.9977C76.0297 15.0673 76.022 15.1291 76.0142 15.191C76.0064 15.2606 75.9987 15.3301 75.9831 15.4074C75.9676 15.4847 75.952 15.5852 75.9287 15.6857C75.9287 15.7012 75.9287 15.7244 75.9209 15.7399C75.8976 15.8326 75.8743 15.9331 75.851 16.0336C75.8432 16.0568 75.8354 16.0877 75.8276 16.1109C75.7888 16.281 75.7344 16.4588 75.6799 16.6598C75.3146 17.9045 74.6928 19.5666 73.9154 21.4916C73.7911 21.7931 73.6589 22.11 73.5346 22.4193C73.2003 23.2387 72.835 24.0891 72.4619 24.9704C72.3375 25.2642 72.2053 25.5657 72.081 25.8594C71.8245 26.4624 71.5524 27.0732 71.2881 27.6994C71.1482 28.0086 71.016 28.3256 70.8839 28.6348C70.7362 28.9518 70.6041 29.2687 70.4642 29.5857C70.262 30.0341 70.0677 30.4902 69.8734 30.9386C69.8656 30.9386 69.8656 30.9463 69.8656 30.954C68.5597 33.8995 67.2383 36.9222 66.0801 39.7207ZM95.5715 52.6466C95.2839 52.6466 95.0041 52.6389 94.7398 52.6157C89.4929 52.2678 87.3708 48.6189 86.8889 48.6189C86.0183 48.6189 82.3338 52.6466 75.7499 52.6466C72.0887 52.6466 69.7879 50.2423 69.749 46.2764V46.1759C69.749 41.9781 71.6768 37.618 74.8793 34.085C78.7814 29.7635 84.5958 26.6866 91.0864 26.6866C95.1129 26.6866 98.4087 28.1941 100.235 29.7094C101.238 30.5366 101.79 31.356 101.79 31.9358C101.79 33.3042 96.1467 39.7053 96.1467 48.5493C96.1467 50.7062 96.652 50.9226 96.652 51.7885C96.6597 52.291 96.2944 52.6466 95.5715 52.6466ZM131.235 65.4874C131.095 65.4874 130.955 65.4797 130.823 65.4797C119.793 65.2323 112.556 53.899 116.893 43.7948C116.917 43.7485 116.932 43.7021 116.955 43.648C117.119 43.2692 117.29 42.8903 117.461 42.527C119.303 38.6152 121.441 35.5229 121.441 33.884C121.441 33.2346 121.083 32.7321 120.282 32.7321C119.202 32.7321 116.808 34.3169 114.701 37.5638C112.167 41.522 109.19 47.7917 109.19 50.8917C109.19 51.9663 108.98 52.6157 107.814 52.6157C107.573 52.6157 107.332 52.6079 107.06 52.6002C106.796 52.5925 106.516 52.577 106.236 52.5538C106.073 52.5461 105.918 52.5306 105.762 52.5152C105.537 52.492 105.311 52.4688 105.078 52.4379C104.845 52.4069 104.612 52.3683 104.379 52.3296C104.145 52.291 103.92 52.2446 103.687 52.1982C103.485 52.1518 103.282 52.1054 103.088 52.0513C102.871 51.9972 102.668 51.9354 102.466 51.8658C102.443 51.858 102.412 51.8503 102.389 51.8426C102.21 51.7807 102.031 51.7112 101.852 51.6339C101.681 51.5643 101.518 51.487 101.355 51.4019C101.083 51.2628 100.826 51.1004 100.593 50.9072C100.5 50.8376 100.422 50.7603 100.344 50.6752C100.251 50.5825 100.173 50.4897 100.103 50.3892C100.057 50.3274 100.01 50.2578 99.9711 50.1882C99.9245 50.1264 99.8856 50.0568 99.8623 49.9795C99.839 49.9408 99.8234 49.8944 99.8079 49.848C99.769 49.7553 99.7457 49.6548 99.7301 49.5543C99.7224 49.5388 99.7146 49.5156 99.7224 49.4924C99.6991 49.3919 99.6913 49.2837 99.6913 49.1832C99.6913 49.044 99.6991 48.9049 99.7068 48.758C99.7068 48.6962 99.7146 48.6189 99.7224 48.5493C99.7379 48.3328 99.769 48.1086 99.8079 47.8767C99.839 47.668 99.8778 47.4747 99.9245 47.2582C99.9711 47.0418 100.018 46.8176 100.072 46.6011C100.103 46.4774 100.134 46.346 100.173 46.2223C100.321 45.6657 100.507 45.0859 100.717 44.4829C100.756 44.3824 100.787 44.2819 100.826 44.1737C101.432 42.4652 102.21 40.6098 102.987 38.7312C103.088 38.4838 103.189 38.2364 103.29 37.989C103.617 37.2005 103.943 36.412 104.246 35.6311C104.425 35.206 104.581 34.773 104.736 34.3556C105.094 33.3738 105.42 32.4306 105.669 31.5184C105.747 31.2401 105.817 30.9695 105.879 30.7066C106.019 30.1655 106.12 29.6243 106.19 29.0677C106.205 28.9827 106.213 28.8976 106.221 28.8203C106.236 28.6966 106.244 28.5729 106.252 28.457C106.26 28.341 106.267 28.2251 106.267 28.1168C106.275 28.0473 106.275 27.9777 106.275 27.9081V27.8617C106.275 27.1428 106.928 26.6403 108.304 26.6403C114.748 26.6403 115.036 31.8972 115.331 31.8972C115.626 31.8972 120.477 26.6403 126.998 26.6403C127.372 26.6403 127.745 26.6634 128.11 26.7098C128.196 26.7176 128.273 26.7253 128.351 26.7408C128.538 26.7639 128.724 26.8026 128.911 26.849C129.043 26.8722 129.175 26.9108 129.299 26.9495C129.307 26.9495 129.315 26.9572 129.323 26.9572C129.377 26.9727 129.431 26.9959 129.486 27.0113C129.758 27.1041 130.022 27.2201 130.271 27.3515C130.325 27.3824 130.372 27.4056 130.419 27.4365C130.434 27.4365 130.442 27.4443 130.45 27.452C130.512 27.4829 130.566 27.5216 130.621 27.5602L130.629 27.5679C130.737 27.6375 130.838 27.7148 130.932 27.7921C131.033 27.8772 131.134 27.9622 131.227 28.055C131.313 28.1323 131.398 28.2251 131.468 28.3101C131.507 28.3488 131.538 28.3874 131.569 28.4338C131.623 28.5034 131.678 28.5807 131.732 28.658C131.763 28.7044 131.794 28.7508 131.826 28.7971C131.864 28.859 131.903 28.9286 131.934 28.9981C132.012 29.1296 132.074 29.2687 132.129 29.4079C132.175 29.5161 132.214 29.6321 132.245 29.748C132.261 29.8021 132.284 29.8485 132.292 29.9026C132.331 30.0263 132.354 30.1578 132.377 30.2815C132.409 30.4129 132.424 30.5443 132.432 30.668C132.447 30.7453 132.455 30.8226 132.455 30.8999C132.471 31.0545 132.479 31.2091 132.479 31.3638C132.479 32.6393 132.074 34.0231 131.476 35.492L131.437 35.577C130.465 37.9426 129.004 40.5325 127.923 43.2769C127.651 43.9804 127.403 44.6916 127.193 45.4106C126.991 46.0909 126.89 46.8021 126.89 47.5133V47.5288C126.89 51.7421 129.758 55.4219 133.862 56.4733C138.829 57.7412 143.89 54.7725 145.164 49.8326C145.265 49.5929 145.374 49.4229 145.522 49.3533C145.53 49.3455 145.545 49.3455 145.561 49.3378C146.089 49.1059 146.711 49.3455 146.944 49.8712C147.139 50.281 147.255 50.9304 147.224 51.6493C147.224 52.1286 147.201 52.6002 147.162 53.064C147.108 53.6748 146.983 54.2778 146.797 54.8653V54.873C144.807 61.0113 138.588 65.4874 131.235 65.4874ZM178.169 47.3278C174.29 58.9781 170.552 76.1945 157.337 76.1945C148.359 76.1945 143.905 68.9044 143.905 66.5465V66.5079C143.913 65.9281 144.395 65.4642 144.986 65.4719C145.988 65.4719 146.851 67.1186 151.235 67.1186C161.869 67.1186 165.965 55.8317 168.119 49.4692C168.119 49.2528 168.188 49.1136 168.188 48.9667C168.181 48.8894 168.119 48.8276 168.041 48.8276C167.248 48.8276 163.734 52.9713 157.05 52.9713C153.676 52.9713 151.305 51.4019 151.305 47.8999C151.305 42.6816 157.772 34.1082 157.772 28.3951C157.772 27.6839 158.488 27.1814 159.786 27.1814C163.377 27.1814 166.898 30.3278 166.898 33.2501C166.898 37.3242 162.662 41.4679 162.662 45.0395C162.662 45.8976 163.167 46.3228 163.952 46.3228C164.885 46.3228 167.613 45.2482 168.981 43.1068C172.72 37.2469 173.653 32.678 173.653 28.3874C173.653 27.6762 174.158 27.1737 175.021 27.1737C180.268 27.1737 183.354 30.1036 183.354 32.392C183.346 33.8221 180.47 40.3933 178.169 47.3278ZM90.5189 31.5106C86.1116 31.5106 80.2506 39.7826 80.2506 44.4597C80.2506 45.1787 80.6781 45.7507 81.5487 45.7507C85.3809 45.7507 91.3895 34.0231 91.3895 32.4461C91.3895 31.7967 91.0942 31.5106 90.5189 31.5106ZM90.5189 31.5106C86.1116 31.5106 80.2506 39.7826 80.2506 44.4597C80.2506 45.1787 80.6781 45.7507 81.5487 45.7507C85.3809 45.7507 91.3895 34.0231 91.3895 32.4461C91.3895 31.7967 91.0942 31.5106 90.5189 31.5106ZM90.5189 31.5106C86.1116 31.5106 80.2506 39.7826 80.2506 44.4597C80.2506 45.1787 80.6781 45.7507 81.5487 45.7507C85.3809 45.7507 91.3895 34.0231 91.3895 32.4461C91.3895 31.7967 91.0942 31.5106 90.5189 31.5106ZM90.5189 31.5106C86.1116 31.5106 80.2506 39.7826 80.2506 44.4597C80.2506 45.1787 80.6781 45.7507 81.5487 45.7507C85.3809 45.7507 91.3895 34.0231 91.3895 32.4461C91.3895 31.7967 91.0942 31.5106 90.5189 31.5106ZM90.5189 31.5106C86.1116 31.5106 80.2506 39.7826 80.2506 44.4597C80.2506 45.1787 80.6781 45.7507 81.5487 45.7507C85.3809 45.7507 91.3895 34.0231 91.3895 32.4461C91.3895 31.7967 91.0942 31.5106 90.5189 31.5106Z" fill="white"/>
</svg>
