<svg xmlns="http://www.w3.org/2000/svg" xmlns:xlink="http://www.w3.org/1999/xlink" viewBox="0 0 2444 1067.3"><defs><style>.cls-1{fill:#fff;}.cls-2{fill:#00775f;}.cls-3{fill:url(#Sfumatura_senza_nome_3);}.cls-4{fill:url(#Sfumatura_senza_nome_26);}.cls-5{fill:url(#Sfumatura_senza_nome_3-2);}.cls-6{fill:url(#Sfumatura_senza_nome_3-3);}.cls-7{fill:url(#Sfumatura_senza_nome_3-4);}.cls-8{fill:url(#Sfumatura_senza_nome_3-5);}</style><linearGradient id="Sfumatura_senza_nome_3" x1="2104.9" y1="351.55" x2="2104.9" y2="985.56" gradientUnits="userSpaceOnUse"><stop offset="0.1" stop-color="#edee00"/><stop offset="0.19" stop-color="#e7ed03"/><stop offset="0.3" stop-color="#d7e90d"/><stop offset="0.44" stop-color="#bce31d"/><stop offset="0.58" stop-color="#97da33"/><stop offset="0.73" stop-color="#67cf50"/><stop offset="0.89" stop-color="#2ec272"/><stop offset="1" stop-color="#00b78d"/></linearGradient><linearGradient id="Sfumatura_senza_nome_26" x1="1846.97" y1="204.42" x2="1846.97" y2="683.45" gradientUnits="userSpaceOnUse"><stop offset="0.1" stop-color="#edee00"/><stop offset="0.25" stop-color="#e8ed02"/><stop offset="0.43" stop-color="#dbea08"/><stop offset="0.62" stop-color="#c4e513"/><stop offset="0.81" stop-color="#a5de21"/><stop offset="1" stop-color="#7ed633"/></linearGradient><linearGradient id="Sfumatura_senza_nome_3-2" x1="1588.48" y1="344.24" x2="1588.48" y2="847.09" xlink:href="#Sfumatura_senza_nome_3"/><linearGradient id="Sfumatura_senza_nome_3-3" x1="1103.41" y1="345.2" x2="1103.41" y2="681.04" xlink:href="#Sfumatura_senza_nome_3"/><linearGradient id="Sfumatura_senza_nome_3-4" x1="829.39" y1="123.72" x2="829.39" y2="681.04" xlink:href="#Sfumatura_senza_nome_3"/><linearGradient id="Sfumatura_senza_nome_3-5" x1="419.08" y1="58.63" x2="419.08" y2="689.5" xlink:href="#Sfumatura_senza_nome_3"/></defs><g id="Livello_2" data-name="Livello 2"><g id="Sfondo"><path class="cls-1" d="M2444,424.05c0,21.92-8.4,45.51-32.68,110.51-12.12,32.44-25.86,69.22-38.33,107a.36.36,0,0,0,0,.07c-5.56,16.78-11.11,34.5-17,53.25-23.89,76.31-51,162.8-94.29,232.9-26.16,42.33-55.23,74.2-88.86,97.42-40.49,28-86.45,42.13-136.6,42.13a260.78,260.78,0,0,1-103.8-21,253.82,253.82,0,0,1-74.78-49.46A244.21,244.21,0,0,1,1812,938.13a179,179,0,0,1-12.77-28.76q-9.65,3.81-19.6,6.94a295.18,295.18,0,0,1-88.45,13.46c-2.33,0-4.67,0-7-.08a271,271,0,0,1-67.87-10.19,265.71,265.71,0,0,1-60.69-25.78,272.17,272.17,0,0,1-119.53-145.07,82.21,82.21,0,0,1-12.54,6.69,90.91,90.91,0,0,1-35.77,7c-4.24,0-8.23-.13-11.76-.24-4.26-.12-8.62-.36-13.29-.72-3.23-.2-6.1-.49-8.25-.7l-.29,0-.44,0c-3.12-.33-6.64-.7-10.5-1.23-3.43-.46-7.6-1-12.3-1.94-3.77-.66-7.2-1.35-10.41-2l-1.44-.32c-2.94-.68-6.36-1.49-10.14-2.53s-7.3-2.06-11-3.32c-.71-.21-1.51-.47-2.41-.78l-.23-.08c-3.94-1.37-7.78-2.89-11.45-4.5l-.34-.15c-14.83,12.37-33.54,18.91-54.1,18.91-5.83,0-11.07-.2-16-.61-46.13-3.23-80.11-20.11-103.41-36.61a306.54,306.54,0,0,1-32.17,15.91,269.55,269.55,0,0,1-105.07,21.31,154.52,154.52,0,0,1-57.09-10.47,134.67,134.67,0,0,1-48.9-33.08q-3.26-3.48-6.26-7.15a82.55,82.55,0,0,1-7.81,14.62,80.16,80.16,0,0,1-35.36,29.15,90.87,90.87,0,0,1-35.68,6.93c-19.12,0-56.33-1.74-90.77-13.39-19.94-6.75-36.64-16.14-49.61-27.9-21-19-32.54-44.48-32.54-71.68,0-1.28,0-3.59.21-6.57.12-2.41.33-4.44.5-5.85.24-2.32.52-4.27.72-5.66l.11-.76c.26-1.79.64-4.48,1.28-7.71a1.55,1.55,0,0,0,0-.21l.05-.2c.29-1.47.68-3.37,1.2-5.61.51-2.47,1.1-5,1.77-7.46.39-1.58.76-3,1.06-4l.24-.9,0-.14c1.23-4.55,2.6-9.49,4.28-14.82.09-.27.17-.55.26-.83.4-1.3.93-3,1.59-4.94,3.56-11.36,8-24.08,13.19-37.82.49-1.36.95-2.58,1.37-3.68s.78-2.07,1-2.7.48-1.36.74-2c2.8-7.33,5.57-14.56,8.5-21.94-3.26,1.19-6.61,2.3-10.14,3.39l-.56.17c-1.32.42-3.13,1-5.32,1.59s-4,1.16-5.39,1.52l-.17,0c-2.8.79-5.2,1.35-7,1.78l-.52.12c-7.34,1.79-14.7,3.23-21.89,4.31-3.76.61-7.42,1.1-11.1,1.5-2,.28-3.71.46-4.86.58l-.46.05c-.73.09-1.46.17-2.19.23-8.76.79-17.8,1.18-26.87,1.18-38.91,0-77.33-10.28-109-29.07-20.94,60.82-39.08,123.17-52,186.33-.08.41-.16.82-.26,1.22-3.2,14.34-7.56,29.61-17.7,44.1a83.47,83.47,0,0,1-32,27.5,88.44,88.44,0,0,1-39.22,8.8c-15.52,0-55.79-1.23-94.35-12.65-21.17-6.27-38.22-14.53-52.13-25.24-24.9-19.19-38.61-45.88-38.61-75.18,0-13.48,2.7-34.6,22.25-97.34,9.53-30.57,22.16-68,36.32-107.69-32.22-6.43-66.42-21.78-94.74-43.17-51-38.51-79-92.36-79-151.65A200.54,200.54,0,0,1,42,134.11c24.52-32,59.31-58.73,103.37-79.57,38.87-18.39,85.41-32.35,138.31-41.49C333.84,4.39,389.86,0,450.23,0c11.85,0,22.7.25,33.14.74,2.1.05,3.94.17,5.38.28,3.33.13,6.55.32,9.6.51,7.93.42,16.38,1.12,26.57,2.19,4.15.44,8.23.87,12.5,1.43,2.16.23,5,.54,8.19,1,.46.08.9.13,1.35.19l2.85.4c4.73.58,9,1.3,12.89,1.94,6.28,1,12.41,2.16,18.72,3.44,5.21,1,10.39,2.15,15.41,3.35,3.43.72,6.81,1.54,10.08,2.46,2.53.63,5.15,1.34,8.08,2.18,6.23,1.62,12.77,3.57,20.42,6.1,3,.94,5.79,1.88,8.44,2.85s5.12,1.8,6.79,2.45c2.24.79,4.11,1.53,5.57,2.11l.68.26c4.93,1.86,10.07,4,15.27,6.39,4.69,2,9.16,4.13,13.6,6.4,2.91,1.34,5.84,2.84,8.84,4.56l2.69,1.47,1.39.77c3.17,1.62,5.87,3.23,8.06,4.61s4.4,2.58,6.86,4.14c5.54,3.5,10.92,7.19,16,11,3.06,2.2,5.7,4.3,7.67,5.86l.11.08c1.59,1.23,3.92,3,6.53,5.34,5.31,4.48,10.62,9.36,15.78,14.52l0,0c3.12,3.13,6.22,6.44,9.46,10.11s6.71,7.74,10.12,12.24c2.8,3.62,5.53,7.41,8.34,11.55,1.27,1.88,2.48,3.71,3.61,5.51,5.17-37.84,37.05-73,93.46-73,18.46,0,37.69,4.12,57.16,12.26a204,204,0,0,1,44.88,26.15c21.58,16.54,57.79,51.26,57.79,98a84.27,84.27,0,0,1-.45,9.13c-.12,1.42-.31,3.19-.62,5.25-.18,1.49-.45,3.38-.87,5.55-.11.66-.26,1.51-.45,2.5a65.45,65.45,0,0,1-1.55,7.23c-.07.32-.14.64-.22,1l-.16.65c-.06.28-.12.55-.19.82-.25,1-.53,2.09-.82,3.13-.54,2.06-1,3.88-1.5,5.45-.15.51-.3,1-.44,1.56l-.25.88c-5.08,17.26-13,39.19-24.94,69-.08.19-.16.38-.23.57q-.93,2.25-1.89,4.55c-1,2.43-2,4.74-2.84,6.9l-.21.52c-.81,2-1.64,4-2.47,6q9.87-5.52,20-10.38c46.78-22.39,96.2-33.74,146.89-33.74a270.55,270.55,0,0,1,93.32,16.45,247.43,247.43,0,0,1,47.74,23.43,82.4,82.4,0,0,1,25-25.39c15.78-10.25,34.93-15.44,56.91-15.44,53.46,0,88.29,19.59,109.59,38.8,33.73-20,79.24-38.8,132.49-38.8a176.47,176.47,0,0,1,22.09,1.33c1.5.15,3.5.38,5.85.77a118.51,118.51,0,0,1,11.82,2.28c3.3.7,6.19,1.5,8.62,2.23q1.92.54,3.81,1.2l1.14.39.5.16a128.75,128.75,0,0,1,21.3,9.33l1,.55.68.37q2.16,1.15,4.25,2.48c2,1.19,3.83,2.43,5.6,3.7l0,0c2.46,1.69,4.87,3.51,7.31,5.51l.64.52a93.61,93.61,0,0,1,15.89-9.52c1.83-.89,4-1.89,6.43-2.87,6.1-15.19,11.67-29.41,16.24-42,8.77-24.1,10.55-33.16,10.9-35.57.48-27.24,14.77-52.19,38.43-67,15.6-9.75,34.38-14.69,55.81-14.69,18.42,0,37.54,4.05,56.86,12a200.31,200.31,0,0,1,44.94,26.1c14.33,11,26.81,23.77,36.08,36.86,14.08,19.85,21.22,40.55,21.22,61.53a89.36,89.36,0,0,1-.5,9.39,112.7,112.7,0,0,1,34.71-5.16,126.19,126.19,0,0,1,16.47,1c35.53,3.86,70,20.07,97.26,45.74,1.86,1.76,3.67,3.54,5.44,5.36A81.65,81.65,0,0,1,2207.85,310c15.73-14.49,36.78-22.47,59.28-22.47,45.73,0,87.14,12.36,119.75,35.75,16.44,11.79,29.74,25.78,39.54,41.58C2437.92,383.4,2444,403.88,2444,424.05Z"/></g><g id="Livello_4" data-name="Livello 4"><g id="y"><path class="cls-2" d="M2269.39,363.55c-11.09,0-17.56,6.47-17.56,15.71,0,55.45-12,114.61-60.08,190.39-17.56,27.72-52.68,41.59-64.7,41.59-10.16,0-16.63-5.54-16.63-16.64,0-46.21,54.53-99.82,54.53-152.5,0-37.89-45.29-78.55-91.5-78.55-16.64,0-25.88,6.47-25.88,15.71,0,73.94-83.18,184.85-83.18,252.31,0,45.29,30.5,65.62,73.93,65.62,86,0,131.25-53.6,141.41-53.6a2,2,0,0,1,1.86,1.84c0,1.85-.93,3.7-.93,6.47-27.73,82.26-80.41,228.29-217.2,228.29-56.37,0-67.46-21.26-80.4-21.26a13.61,13.61,0,0,0-13.86,13.86c0,30.51,57.3,124.77,172.83,124.77,170,0,218.11-222.73,268-373.39,29.58-89.64,66.55-174.67,66.55-193.16C2376.6,401.44,2336.85,363.55,2269.39,363.55Z"/></g><g id="t"><path class="cls-2" d="M2014.49,373a75.9,75.9,0,0,1-1.62,15.75c-.4,1.71-.8,3.43-1.31,5.25s-1.11,3.53-1.71,5.25-1.42,3.33-2.22,5.05c-.71,1.51-1.52,3-2.33,4.44-.6,1-1.21,2-1.91,3-.51.8-1,1.51-1.62,2.32a53,53,0,0,1-3.63,4.65,56.94,56.94,0,0,1-4.25,4.43,54.41,54.41,0,0,1-5,4.35q-2.11,1.67-4.55,3.33c-.4.3-.8.5-1.31.81-1.61,1.1-3.43,2.11-5.25,3.13-.3.2-.6.3-.9.5-1.82.91-3.74,1.82-5.66,2.63-2.32,1-4.74,1.91-7.27,2.82a.35.35,0,0,1-.2.1c-1.15.37-2.31.72-3.49,1.06-1.39.4-2.81.78-4.29,1.17s-2.82.7-4.23,1-2.93.6-4.45.9a133.41,133.41,0,0,1-13.83,1.82c-2.53.3-5.05.51-7.77.61h-.5c-2.45.18-5.07.2-7.7.2a1.44,1.44,0,0,0-1,.46c-.64,1.34-1.31,2.75-1.93,4.21-3.63,7.67-7.47,16.15-11.3,25.14-1.72,3.83-3.43,7.67-5.05,11.71-1.62,3.73-3.33,7.57-4.95,11.51-5.18,12-10.41,24.25-15.43,36.35-.81,2-1.63,3.93-2.43,5.89-.65,1.56-1.28,3.11-1.92,4.66-9.67,23.65-25.27,69-35,99.09a1.36,1.36,0,0,1-.2.4,9.74,9.74,0,0,0-1,1.92.68.68,0,0,0-.07.2,61.86,61.86,0,0,1-59.86,46.3,63.1,63.1,0,0,1-11.83-1.13,60.47,60.47,0,0,1-11.62-3.48,61.81,61.81,0,0,1-38.37-56c0-.42,0-.84,0-1.26v-.09a51.34,51.34,0,0,1,2-14.09c1.39-4.82,3-9.58,4.88-14.27,2.35-6,5-12,7.69-17.76q10.31-22.1,19.3-44.75c.43-1.07.85-2.14,1.27-3.19,6.46-16.3,12.55-31.16,17.41-42.76,3.7-8.82,7.13-17.19,10.09-24.84.05-.15.11-.3.17-.45,5.71-14.82,5.13-17.48,5-23.31a1.42,1.42,0,0,0-1.42-1.4c-9.71,0-26.56-.58-26.56-12.11,0-11.21,15.86-47.55,28-58.76a30.28,30.28,0,0,1,7.58-5.05,19.91,19.91,0,0,1,3-1.3l.08,0a16.88,16.88,0,0,1,2.08-.69c6.09-1.83,12.64-2.19,19.84-2.22a1.43,1.43,0,0,0,1.32-.88c.08-.18.15-.36.22-.55,24-59.07,45.15-110.62,45.15-133.75,0-8.38,8.38-14.94,26-14.94,39.18,0,90.46,41,90.46,68,0,12.81-13.58,41.06-29.11,80.13a1.43,1.43,0,0,0,1.33,2c1.68,0,3.3,0,4.87-.1,2.22,0,4.24,0,6.26-.1a30.58,30.58,0,0,0,3.07-.1h.12c1.39,0,2.68,0,4-.11,3.63-.19,6.77-.39,9.6-.5,11.4-1,17-2.22,22.2-2.62a10.75,10.75,0,0,1,1.83-.1l.18,0a11.21,11.21,0,0,1,1.73-.09C2011.66,362.8,2014.49,366.54,2014.49,373Z"/></g><g id="n"><path class="cls-2" d="M1908.83,657.15a13.54,13.54,0,0,0-18.28-6.73c-1.89.89-3.28,3.06-4.6,6.16a119.48,119.48,0,0,1-115.67,89.62,120.88,120.88,0,0,1-22.83-2.18,119.5,119.5,0,0,1-96.59-117.25v-.17a98.26,98.26,0,0,1,3.93-27.21c2.69-9.31,5.9-18.5,9.43-27.57,13.83-35.47,32.63-69,45.16-99.56l.45-1.12c7.69-19,12.89-36.87,12.89-53.41a58,58,0,0,0-.3-6,15.56,15.56,0,0,0-.3-3,39.11,39.11,0,0,0-.71-5.05,37.35,37.35,0,0,0-1.11-4.94,15.46,15.46,0,0,0-.6-2,32.69,32.69,0,0,0-1.52-4.44,49.42,49.42,0,0,0-2.52-5.36c-.47-.88-.94-1.72-1.45-2.56-.37-.6-.76-1.19-1.18-1.78-.71-1-1.41-2-2.12-2.93a18.52,18.52,0,0,0-1.31-1.61,32.54,32.54,0,0,0-3.13-3.33,42.8,42.8,0,0,0-3.84-3.44,39.06,39.06,0,0,0-3.94-2.92l-.09-.1c-.71-.51-1.52-1-2.23-1.42a.73.73,0,0,0-.4-.2c-.6-.4-1.21-.7-1.92-1.11a60.37,60.37,0,0,0-10.09-4.44c-.71-.21-1.41-.51-2.12-.71-.1,0-.21-.1-.3-.1a39.77,39.77,0,0,0-5-1.31,53.35,53.35,0,0,0-7.18-1.42,29.15,29.15,0,0,0-3.12-.4,106.18,106.18,0,0,0-14.33-.91c-83.9,0-146.39,68.05-150.13,68.05s-7.47-68.05-90.36-68.05c-17.76,0-26.14,6.56-26.14,15.86v.6a25.09,25.09,0,0,1-.1,2.73c0,1.4-.11,2.92-.21,4.43s-.2,3.14-.4,4.75c-.1,1-.2,2.12-.41,3.23a174.55,174.55,0,0,1-4,21.2c-.8,3.43-1.71,6.87-2.72,10.5-3.23,11.71-7.37,24-12,36.65-1.92,5.45-4,11-6.26,16.55-3.94,10.1-8.08,20.3-12.32,30.5-1.31,3.23-2.63,6.35-3.93,9.59-10,24.23-20,48.25-27.77,70.36-.5,1.42-.9,2.73-1.41,4-2.73,7.78-5.05,15.35-7,22.51-.5,1.62-.91,3.33-1.31,5-.7,2.83-1.31,5.66-1.92,8.48s-1.1,5.35-1.51,8c-.5,3-.91,5.86-1.12,8.69-.09.9-.19,1.91-.19,2.73-.1,1.82-.21,3.63-.21,5.45a18.37,18.37,0,0,0,.4,4,1.08,1.08,0,0,0,.11.81,16.71,16.71,0,0,0,1,3.84,29.6,29.6,0,0,0,2.12,4.44,19.58,19.58,0,0,0,1.71,2.63,26.32,26.32,0,0,0,3.14,3.73,22.88,22.88,0,0,0,3.22,3,58.47,58.47,0,0,0,9.8,6.36,61.12,61.12,0,0,0,6.36,3c2.22,1,4.54,1.92,6.86,2.73.3.1.71.2,1,.3,2.63.91,5.25,1.72,8,2.43,2.52.7,5.06,1.3,7.68,1.91,2.93.61,5.85,1.21,8.88,1.72s6,1,9,1.41,5.86.7,8.78,1c2,.2,4,.4,6.06.51,3.64.29,7.16.5,10.6.6s6.56.2,9.69.2c14.94,0,17.67-8.38,17.67-22.31,0-40.08,38.26-121.25,70.87-172.43,27.05-42,57.85-62.5,71.78-62.5,10.3,0,14.94,6.57,14.94,14.94,0,21.22-27.5,61.2-51.18,111.84q-3.35,7.11-6.54,14.52c-.26.62-.53,1.23-.79,1.85C1465.82,709.21,1558.9,855.75,1700.83,859c1.77,0,3.56.06,5.35.06,94.64,0,174.64-57.81,200.74-137.22l0-.12a102.9,102.9,0,0,0,4.74-23.3c.52-6,.79-12.13.79-18.29C1912.82,670.84,1911.3,662.44,1908.83,657.15ZM1662.38,425.91h0l-.62-.18ZM1563.7,687.56v-.07c0-.11,0-.21,0-.32C1563.71,687.3,1563.7,687.43,1563.7,687.56Z"/></g><g id="a"><path class="cls-2" d="M1327.47,425.11c0-7.56-7.15-18.14-20-28.82-23.48-19.55-65.9-39.09-117.69-39.09-83.53,0-158.3,39.79-208.48,95.72-41.21,45.65-66,102.07-66,156.38v1.31c.51,51.29,30.13,82.43,77.19,82.43,84.64,0,132.1-52.1,143.28-52.1,6.25,0,33.46,47.16,101,51.7,3.42.3,7,.4,10.68.4,9.27,0,14-4.63,14-11.09,0-11.18-6.55-14-6.55-41.91C1254.92,525.57,1327.47,442.84,1327.47,425.11ZM1067,603.76c-11.18,0-16.72-7.45-16.72-16.72,0-60.46,75.37-167.47,132.1-167.47,7.45,0,11.18,3.73,11.18,12.09C1193.56,452.11,1116.28,603.76,1067,603.76Z"/></g><g id="l"><path class="cls-2" d="M996.26,203.63a17.25,17.25,0,0,1-.1,2.22,20.22,20.22,0,0,1-.3,2.52c-.1.9-.2,1.81-.4,2.82s-.4,2.32-.7,3.63a1.7,1.7,0,0,1-.1.7c-.31,1.21-.61,2.52-.91,3.83a5.46,5.46,0,0,1-.3,1c-.51,2.22-1.22,4.53-1.92,7.06-4.73,16.11-12.7,37.58-22.67,62.47-1.61,3.93-3.33,8-4.94,12-4.33,10.58-9,21.56-13.81,33.05-1.61,3.82-3.31,7.66-4.93,11.48-3.33,7.76-6.75,15.72-10.18,23.78-1.81,4-3.52,8.06-5.23,12.09-1.92,4.13-3.64,8.17-5.35,12.3-2.62,5.84-5.13,11.68-7.65,17.53a.31.31,0,0,0-.1.2C899.94,450.5,882.9,489.6,868,525.77c-2.32,5.54-4.63,11-6.75,16.32-1.2,2.93-2.41,5.85-3.53,8.67-2,5.24-4,10.28-6,15.21-1.32,3.33-2.53,6.55-3.74,9.68-1.81,4.63-3.52,9.17-5.23,13.6-.91,2.52-1.82,4.94-2.63,7.36-7.35,20.15-13.1,37.88-16.32,51.89-.3,1.11-.5,2.12-.71,3.22-.5,2.12-.9,4-1.2,5.95s-.6,3.63-.81,5.34a11.07,11.07,0,0,0-.3,2.62,1.27,1.27,0,0,0-.1.6c-.1,1.62-.2,3.13-.2,4.54,0,13.9-2.83,22.27-17.74,22.27C759,693,698.51,682,698.51,648.4a22.09,22.09,0,0,1,.1-2.52,19.76,19.76,0,0,1,.21-2.42c.1-1.21.3-2.52.5-3.93s.4-2.82.7-4.33.61-3,1-4.64.71-3.32,1.21-5.13c.3-1.31.71-2.72,1.11-4.24,1-3.72,2.11-7.75,3.42-11.89.51-1.61,1-3.32,1.62-5,3.32-10.68,7.45-22.48,12.29-35.27.91-2.52,1.92-5,2.82-7.66,3.42-9,7-18.44,11-28.11,1.61-3.93,3.22-7.86,4.83-11.89.3-.91.71-1.92,1.11-2.82,3.63-9,7.45-18.14,11.29-27.61,2.41-6.05,4.93-12,7.56-18.14l80.2-192.46c1.51-3.83,3-7.55,4.43-11.28a.91.91,0,0,0,.3-.71c1.82-4.53,3.53-9.07,5.24-13.5,1.82-4.63,3.53-9.17,5.15-13.71.8-2.11,1.61-4.23,2.31-6.34,1-2.72,1.92-5.34,2.82-7.86,6-17.13,11-32.45,14.31-45.34.71-2.73,1.31-5.24,1.91-7.77v-.2c.61-2.51,1.11-4.83,1.52-7.15.2-1.31.4-2.52.6-3.73a67.93,67.93,0,0,0,1-11.18c0-9.27,8.36-15.82,26-15.82C944.17,135.72,996.26,177.64,996.26,203.63Z"/></g><g id="P"><path class="cls-2" d="M780.43,269.73c0,4.54-.2,9-.6,13.4-.21,2.53-.4,5.14-.71,7.66a119.93,119.93,0,0,1-2.42,15c-.19,1.1-.4,2-.6,3-.1.5-.2,1-.3,1.41-.51,2.22-1.11,4.53-1.72,6.65a178.27,178.27,0,0,1-5.84,18c-.81,2.11-1.61,4.23-2.62,6.24a49.63,49.63,0,0,1-2.11,4.84c-.41.91-.81,1.92-1.32,2.82-.8,1.72-1.61,3.33-2.51,5a191.83,191.83,0,0,1-30.23,43c-1.41,1.61-2.92,3.12-4.44,4.63a127.91,127.91,0,0,1-13.3,12.39,115.83,115.83,0,0,1-11.18,9,19.85,19.85,0,0,1-3.33,2.42c-1.91,1.41-3.93,2.82-6.05,4.13a24.57,24.57,0,0,0-2.62,1.71c-3,1.92-6,3.73-9.16,5.45-1.11.7-2.32,1.31-3.43,1.91-3,1.71-6,3.22-9.17,4.63-2.11,1.12-4.33,2.12-6.54,3-2.73,1.21-5.55,2.32-8.37,3.43a11.67,11.67,0,0,1-2.42.9c-3.52,1.41-7.05,2.62-10.68,3.73-1.61.5-3.13,1-4.73,1.41s-3.13.91-4.64,1.31c-1.72.5-3.53.91-5.24,1.31-5.34,1.31-10.88,2.42-16.42,3.23-3,.5-6.05.9-9.17,1.2-1.72.3-3.33.41-4.94.61-6.76.6-13.71.91-20.66.91C510.59,464.21,465,427,465,402.74c0-5.54,4.64-10.18,9.27-10.18,6.55,0,19.55,9.27,40.92,9.27,64.28,0,132.2-67,132.2-166.56,0-69.73-48.47-98.55-89.38-98.55-13,0-22.27,13.91-35.37,44.65C458.5,327.47,383.13,496.75,346.85,674.5c-3.73,16.72-7.46,27-22.37,27-43.73,0-116.28-11.18-116.28-44.74,0-42.72,116.28-364.66,172.1-466.13,23.28-41.81,45.65-53,48.47-54.91-89.38,12.09-206.56,62.37-206.56,161.92,0,58.65,23.27,71.65,23.27,81.92,0,5.54-4.73,9.27-14.91,9.27-44.64,0-136.84-43.73-136.84-129.28,0-124.74,155.48-188.92,379.68-188.92,10.28,0,20.56.2,30.73.7,1.21,0,2.32.1,3.43.2,3.22.1,6.55.3,9.77.51,7.76.4,15.52,1.1,23.17,1.91,3.84.4,7.66.81,11.49,1.31,1.82.2,3.73.4,5.65.71s3.72.5,5.64.8c3.53.4,7.15,1,10.78,1.62,5.54.9,11,1.91,16.43,3,4.63.9,9.26,1.91,13.8,3,2.52.5,5,1.11,7.46,1.81s5,1.31,7.45,2c5.95,1.51,11.79,3.33,17.54,5.24,2.31.71,4.73,1.51,7,2.42a56.14,56.14,0,0,1,5.35,1.91c1.82.61,3.53,1.31,5.34,2,4,1.51,8.06,3.22,12,5s7.86,3.52,11.69,5.54a40.88,40.88,0,0,1,5.14,2.62c1.91,1,3.83,2.11,5.74,3.12a41,41,0,0,1,4.13,2.42c1.92,1.11,3.83,2.21,5.75,3.43,4.13,2.61,8.26,5.43,12.19,8.36,2.11,1.51,4.13,3.12,6,4.64,1.31,1,2.62,2,3.83,3.12,4.24,3.52,8.26,7.25,12.1,11.08,2.41,2.42,4.73,4.94,6.95,7.46s4.53,5.24,6.65,8.06,4.13,5.54,6,8.36c1.71,2.52,3.33,5,4.84,7.66.3.5.6,1.11.91,1.61,1.31,2.22,2.52,4.54,3.72,6.75.51,1.21,1.12,2.32,1.72,3.53a148.82,148.82,0,0,1,7.45,18.44c.51,1.41,1,2.82,1.42,4.33.6,1.81,1.1,3.83,1.61,5.64.7,2.52,1.31,5,1.81,7.66.31,1.31.61,2.72.81,4a170.68,170.68,0,0,1,2.52,17.94c.3,2.82.5,5.64.6,8.56C780.33,262.68,780.43,266.2,780.43,269.73Z"/></g></g><g id="Scritta"><g id="y-2" data-name="y"><path class="cls-3" d="M2251.39,351.55c-11.09,0-17.56,6.47-17.56,15.71,0,55.45-12,114.61-60.08,190.39-17.56,27.72-52.68,41.59-64.7,41.59-10.16,0-16.63-5.54-16.63-16.64,0-46.21,54.53-99.82,54.53-152.5,0-37.89-45.29-78.55-91.5-78.55-16.64,0-25.88,6.47-25.88,15.71,0,73.94-83.18,184.85-83.18,252.31,0,45.29,30.5,65.62,73.93,65.62,86,0,131.25-53.6,141.41-53.6a2,2,0,0,1,1.86,1.84c0,1.85-.93,3.7-.93,6.47-27.73,82.26-80.41,228.29-217.2,228.29-56.37,0-67.46-21.26-80.4-21.26a13.61,13.61,0,0,0-13.86,13.86c0,30.51,57.3,124.77,172.83,124.77,170,0,218.11-222.73,268-373.39,29.58-89.64,66.55-174.67,66.55-193.16C2358.6,389.44,2318.85,351.55,2251.39,351.55Z"/></g><g id="t-2" data-name="t"><path class="cls-4" d="M1996.49,361a75.9,75.9,0,0,1-1.62,15.75c-.4,1.71-.8,3.43-1.31,5.25s-1.11,3.53-1.71,5.25-1.42,3.33-2.22,5.05c-.71,1.51-1.52,3-2.33,4.44-.6,1-1.21,2-1.91,3-.51.8-1,1.51-1.62,2.32a53,53,0,0,1-3.63,4.65,56.94,56.94,0,0,1-4.25,4.43,54.41,54.41,0,0,1-5,4.35q-2.11,1.67-4.55,3.33c-.4.3-.8.5-1.31.81-1.61,1.1-3.43,2.11-5.25,3.13-.3.2-.6.3-.9.5-1.82.91-3.74,1.82-5.66,2.63-2.32,1-4.74,1.91-7.27,2.82a.35.35,0,0,1-.2.1c-1.15.37-2.31.72-3.49,1.06-1.39.4-2.81.78-4.29,1.17s-2.82.7-4.23,1-2.93.6-4.45.9a133.41,133.41,0,0,1-13.83,1.82c-2.53.3-5.05.51-7.77.61h-.5c-2.45.18-5.07.2-7.7.2a1.44,1.44,0,0,0-1,.46c-.64,1.34-1.31,2.75-1.93,4.21-3.63,7.67-7.47,16.15-11.3,25.14-1.72,3.83-3.43,7.67-5.05,11.71-1.62,3.73-3.33,7.57-4.95,11.51-5.18,11.95-10.41,24.25-15.43,36.35-.81,2-1.63,3.93-2.43,5.89-.65,1.56-1.28,3.11-1.92,4.66-9.67,23.65-25.27,69-35,99.09a1.36,1.36,0,0,1-.2.4,9.74,9.74,0,0,0-1,1.92.68.68,0,0,0-.07.2,61.86,61.86,0,0,1-59.86,46.3,63.1,63.1,0,0,1-11.83-1.13,60.47,60.47,0,0,1-11.62-3.48,61.81,61.81,0,0,1-38.37-56c0-.42,0-.84,0-1.26v-.09a51.34,51.34,0,0,1,2-14.09c1.39-4.82,3-9.58,4.88-14.27,2.35-6,5-12,7.69-17.76q10.31-22.1,19.3-44.75c.43-1.07.85-2.14,1.27-3.19,6.46-16.3,12.55-31.16,17.41-42.76,3.7-8.82,7.13-17.19,10.09-24.84.05-.15.11-.3.17-.45,5.71-14.82,5.13-17.48,5-23.31a1.42,1.42,0,0,0-1.42-1.4c-9.71,0-26.56-.58-26.56-12.11,0-11.21,15.86-47.55,28-58.76a30.28,30.28,0,0,1,7.58-5.05,19.91,19.91,0,0,1,3-1.3l.08,0a16.88,16.88,0,0,1,2.08-.69c6.09-1.83,12.64-2.19,19.84-2.22a1.43,1.43,0,0,0,1.32-.88c.08-.18.15-.36.22-.55,24-59.07,45.15-110.62,45.15-133.75,0-8.38,8.38-14.94,26-14.94,39.18,0,90.46,41,90.46,68,0,12.81-13.58,41.06-29.11,80.13a1.43,1.43,0,0,0,1.33,2c1.68,0,3.3,0,4.87-.1,2.22,0,4.24,0,6.26-.1a30.58,30.58,0,0,0,3.07-.1h.12c1.39,0,2.68,0,4-.11,3.63-.19,6.77-.39,9.6-.5,11.4-1,17-2.22,22.2-2.62a10.75,10.75,0,0,1,1.83-.1l.18,0a11.21,11.21,0,0,1,1.73-.09C1993.66,350.8,1996.49,354.54,1996.49,361Z"/></g><g id="n-2" data-name="n"><path class="cls-5" d="M1890.83,645.15a13.54,13.54,0,0,0-18.28-6.73c-1.89.89-3.28,3.06-4.6,6.16a119.48,119.48,0,0,1-115.67,89.62,120.88,120.88,0,0,1-22.83-2.18,119.5,119.5,0,0,1-96.59-117.25v-.17a98.26,98.26,0,0,1,3.93-27.21c2.69-9.31,5.9-18.5,9.43-27.57,13.83-35.47,32.63-69,45.16-99.56l.45-1.12c7.69-19,12.89-36.87,12.89-53.41a58,58,0,0,0-.3-6,15.56,15.56,0,0,0-.3-3,39.11,39.11,0,0,0-.71-5.05,37.35,37.35,0,0,0-1.11-4.94,15.46,15.46,0,0,0-.6-2,32.69,32.69,0,0,0-1.52-4.44,49.42,49.42,0,0,0-2.52-5.36c-.47-.88-.94-1.72-1.45-2.56-.37-.6-.76-1.19-1.18-1.78-.71-1-1.41-2-2.12-2.93a18.52,18.52,0,0,0-1.31-1.61,32.54,32.54,0,0,0-3.13-3.33,42.8,42.8,0,0,0-3.84-3.44,39.06,39.06,0,0,0-3.94-2.92l-.09-.1c-.71-.51-1.52-1-2.23-1.42a.73.73,0,0,0-.4-.2c-.6-.4-1.21-.7-1.92-1.11a60.37,60.37,0,0,0-10.09-4.44c-.71-.21-1.41-.51-2.12-.71-.1,0-.21-.1-.3-.1a39.77,39.77,0,0,0-5-1.31,53.35,53.35,0,0,0-7.18-1.42,29.15,29.15,0,0,0-3.12-.4,106.18,106.18,0,0,0-14.33-.91c-83.9,0-146.39,68.05-150.13,68.05s-7.47-68.05-90.36-68.05c-17.76,0-26.14,6.56-26.14,15.86v.6a25.09,25.09,0,0,1-.1,2.73c0,1.4-.11,2.92-.21,4.43s-.2,3.14-.4,4.75c-.1,1-.2,2.12-.41,3.23a174.55,174.55,0,0,1-4,21.2c-.8,3.43-1.71,6.87-2.72,10.5-3.23,11.71-7.37,24-12,36.65-1.92,5.45-4,11-6.26,16.55-3.94,10.1-8.08,20.3-12.32,30.5-1.31,3.23-2.63,6.35-3.93,9.59-10,24.23-20,48.25-27.77,70.36-.5,1.42-.9,2.73-1.41,4-2.73,7.78-5.05,15.35-7,22.51-.5,1.62-.91,3.33-1.31,5-.7,2.83-1.31,5.66-1.92,8.48s-1.1,5.35-1.51,8c-.5,3-.91,5.86-1.12,8.69-.09.9-.19,1.91-.19,2.73-.1,1.82-.21,3.63-.21,5.45a18.37,18.37,0,0,0,.4,4,1.08,1.08,0,0,0,.11.81,16.71,16.71,0,0,0,1,3.84,29.6,29.6,0,0,0,2.12,4.44,19.58,19.58,0,0,0,1.71,2.63,26.32,26.32,0,0,0,3.14,3.73,22.88,22.88,0,0,0,3.22,3,58.47,58.47,0,0,0,9.8,6.36,61.12,61.12,0,0,0,6.36,3c2.22,1,4.54,1.92,6.86,2.73.3.1.71.2,1,.3,2.63.91,5.25,1.72,8,2.43,2.52.7,5.06,1.3,7.68,1.91,2.93.61,5.85,1.21,8.88,1.72s6,1,9,1.41,5.86.7,8.78,1c2,.2,4,.4,6.06.51,3.64.29,7.16.5,10.6.6s6.56.2,9.69.2c14.94,0,17.67-8.38,17.67-22.31,0-40.08,38.26-121.25,70.87-172.43,27.05-42,57.85-62.5,71.78-62.5,10.3,0,14.94,6.57,14.94,14.94,0,21.22-27.5,61.2-51.18,111.84q-3.35,7.11-6.54,14.52c-.26.62-.53,1.23-.79,1.85C1447.82,697.21,1540.9,843.75,1682.83,847c1.77,0,3.56.06,5.35.06,94.64,0,174.64-57.81,200.74-137.22l0-.12a102.9,102.9,0,0,0,4.74-23.3c.52-6,.79-12.13.79-18.29C1894.82,658.84,1893.3,650.44,1890.83,645.15ZM1644.38,413.91h0l-.62-.18ZM1545.7,675.56v-.07c0-.11,0-.21,0-.32C1545.71,675.3,1545.7,675.43,1545.7,675.56Z"/></g><g id="a-2" data-name="a"><path class="cls-6" d="M1309.47,413.11c0-7.56-7.15-18.14-20-28.82-23.48-19.55-65.9-39.09-117.69-39.09-83.53,0-158.3,39.79-208.48,95.72-41.21,45.65-66,102.07-66,156.38v1.31c.51,51.29,30.13,82.43,77.19,82.43,84.64,0,132.1-52.1,143.28-52.1,6.25,0,33.46,47.16,101,51.7,3.42.3,7,.4,10.68.4,9.27,0,14-4.63,14-11.09,0-11.18-6.55-14-6.55-41.91C1236.92,513.57,1309.47,430.84,1309.47,413.11ZM1049,591.76c-11.18,0-16.72-7.45-16.72-16.72,0-60.46,75.37-167.47,132.1-167.47,7.45,0,11.18,3.73,11.18,12.09C1175.56,440.11,1098.28,591.76,1049,591.76Z"/></g><g id="l-2" data-name="l"><path class="cls-7" d="M978.26,191.63a17.25,17.25,0,0,1-.1,2.22,20.22,20.22,0,0,1-.3,2.52c-.1.9-.2,1.81-.4,2.82s-.4,2.32-.7,3.63a1.7,1.7,0,0,1-.1.7c-.31,1.21-.61,2.52-.91,3.83a5.46,5.46,0,0,1-.3,1c-.51,2.22-1.22,4.53-1.92,7.06-4.73,16.11-12.7,37.58-22.67,62.47-1.61,3.93-3.33,8-4.94,12-4.33,10.58-9,21.56-13.81,33.05-1.61,3.82-3.31,7.66-4.93,11.48-3.33,7.76-6.75,15.72-10.18,23.78-1.81,4-3.52,8.06-5.23,12.09-1.92,4.13-3.64,8.17-5.35,12.3-2.62,5.84-5.13,11.68-7.65,17.53a.31.31,0,0,0-.1.2C881.94,438.5,864.9,477.6,850,513.77c-2.32,5.54-4.63,11-6.75,16.32-1.2,2.93-2.41,5.85-3.53,8.67-2,5.24-4,10.28-6,15.21-1.32,3.33-2.53,6.55-3.74,9.68-1.81,4.63-3.52,9.17-5.23,13.6-.91,2.52-1.82,4.94-2.63,7.36-7.35,20.15-13.1,37.88-16.32,51.89-.3,1.11-.5,2.12-.71,3.22-.5,2.12-.9,4-1.2,5.95s-.6,3.63-.81,5.34a11.07,11.07,0,0,0-.3,2.62,1.27,1.27,0,0,0-.1.6c-.1,1.62-.2,3.13-.2,4.54,0,13.9-2.83,22.27-17.74,22.27C741,681,680.51,670,680.51,636.4a22.09,22.09,0,0,1,.1-2.52,19.76,19.76,0,0,1,.21-2.42c.1-1.21.3-2.52.5-3.93s.4-2.82.7-4.33.61-3,1-4.64.71-3.32,1.21-5.13c.3-1.31.71-2.72,1.11-4.24,1-3.72,2.11-7.75,3.42-11.89.51-1.61,1-3.32,1.62-5,3.32-10.68,7.45-22.48,12.29-35.27.91-2.52,1.92-5,2.82-7.66,3.42-9,7-18.44,11-28.11,1.61-3.93,3.22-7.86,4.83-11.89.3-.91.71-1.92,1.11-2.82,3.63-9,7.45-18.14,11.29-27.61,2.41-6.05,4.93-12,7.56-18.14l80.2-192.46c1.51-3.83,3-7.55,4.43-11.28a.91.91,0,0,0,.3-.71c1.82-4.53,3.53-9.07,5.24-13.5,1.82-4.63,3.53-9.17,5.15-13.71.8-2.11,1.61-4.23,2.31-6.34,1-2.72,1.92-5.34,2.82-7.86,6-17.13,11-32.45,14.31-45.34.71-2.73,1.31-5.24,1.91-7.77v-.2c.61-2.51,1.11-4.83,1.52-7.15.2-1.31.4-2.52.6-3.73a67.93,67.93,0,0,0,1-11.18c0-9.27,8.36-15.82,26-15.82C926.17,123.72,978.26,165.64,978.26,191.63Z"/></g><g id="P-2" data-name="P"><path class="cls-8" d="M762.43,257.73c0,4.54-.2,9-.6,13.4-.21,2.53-.4,5.14-.71,7.66a119.93,119.93,0,0,1-2.42,15c-.19,1.1-.4,2-.6,3-.1.5-.2,1-.3,1.41-.51,2.22-1.11,4.53-1.72,6.65a178.27,178.27,0,0,1-5.84,18c-.81,2.11-1.61,4.23-2.62,6.24a49.63,49.63,0,0,1-2.11,4.84c-.41.91-.81,1.92-1.32,2.82-.8,1.72-1.61,3.33-2.51,5a191.83,191.83,0,0,1-30.23,43c-1.41,1.61-2.92,3.12-4.44,4.63a127.91,127.91,0,0,1-13.3,12.39,115.83,115.83,0,0,1-11.18,9,19.85,19.85,0,0,1-3.33,2.42c-1.91,1.41-3.93,2.82-6.05,4.13a24.57,24.57,0,0,0-2.62,1.71c-3,1.92-6,3.73-9.16,5.45-1.11.7-2.32,1.31-3.43,1.91-3,1.71-6,3.22-9.17,4.63-2.11,1.12-4.33,2.12-6.54,3-2.73,1.21-5.55,2.32-8.37,3.43a11.67,11.67,0,0,1-2.42.9c-3.52,1.41-7.05,2.62-10.68,3.73-1.61.5-3.13,1-4.73,1.41s-3.13.91-4.64,1.31c-1.72.5-3.53.91-5.24,1.31-5.34,1.31-10.88,2.42-16.42,3.23-3,.5-6.05.9-9.17,1.2-1.72.3-3.33.41-4.94.61-6.76.6-13.71.91-20.66.91C492.59,452.21,447,415,447,390.74c0-5.54,4.64-10.18,9.27-10.18,6.55,0,19.55,9.27,40.92,9.27,64.28,0,132.2-67,132.2-166.56,0-69.73-48.47-98.55-89.38-98.55-13,0-22.27,13.91-35.37,44.65C440.5,315.47,365.13,484.75,328.85,662.5c-3.73,16.72-7.46,27-22.37,27-43.73,0-116.28-11.18-116.28-44.74,0-42.72,116.28-364.66,172.1-466.13,23.28-41.81,45.65-53,48.47-54.91-89.38,12.09-206.56,62.37-206.56,161.92,0,58.65,23.27,71.65,23.27,81.92,0,5.54-4.73,9.27-14.91,9.27-44.64,0-136.84-43.73-136.84-129.28,0-124.74,155.48-188.92,379.68-188.92,10.28,0,20.56.2,30.73.7,1.21,0,2.32.1,3.43.2,3.22.1,6.55.3,9.77.51,7.76.4,15.52,1.1,23.17,1.91,3.84.4,7.66.81,11.49,1.31,1.82.2,3.73.4,5.65.71s3.72.5,5.64.8c3.53.4,7.15,1,10.78,1.62,5.54.9,11,1.91,16.43,3,4.63.9,9.26,1.91,13.8,3,2.52.5,5,1.11,7.46,1.81s5,1.31,7.45,2c5.95,1.51,11.79,3.33,17.54,5.24,2.31.71,4.73,1.51,7,2.42a56.14,56.14,0,0,1,5.35,1.91c1.82.61,3.53,1.31,5.34,2,4,1.51,8.06,3.22,12,5s7.86,3.52,11.69,5.54a40.88,40.88,0,0,1,5.14,2.62c1.91,1,3.83,2.11,5.74,3.12a41,41,0,0,1,4.13,2.42c1.92,1.11,3.83,2.21,5.75,3.43,4.13,2.61,8.26,5.43,12.19,8.36,2.11,1.51,4.13,3.12,6,4.64,1.31,1,2.62,2,3.83,3.12,4.24,3.52,8.26,7.25,12.1,11.08,2.41,2.42,4.73,4.94,6.95,7.46s4.53,5.24,6.65,8.06,4.13,5.54,6,8.36c1.71,2.52,3.33,5,4.84,7.66.3.5.6,1.11.91,1.61,1.31,2.22,2.52,4.54,3.72,6.75.51,1.21,1.12,2.32,1.72,3.53a148.82,148.82,0,0,1,7.45,18.44c.51,1.41,1,2.82,1.42,4.33.6,1.81,1.1,3.83,1.61,5.64.7,2.52,1.31,5,1.81,7.66.31,1.31.61,2.72.81,4a170.68,170.68,0,0,1,2.52,17.94c.3,2.82.5,5.64.6,8.56C762.33,250.68,762.43,254.2,762.43,257.73Z"/></g></g></g></svg>