<svg width="361" height="159" viewBox="0 0 361 159" fill="none" xmlns="http://www.w3.org/2000/svg">
<g opacity="0.9">
<g clip-path="url(#clip0)">
<path d="M360.095 63.152C360.095 66.3823 358.861 69.8635 355.289 79.4514C353.51 84.2306 351.482 89.6588 349.659 95.2345C349.659 95.2345 349.659 95.2345 349.659 95.2493C348.836 97.7274 348.027 100.338 347.16 103.097C343.647 114.351 339.664 127.111 333.299 137.451C329.448 143.69 325.185 148.396 320.232 151.818C314.279 155.948 307.517 158.028 300.153 158.028C294.774 158.028 289.644 156.981 284.896 154.93C280.824 153.175 277.135 150.712 273.901 147.629C271.197 145.047 268.874 142.053 267.199 138.97C266.405 137.525 265.787 136.108 265.317 134.722C264.376 135.091 263.406 135.445 262.436 135.74C258.247 137.052 253.881 137.731 249.442 137.731C249.104 137.731 248.751 137.731 248.413 137.716C245.018 137.643 241.652 137.126 238.433 136.212C235.317 135.327 232.318 134.043 229.511 132.406C224.131 129.264 219.486 124.809 216.076 119.499C214.371 116.844 212.989 113.983 211.946 111.018C211.372 111.401 210.755 111.726 210.108 112.006C208.506 112.684 206.742 113.039 204.846 113.039C204.229 113.039 203.641 113.024 203.112 113.009C202.48 112.994 201.847 112.95 201.157 112.906C200.686 112.876 200.26 112.832 199.937 112.802C199.922 112.802 199.907 112.802 199.893 112.802H199.834C199.378 112.758 198.864 112.699 198.29 112.625C197.791 112.552 197.173 112.478 196.482 112.345C195.924 112.242 195.424 112.139 194.954 112.05C194.88 112.035 194.807 112.021 194.748 112.006C194.322 111.903 193.807 111.785 193.263 111.637C192.72 111.49 192.19 111.327 191.646 111.15C191.544 111.121 191.426 111.077 191.294 111.032C191.279 111.032 191.264 111.018 191.264 111.018C190.691 110.811 190.118 110.59 189.574 110.354C189.559 110.354 189.545 110.339 189.53 110.339C187.354 112.168 184.606 113.127 181.578 113.127C180.725 113.127 179.946 113.098 179.226 113.039C172.45 112.566 167.452 110.074 164.027 107.64C162.66 108.422 161.073 109.233 159.294 109.985C154.356 112.065 149.152 113.127 143.846 113.127C140.862 113.127 138.04 112.611 135.453 111.578C132.689 110.487 130.264 108.835 128.265 106.696C127.942 106.356 127.633 106.002 127.339 105.648C127.045 106.371 126.663 107.094 126.193 107.802C124.914 109.705 123.121 111.195 120.989 112.094C119.402 112.773 117.623 113.112 115.742 113.112C112.934 113.112 107.466 112.861 102.395 111.136C99.4701 110.133 97.0154 108.761 95.1045 107.02C92.0178 104.218 90.3274 100.456 90.3274 96.4441C90.3274 96.2523 90.3274 95.913 90.3568 95.4705C90.3715 95.1165 90.4009 94.8215 90.4303 94.6003C90.4597 94.261 90.5038 93.966 90.5332 93.7595L90.5479 93.6415C90.592 93.3759 90.6361 92.9777 90.739 92.5057C90.739 92.4909 90.739 92.4909 90.739 92.4762V92.4467C90.7831 92.2254 90.8419 91.9451 90.9154 91.6206C90.9889 91.2519 91.077 90.8831 91.1799 90.5143C91.2387 90.2783 91.2975 90.0866 91.3416 89.9243L91.371 89.7915V89.7768C91.5474 89.0983 91.7532 88.3755 92.0031 87.5937C92.0178 87.5495 92.0325 87.5052 92.0472 87.4757C92.106 87.284 92.1795 87.0332 92.2823 86.7529C92.8115 85.0714 93.4583 83.198 94.2226 81.1772C94.2961 80.9707 94.3549 80.7937 94.4284 80.6314C94.4872 80.4692 94.546 80.3217 94.5754 80.2332C94.6048 80.1299 94.6489 80.0266 94.6783 79.9381C95.0898 78.8613 95.5014 77.7846 95.9277 76.7078C95.4426 76.8848 94.9575 77.047 94.4431 77.2093L94.3549 77.2388C94.1638 77.2978 93.8992 77.3863 93.5758 77.4748C93.2525 77.578 92.9879 77.6518 92.7821 77.696H92.7527C92.3411 77.814 91.9884 77.9026 91.7238 77.9616L91.6503 77.9763C90.5773 78.2418 89.4896 78.4483 88.4313 78.6106C87.8727 78.6991 87.3435 78.7728 86.7997 78.8318C86.5057 78.8761 86.2558 78.9056 86.0794 78.9203L86.0059 78.9351C85.9031 78.9499 85.7855 78.9646 85.6826 78.9646C84.3891 79.0826 83.0662 79.1416 81.7286 79.1416C76.0107 79.1416 70.3664 77.6223 65.7068 74.8492C62.6348 83.8176 59.9596 93.0219 58.0635 102.33C58.0488 102.389 58.0341 102.448 58.0194 102.507C57.549 104.616 56.9022 106.873 55.4177 109.012C54.183 110.782 52.6102 112.139 50.714 113.068C48.9649 113.924 47.0246 114.366 44.9521 114.366C42.6738 114.366 36.7501 114.189 31.0764 112.493C27.9602 111.563 25.4614 110.354 23.4183 108.776C19.7583 105.943 17.7445 102.005 17.7445 97.6831C17.7445 95.6918 18.1414 92.5794 21.0224 83.3308C22.4188 78.8171 24.2855 73.3004 26.3581 67.4444C21.625 66.5003 16.598 64.2287 12.4383 61.0721C4.94185 55.3931 0.826172 47.4426 0.826172 38.7102C0.826172 35.3176 1.35533 32.0282 2.41365 28.9305C3.44257 25.8919 4.98594 23.0303 6.99968 20.4047C10.6009 15.6845 15.7161 11.7461 22.1983 8.66321C27.9161 5.94909 34.7511 3.89876 42.5268 2.5417C49.9203 1.2584 58.1663 0.609375 67.0297 0.609375C68.7642 0.609375 70.3664 0.638876 71.8951 0.712629C72.2037 0.712629 72.4683 0.74213 72.6888 0.756881C73.1739 0.771632 73.6442 0.801133 74.0999 0.830634C75.2611 0.889637 76.5105 0.992891 78.0098 1.15515C78.6124 1.21415 79.2151 1.2879 79.8471 1.36166C80.1705 1.39116 80.5821 1.43541 81.0524 1.52391C81.1259 1.53866 81.1847 1.53866 81.2435 1.55341C81.3611 1.56816 81.5081 1.58292 81.6698 1.61242C82.3606 1.70092 82.9927 1.80417 83.5659 1.89268C84.492 2.04018 85.3886 2.21719 86.3146 2.3942C87.079 2.5417 87.8433 2.70396 88.5782 2.89572C89.078 2.99897 89.5778 3.11698 90.0628 3.26448C90.4303 3.35299 90.8272 3.45624 91.2534 3.589C92.1648 3.82501 93.1349 4.12002 94.252 4.48878C94.693 4.62154 95.1045 4.76905 95.4867 4.91655C95.8983 5.04931 96.2363 5.18206 96.4862 5.28532C96.8096 5.40332 97.0889 5.50658 97.3094 5.59508L97.4122 5.63933C98.1325 5.91959 98.8968 6.22936 99.6612 6.58337C100.352 6.87838 101.013 7.18815 101.66 7.52741C102.086 7.71917 102.513 7.94043 102.954 8.20594C103.101 8.27969 103.233 8.35344 103.351 8.4272C103.424 8.47145 103.483 8.50095 103.556 8.5452C104.027 8.78121 104.424 9.01722 104.747 9.22373C105.056 9.40074 105.394 9.60725 105.761 9.8285C106.57 10.3448 107.363 10.8905 108.113 11.4511C108.569 11.7756 108.951 12.0853 109.245 12.3214L109.26 12.3361C109.495 12.5131 109.833 12.7786 110.215 13.1179C110.994 13.7817 111.773 14.5044 112.537 15.2567C112.993 15.714 113.449 16.2008 113.934 16.7465C114.434 17.2923 114.919 17.8823 115.418 18.5461C115.83 19.0771 116.227 19.6377 116.638 20.2424C116.829 20.5227 117.006 20.7882 117.167 21.0537C117.932 15.478 122.621 10.2858 130.911 10.2858C133.63 10.2858 136.452 10.8905 139.319 12.1001C141.597 13.0589 143.875 14.3864 145.918 15.95C149.093 18.3839 154.414 23.5171 154.414 30.4056C154.414 30.6269 154.414 31.1136 154.356 31.7479C154.341 31.9544 154.311 32.2199 154.267 32.5149C154.238 32.7362 154.194 33.0165 154.135 33.341C154.12 33.4442 154.091 33.5622 154.062 33.7097C154.003 34.0638 153.929 34.4325 153.841 34.7718C153.826 34.816 153.826 34.8603 153.812 34.9193L153.782 35.0225C153.768 35.0668 153.768 35.0963 153.753 35.1405C153.709 35.3028 153.679 35.4503 153.635 35.5978C153.562 35.9076 153.488 36.1731 153.415 36.4091C153.4 36.4829 153.371 36.5566 153.356 36.6451C153.341 36.6894 153.327 36.7336 153.312 36.7779C152.562 39.3297 151.401 42.5601 149.652 46.9558C149.637 46.9853 149.623 47.0148 149.623 47.0443C149.534 47.2655 149.431 47.4868 149.343 47.7081C149.196 48.0621 149.049 48.4013 148.932 48.7259C148.917 48.7554 148.917 48.7701 148.902 48.7996C148.785 49.0946 148.667 49.3896 148.535 49.6846C149.505 49.1389 150.49 48.6374 151.475 48.1506C158.354 44.8464 165.615 43.1796 173.067 43.1796C177.785 43.1796 182.401 43.9909 186.781 45.5987C189.295 46.528 191.676 47.6933 193.793 49.0504C194.719 47.5753 195.953 46.292 197.467 45.3037C199.79 43.7992 202.597 43.0321 205.831 43.0321C213.695 43.0321 218.81 45.9232 221.941 48.7554C226.894 45.8052 233.582 43.0321 241.417 43.0321C242.534 43.0321 243.636 43.0911 244.665 43.2239C244.886 43.2534 245.18 43.2829 245.518 43.3419C246.091 43.4156 246.664 43.5336 247.252 43.6811C247.737 43.7844 248.164 43.9024 248.516 44.0057C248.707 44.0647 248.884 44.1237 249.075 44.1827C249.134 44.1974 249.192 44.2269 249.237 44.2417C249.266 44.2564 249.281 44.2564 249.31 44.2712C250.383 44.6252 251.412 45.0825 252.441 45.643C252.485 45.6725 252.529 45.702 252.588 45.7167C252.617 45.7315 252.647 45.7462 252.691 45.7757C252.897 45.8937 253.117 46.0117 253.323 46.1445C253.602 46.3215 253.881 46.4985 254.146 46.6903C254.513 46.941 254.866 47.2065 255.219 47.5016C255.248 47.5311 255.278 47.5458 255.307 47.5753C256.057 47.0148 256.836 46.5575 257.644 46.174C257.909 46.0412 258.232 45.8937 258.585 45.7462C259.482 43.5041 260.305 41.4096 260.966 39.551C262.26 35.9961 262.524 34.6538 262.568 34.2998C262.642 30.2876 264.744 26.5999 268.213 24.4169C270.506 22.986 273.269 22.2485 276.415 22.2485C279.119 22.2485 281.927 22.8533 284.778 24.0186C287.071 24.9626 289.35 26.3049 291.378 27.8685C293.48 29.4911 295.317 31.3791 296.684 33.3115C298.757 36.2468 299.801 39.3002 299.801 42.3831C299.801 42.8404 299.771 43.3124 299.727 43.7697C301.285 43.2681 302.99 43.0026 304.828 43.0026C305.401 43.0026 306.253 43.0174 307.253 43.1501C312.471 43.7254 317.542 46.115 321.555 49.8912C321.834 50.1567 322.099 50.4074 322.349 50.6877C323.01 49.0356 324.024 47.5606 325.362 46.3215C327.67 44.1827 330.771 43.0026 334.078 43.0026C340.796 43.0026 346.881 44.8317 351.687 48.2833C354.098 50.0239 356.053 52.089 357.493 54.4196C359.199 57.1632 360.095 60.1871 360.095 63.152Z" fill="white"/>
<path d="M334.429 54.2266C332.798 54.2266 331.842 55.1854 331.842 56.5424C331.842 64.729 330.078 73.4466 323.008 84.6276C320.421 88.7135 315.262 90.7638 313.498 90.7638C311.999 90.7638 311.058 89.9525 311.058 88.3152C311.058 81.5004 319.069 73.5941 319.069 65.8205C319.069 60.2301 312.41 54.2266 305.62 54.2266C303.18 54.2266 301.813 55.1854 301.813 56.5424C301.813 67.4431 289.583 83.8015 289.583 93.7582C289.583 100.44 294.066 103.435 300.446 103.435C313.087 103.435 319.73 95.5283 321.23 95.5283C321.362 95.5283 321.509 95.661 321.509 95.7938C321.509 96.0593 321.377 96.3396 321.377 96.7526C317.305 108.892 309.559 130.428 289.451 130.428C281.161 130.428 279.529 127.286 277.633 127.286C276.545 127.286 275.59 128.098 275.59 129.337C275.59 133.836 284.012 147.745 300.989 147.745C325.992 147.745 333.048 114.896 340.382 92.6666C344.733 79.4501 350.157 66.8973 350.157 64.1685C350.186 59.817 344.351 54.2266 334.429 54.2266Z" fill="#00775F"/>
<path d="M296.963 55.6272C296.963 56.3795 296.889 57.176 296.728 57.943C296.669 58.1938 296.61 58.4446 296.537 58.7101C296.463 58.9608 296.375 59.2264 296.287 59.4919C296.184 59.7426 296.081 59.9786 295.963 60.2294C295.861 60.4507 295.743 60.6719 295.625 60.8784C295.537 61.0259 295.449 61.1734 295.346 61.3209C295.273 61.4389 295.199 61.5422 295.111 61.6602C294.949 61.8962 294.773 62.1175 294.582 62.3387C294.391 62.56 294.185 62.7812 293.964 62.9878C293.744 63.209 293.494 63.4155 293.229 63.622C293.024 63.7843 292.803 63.9465 292.568 64.1088C292.509 64.1531 292.45 64.1826 292.377 64.2268C292.142 64.3891 291.877 64.5366 291.598 64.6841C291.554 64.7136 291.51 64.7283 291.466 64.7578C291.201 64.8906 290.922 65.0233 290.628 65.1413C290.29 65.2888 289.937 65.4216 289.555 65.5544C289.555 65.5544 289.54 65.5691 289.525 65.5691C289.349 65.6281 289.187 65.6724 289.011 65.7314C288.805 65.7904 288.599 65.8494 288.379 65.9084C288.173 65.9674 287.967 66.0116 287.762 66.0559C287.556 66.1001 287.335 66.1444 287.115 66.1886C286.483 66.3066 285.807 66.3951 285.086 66.4541C284.719 66.4984 284.351 66.5279 283.94 66.5426H283.866C283.514 66.5722 283.117 66.5722 282.735 66.5722C282.676 66.5722 282.617 66.6017 282.588 66.6459C282.499 66.8377 282.396 67.0442 282.308 67.2654C281.779 68.4012 281.206 69.655 280.647 70.9678C280.397 71.5284 280.148 72.1036 279.912 72.6937C279.677 73.2394 279.427 73.8147 279.192 74.39C278.428 76.16 277.663 77.9744 276.928 79.7592C276.811 80.0542 276.693 80.3345 276.576 80.6295C276.488 80.8655 276.385 81.0868 276.296 81.3228C274.871 84.8187 272.578 91.5007 271.152 95.9406C271.152 95.9554 271.137 95.9849 271.122 95.9996C271.064 96.0734 271.02 96.1766 270.975 96.2799C270.975 96.2946 270.961 96.2946 270.961 96.3094C269.947 100.233 266.389 103.139 262.156 103.139C261.568 103.139 260.98 103.08 260.422 102.977C259.834 102.859 259.26 102.682 258.717 102.46C258.173 102.239 257.673 101.974 257.188 101.649C254.763 100.056 253.131 97.3124 253.072 94.2C253.072 94.141 253.072 94.082 253.072 94.0083V93.9935C253.072 93.2855 253.175 92.5922 253.366 91.9137C253.572 91.2057 253.822 90.4976 254.086 89.8044C254.439 88.9193 254.821 88.0343 255.218 87.1787C256.233 85.0104 257.173 82.8126 258.055 80.5705C258.114 80.4082 258.173 80.2607 258.246 80.0985C259.202 77.6941 260.098 75.4963 260.804 73.7852C261.348 72.4871 261.847 71.2481 262.288 70.127C262.303 70.0975 262.303 70.0828 262.318 70.068C263.156 67.885 263.067 67.4867 263.053 66.6312C263.053 66.5131 262.965 66.4246 262.847 66.4246C261.421 66.4246 258.937 66.3361 258.937 64.6398C258.937 62.9878 261.274 57.6185 263.053 55.9665C263.406 55.6567 263.773 55.4059 264.17 55.2289C264.317 55.1552 264.464 55.0814 264.611 55.0372H264.626C264.728 54.9929 264.831 54.9634 264.934 54.9339C265.831 54.6684 266.786 54.6094 267.845 54.6094C267.933 54.6094 268.006 54.5652 268.036 54.4767C268.05 54.4472 268.065 54.4177 268.065 54.4029C271.593 45.6853 274.694 38.0887 274.694 34.6666C274.694 33.4275 275.929 32.4688 278.516 32.4688C284.278 32.4688 291.818 38.5165 291.818 42.4992C291.818 44.3872 289.819 48.5617 287.541 54.3144C287.482 54.4472 287.585 54.6094 287.732 54.6094C287.982 54.6094 288.217 54.6094 288.452 54.5947C288.776 54.5947 289.07 54.5947 289.378 54.5799C289.54 54.5799 289.687 54.5799 289.834 54.5652H289.849C290.055 54.5652 290.246 54.5652 290.437 54.5504C290.966 54.5209 291.436 54.4914 291.848 54.4767C293.523 54.3291 294.347 54.1521 295.111 54.0931C295.199 54.0784 295.287 54.0784 295.375 54.0784C295.39 54.0784 295.39 54.0784 295.405 54.0784C295.493 54.0636 295.581 54.0636 295.655 54.0636C296.551 54.1226 296.963 54.6684 296.963 55.6272Z" fill="#00775F"/>
<path d="M281.426 97.5348C280.911 96.4285 279.721 96.0892 278.736 96.5465C278.456 96.6792 278.251 97.0037 278.06 97.461C276.119 105.058 269.24 110.678 261.053 110.678C259.906 110.678 258.789 110.56 257.702 110.353C256.555 110.132 255.453 109.793 254.394 109.365C253.366 108.937 252.366 108.421 251.44 107.801C246.648 104.659 243.488 99.2311 243.488 93.0506V93.0211C243.488 91.664 243.694 90.307 244.061 89.0089C244.458 87.6371 244.928 86.2801 245.443 84.9377C247.471 79.7013 250.235 74.7598 252.087 70.2461C252.116 70.1871 252.131 70.1429 252.16 70.0839C253.292 67.2813 254.056 64.6409 254.056 62.2071C254.056 61.912 254.042 61.617 254.012 61.322C254.012 61.1745 253.998 61.027 253.968 60.8795C253.953 60.6287 253.909 60.378 253.865 60.142C253.821 59.8912 253.777 59.6552 253.704 59.4192C253.689 59.3159 253.645 59.2274 253.615 59.1242C253.557 58.9029 253.483 58.6817 253.395 58.4752C253.292 58.2096 253.16 57.9441 253.027 57.6786C252.954 57.5459 252.895 57.4279 252.807 57.2951C252.748 57.2066 252.689 57.1181 252.631 57.0296C252.528 56.8821 252.425 56.7346 252.322 56.6018C252.263 56.5281 252.204 56.4396 252.131 56.3658C251.999 56.2036 251.837 56.0266 251.675 55.8791C251.499 55.702 251.322 55.5398 251.117 55.3775C250.94 55.23 250.749 55.0825 250.543 54.9498L250.529 54.935C250.426 54.8613 250.308 54.7875 250.205 54.7285C250.191 54.7138 250.161 54.699 250.146 54.699C250.058 54.64 249.97 54.5957 249.867 54.5367C249.412 54.286 248.912 54.0647 248.383 53.8877C248.28 53.8582 248.177 53.814 248.074 53.7845C248.059 53.7845 248.045 53.7697 248.03 53.7697C247.795 53.696 247.545 53.6222 247.295 53.578C246.957 53.4895 246.604 53.4157 246.237 53.3714C246.09 53.3419 245.943 53.3272 245.781 53.3124C245.134 53.2239 244.414 53.1797 243.679 53.1797C231.347 53.1797 222.16 63.2101 221.616 63.2101C221.072 63.2101 220.514 53.1797 208.328 53.1797C205.712 53.1797 204.492 54.1532 204.492 55.525V55.6135C204.492 55.7463 204.492 55.8791 204.477 56.0118C204.477 56.2183 204.463 56.4396 204.448 56.6608C204.433 56.8821 204.418 57.1181 204.389 57.3541C204.374 57.5016 204.36 57.6639 204.33 57.8261C204.213 58.8292 204.007 59.8617 203.742 60.9533C203.625 61.4548 203.492 61.9711 203.345 62.5021C202.875 64.2279 202.258 66.0422 201.582 67.9155C201.302 68.7121 200.994 69.5381 200.656 70.3641C200.082 71.854 199.465 73.3585 198.848 74.8631C198.656 75.3351 198.465 75.8071 198.274 76.2791C196.804 79.8488 195.335 83.4037 194.188 86.6636C194.115 86.8701 194.056 87.0618 193.982 87.2536C193.585 88.4041 193.247 89.5104 192.953 90.5725C192.88 90.8085 192.821 91.0592 192.762 91.2953C192.659 91.7083 192.571 92.136 192.483 92.5491C192.395 92.9473 192.321 93.3308 192.262 93.7291C192.189 94.1716 192.13 94.5994 192.101 95.0124C192.086 95.1452 192.071 95.2927 192.071 95.4107C192.057 95.6762 192.042 95.9417 192.042 96.2072C192.042 96.4137 192.057 96.6055 192.101 96.7972C192.086 96.8415 192.101 96.8857 192.115 96.9152C192.145 97.107 192.189 97.2988 192.262 97.4758C192.292 97.5643 192.321 97.6528 192.365 97.7265C192.409 97.874 192.483 98.0068 192.571 98.1248C192.645 98.2575 192.718 98.3755 192.821 98.5083C192.953 98.7001 193.1 98.8771 193.277 99.0541C193.409 99.2163 193.571 99.3491 193.747 99.4966C194.159 99.8359 194.658 100.146 195.188 100.441C195.482 100.603 195.79 100.75 196.128 100.883C196.452 101.031 196.79 101.163 197.142 101.281C197.187 101.296 197.245 101.311 197.289 101.326C197.672 101.458 198.069 101.576 198.465 101.68C198.833 101.783 199.215 101.871 199.597 101.96C200.023 102.048 200.464 102.137 200.905 102.211C201.332 102.299 201.787 102.358 202.228 102.417C202.655 102.476 203.096 102.52 203.522 102.565C203.816 102.594 204.11 102.624 204.418 102.638C204.948 102.683 205.477 102.712 205.976 102.727C206.462 102.742 206.947 102.756 207.402 102.756C209.592 102.756 210.004 101.517 210.004 99.4671C210.004 93.5521 215.634 81.5746 220.425 74.037C224.394 67.8418 228.921 64.8179 230.979 64.8179C232.493 64.8179 233.169 65.7915 233.169 67.0158C233.169 70.1429 229.127 76.0431 225.644 83.5069C225.32 84.2002 224.997 84.923 224.688 85.6458C224.644 85.7343 224.615 85.8228 224.571 85.9113C216.383 105.176 230.053 126.785 250.926 127.272C251.19 127.272 251.455 127.287 251.719 127.287C265.624 127.287 277.383 118.761 281.22 107.049V107.034C281.587 105.913 281.822 104.763 281.911 103.597C281.984 102.712 282.028 101.812 282.028 100.898C282.014 99.5556 281.793 98.3165 281.426 97.5348ZM245.208 63.4314C245.178 63.4166 245.149 63.4166 245.119 63.4019C245.149 63.4166 245.178 63.4166 245.208 63.4314ZM230.7 102.034C230.7 102.034 230.7 102.019 230.7 102.034C230.7 102.004 230.7 101.989 230.7 101.975C230.7 101.989 230.7 102.004 230.7 102.034Z" fill="#00775F"/>
<path d="M195.982 63.3125C195.982 62.1915 194.924 60.6427 193.057 59.0644C189.603 56.188 183.371 53.2969 175.757 53.2969C163.483 53.2969 152.488 59.1676 145.109 67.4132C139.054 74.1395 135.408 82.4736 135.408 90.4832V90.6749C135.482 98.242 139.833 102.829 146.756 102.829C159.191 102.829 166.173 95.1443 167.819 95.1443C168.745 95.1443 172.743 102.107 182.665 102.77C183.165 102.815 183.709 102.829 184.238 102.829C185.605 102.829 186.296 102.151 186.296 101.192C186.296 99.54 185.325 99.127 185.325 95.0116C185.311 78.1369 195.982 65.9234 195.982 63.3125ZM157.692 89.6719C156.045 89.6719 155.237 88.5656 155.237 87.2085C155.237 78.2844 166.32 62.5013 174.654 62.5013C175.757 62.5013 176.3 63.047 176.3 64.2861C176.3 67.2952 164.938 89.6719 157.692 89.6719Z" fill="#00775F"/>
<path d="M147.298 30.6386C147.298 30.7419 147.298 30.8451 147.284 30.9631C147.269 31.0811 147.269 31.1991 147.24 31.3319C147.225 31.4646 147.21 31.5974 147.181 31.7449C147.151 31.9072 147.122 32.0842 147.078 32.2759C147.078 32.3054 147.078 32.3497 147.063 32.3792C147.019 32.5562 146.975 32.7479 146.931 32.9397C146.916 32.984 146.916 33.0282 146.887 33.0872C146.813 33.4117 146.71 33.751 146.608 34.1345C145.917 36.5094 144.741 39.6807 143.271 43.3536C143.036 43.9289 142.786 44.5337 142.551 45.1237C141.919 46.6873 141.228 48.3098 140.522 50.0062C140.287 50.5667 140.037 51.1419 139.802 51.7025C139.317 52.853 138.817 54.0183 138.303 55.2131C138.038 55.8031 137.788 56.4079 137.538 56.9979C137.259 57.6027 137.009 58.2075 136.759 58.8123C136.377 59.6678 136.01 60.5381 135.628 61.3936C135.613 61.4084 135.613 61.4231 135.613 61.4231C133.158 67.0578 130.645 72.8253 128.454 78.1651C128.116 78.9763 127.778 79.7876 127.455 80.5694C127.279 80.9972 127.102 81.4249 126.94 81.8527C126.647 82.6197 126.353 83.372 126.059 84.0948C125.867 84.5816 125.691 85.0683 125.515 85.5256C125.25 86.2041 125 86.8827 124.75 87.5317C124.618 87.9005 124.486 88.2545 124.368 88.6232C123.28 91.6029 122.443 94.2137 121.972 96.2788C121.928 96.441 121.899 96.5886 121.869 96.7508C121.796 97.0606 121.737 97.3408 121.693 97.6211C121.649 97.8866 121.605 98.1521 121.575 98.4029C121.546 98.5209 121.531 98.6536 121.531 98.7864C121.517 98.8159 121.517 98.8454 121.517 98.8749C121.502 99.1109 121.487 99.3322 121.487 99.5387C121.487 101.589 121.076 102.828 118.886 102.828C112.462 102.828 103.569 101.191 103.569 96.2493C103.569 96.1313 103.569 96.0133 103.584 95.8805C103.584 95.7625 103.599 95.6445 103.613 95.5265C103.628 95.3495 103.658 95.1577 103.687 94.9512C103.716 94.7447 103.746 94.5382 103.79 94.317C103.834 94.0957 103.878 93.8745 103.937 93.6384C103.981 93.4024 104.04 93.1517 104.113 92.8862C104.157 92.6944 104.216 92.4879 104.275 92.2666C104.422 91.7209 104.584 91.1161 104.775 90.5113C104.848 90.2753 104.922 90.0245 105.01 89.7738C105.495 88.1955 106.112 86.4549 106.818 84.5668C106.95 84.1981 107.097 83.8293 107.229 83.431C107.729 82.1035 108.273 80.7169 108.846 79.2861C109.081 78.7108 109.317 78.1208 109.552 77.5308C109.596 77.398 109.655 77.2505 109.713 77.1178C110.243 75.7902 110.816 74.4479 111.374 73.0466C111.727 72.1616 112.095 71.2765 112.492 70.3767L124.28 41.9818C124.5 41.4213 124.721 40.8608 124.927 40.315C124.956 40.2855 124.971 40.256 124.971 40.2118C125.235 39.548 125.485 38.8694 125.735 38.2204C126 37.5419 126.25 36.8634 126.485 36.1996C126.602 35.8898 126.72 35.5801 126.823 35.2703C126.97 34.872 127.102 34.4885 127.234 34.105C128.116 31.5826 128.851 29.3258 129.336 27.423C129.439 27.0247 129.527 26.6559 129.616 26.2724C129.616 26.2724 129.616 26.2577 129.616 26.2429C129.704 25.8742 129.777 25.5349 129.836 25.1809C129.866 24.9891 129.895 24.8121 129.924 24.6351C130.027 24.0156 130.071 23.4551 130.071 22.983C130.071 21.6112 131.306 20.6524 133.893 20.6524C139.64 20.6229 147.298 26.8035 147.298 30.6386Z" fill="#00775F"/>
<path d="M115.564 40.3906C115.564 41.0543 115.534 41.7181 115.475 42.3671C115.446 42.7359 115.417 43.1194 115.373 43.5029C115.299 44.2552 115.182 44.9927 115.02 45.7155C114.99 45.8778 114.961 46.0105 114.932 46.158C114.917 46.2318 114.902 46.3055 114.888 46.3645C114.814 46.6891 114.726 47.0283 114.638 47.3381C114.402 48.2379 114.108 49.1377 113.785 49.9932C113.668 50.303 113.55 50.6127 113.403 50.9077C113.315 51.1437 113.212 51.3797 113.094 51.6158C113.035 51.7485 112.977 51.896 112.903 52.0288C112.786 52.2795 112.668 52.5155 112.536 52.7663C111.36 55.0527 109.875 57.1915 108.097 59.1091C107.891 59.3451 107.67 59.5663 107.45 59.7876C106.847 60.4366 106.186 61.0561 105.495 61.6167C104.981 62.0887 104.407 62.5312 103.849 62.9442C103.702 63.077 103.54 63.195 103.364 63.2982C103.084 63.5047 102.79 63.7113 102.482 63.903C102.349 63.9768 102.217 64.0653 102.1 64.1538C101.659 64.434 101.218 64.6995 100.747 64.9503C100.586 65.0536 100.409 65.1421 100.247 65.2306C99.8065 65.4813 99.3656 65.7026 98.8952 65.9091C98.5865 66.0714 98.2632 66.2189 97.9398 66.3516C97.5429 66.5286 97.1313 66.6909 96.7051 66.8531C96.5875 66.9121 96.4699 66.9564 96.3523 66.9859C95.8378 67.1924 95.3234 67.3694 94.7795 67.5317C94.5443 67.6054 94.3239 67.6792 94.0887 67.7382C93.8682 67.8119 93.633 67.8709 93.4125 67.9299C93.1627 68.0037 92.8981 68.0627 92.6482 68.1217C91.8692 68.3134 91.046 68.4757 90.2376 68.5937C89.7966 68.6675 89.3557 68.7265 88.8853 68.7707C88.6354 68.815 88.4002 68.8297 88.165 68.8592C87.1655 68.9477 86.1513 68.992 85.1224 68.992C75.9503 68.992 69.2623 63.5047 69.2623 59.9204C69.2623 59.1091 69.9385 58.4158 70.6293 58.4158C71.5995 58.4158 73.4956 59.7876 76.6412 59.7876C86.0925 59.7876 96.073 49.9047 96.073 35.2131C96.073 24.9319 88.9441 20.6837 82.9323 20.6837C81.0214 20.6837 79.6544 22.7341 77.7289 27.2625C68.2922 48.8131 57.2093 73.7859 51.8883 99.9977C51.3445 102.461 50.7859 103.98 48.5958 103.98C42.1724 103.98 31.501 102.328 31.501 97.3869C31.501 91.0884 48.5958 43.5914 56.7977 28.6343C60.2225 22.4686 63.5004 20.8165 63.9267 20.5362C50.7859 22.3211 33.5589 29.7406 33.5589 44.4175C33.5589 53.0613 36.9837 54.9789 36.9837 56.4982C36.9837 57.3095 36.2928 57.87 34.7936 57.87C28.2379 57.87 14.6855 51.424 14.6855 38.7975C14.6855 20.4035 37.5422 10.9336 70.497 10.9336C72.011 10.9336 73.525 10.9631 75.0096 11.0368C75.186 11.0368 75.3477 11.0516 75.5093 11.0663C75.9797 11.0811 76.4795 11.1106 76.9498 11.1401C78.0963 11.1991 79.2281 11.3024 80.36 11.4204C80.9185 11.4794 81.4918 11.5384 82.0503 11.6121C82.3149 11.6416 82.5942 11.6711 82.8735 11.7154C83.1527 11.7596 83.4173 11.7891 83.6966 11.8334C84.2111 11.8924 84.7549 11.9809 85.2841 12.0694C86.0925 12.2021 86.9009 12.3497 87.6947 12.5119C88.3708 12.6447 89.0617 12.7922 89.7231 12.9544C90.0906 13.0282 90.4581 13.1167 90.8255 13.2199C91.193 13.3084 91.5605 13.4117 91.9279 13.5149C92.7952 13.7362 93.6624 14.0017 94.5002 14.282C94.8383 14.3852 95.1911 14.5032 95.5292 14.636C95.7937 14.7097 96.0436 14.813 96.3082 14.9163C96.5728 15.0048 96.8227 15.108 97.0872 15.2113C97.6752 15.4325 98.2778 15.6833 98.8511 15.9488C99.4391 16.1996 100.012 16.4651 100.571 16.7601C100.821 16.8633 101.071 16.9961 101.321 17.1436C101.6 17.2911 101.879 17.4534 102.158 17.6009C102.364 17.7041 102.555 17.8221 102.761 17.9549C103.04 18.1171 103.32 18.2794 103.599 18.4564C104.201 18.8399 104.819 19.2529 105.392 19.6955C105.701 19.9167 105.995 20.1527 106.274 20.374C106.465 20.5215 106.656 20.669 106.833 20.8313C107.45 21.3475 108.053 21.908 108.611 22.4686C108.964 22.8226 109.302 23.1913 109.625 23.5749C109.963 23.9436 110.287 24.3419 110.61 24.7697C110.919 25.1679 111.213 25.5809 111.492 26.0087C111.742 26.3775 111.977 26.7462 112.198 27.1445C112.242 27.2183 112.286 27.3068 112.33 27.3805C112.521 27.705 112.697 28.0443 112.874 28.3836C112.947 28.5606 113.035 28.7228 113.124 28.8998C113.535 29.7554 113.903 30.6699 114.226 31.6139C114.3 31.8204 114.373 32.027 114.432 32.2482C114.52 32.5137 114.594 32.8087 114.667 33.0743C114.77 33.443 114.858 33.8118 114.932 34.21C114.976 34.4018 115.02 34.6083 115.049 34.8001C115.211 35.6409 115.343 36.5406 115.417 37.4404C115.461 37.8534 115.49 38.2665 115.505 38.709C115.549 39.358 115.564 39.8743 115.564 40.3906Z" fill="#00775F"/>
<path d="M331.784 52.4141C330.152 52.4141 329.197 53.3729 329.197 54.7299C329.197 62.9165 327.433 71.6341 320.363 82.8151C317.776 86.901 312.617 88.9513 310.853 88.9513C309.353 88.9513 308.413 88.14 308.413 86.5027C308.413 79.6879 316.424 71.7816 316.424 64.008C316.424 58.4176 309.765 52.4141 302.974 52.4141C300.534 52.4141 299.167 53.3729 299.167 54.7299C299.167 65.6306 286.938 81.989 286.938 91.9457C286.938 98.6277 291.421 101.622 297.8 101.622C310.441 101.622 317.085 93.7158 318.584 93.7158C318.717 93.7158 318.864 93.8485 318.864 93.9813C318.864 94.2468 318.731 94.5271 318.731 94.9401C314.66 107.08 306.913 128.616 286.805 128.616C278.515 128.616 276.884 125.474 274.987 125.474C273.9 125.474 272.944 126.285 272.944 127.524C272.944 132.023 281.367 145.933 298.344 145.933C323.347 145.933 330.402 113.083 337.737 90.8541C342.088 77.6376 347.512 65.0848 347.512 62.356C347.541 58.0045 341.706 52.4141 331.784 52.4141Z" fill="url(#paint0_linear)"/>
<path d="M294.316 53.8147C294.316 54.567 294.243 55.3635 294.081 56.1305C294.023 56.3813 293.964 56.632 293.89 56.8976C293.817 57.1483 293.729 57.4138 293.64 57.6793C293.537 57.9301 293.435 58.1661 293.317 58.4169C293.214 58.6381 293.096 58.8594 292.979 59.0659C292.891 59.2134 292.803 59.3609 292.7 59.5084C292.626 59.6264 292.553 59.7297 292.464 59.8477C292.303 60.0837 292.126 60.3049 291.935 60.5262C291.744 60.7475 291.538 60.9687 291.318 61.1752C291.097 61.3965 290.848 61.603 290.583 61.8095C290.377 61.9718 290.157 62.134 289.922 62.2963C289.863 62.3405 289.804 62.37 289.73 62.4143C289.495 62.5765 289.231 62.724 288.951 62.8715C288.907 62.901 288.863 62.9158 288.819 62.9453C288.555 63.0781 288.275 63.2108 287.981 63.3288C287.643 63.4763 287.29 63.6091 286.908 63.7418C286.908 63.7418 286.894 63.7566 286.879 63.7566C286.702 63.8156 286.541 63.8598 286.364 63.9188C286.159 63.9778 285.953 64.0368 285.732 64.0958C285.527 64.1549 285.321 64.1991 285.115 64.2434C284.909 64.2876 284.689 64.3319 284.468 64.3761C283.836 64.4941 283.16 64.5826 282.44 64.6416C282.072 64.6859 281.705 64.7154 281.293 64.7301H281.22C280.867 64.7596 280.47 64.7596 280.088 64.7596C280.029 64.7596 279.97 64.7891 279.941 64.8334C279.853 65.0251 279.75 65.2316 279.662 65.4529C279.133 66.5887 278.559 67.8425 278.001 69.1553C277.751 69.7158 277.501 70.2911 277.266 70.8811C277.031 71.4269 276.781 72.0022 276.546 72.5774C275.781 74.3475 275.017 76.1618 274.282 77.9467C274.164 78.2417 274.047 78.5219 273.929 78.8169C273.841 79.0529 273.738 79.2742 273.65 79.5102C272.224 83.0061 269.931 89.6881 268.505 94.1281C268.505 94.1428 268.491 94.1723 268.476 94.1871C268.417 94.2608 268.373 94.3641 268.329 94.4673C268.329 94.4821 268.314 94.4821 268.314 94.4968C267.3 98.4205 263.743 101.326 259.51 101.326C258.922 101.326 258.334 101.267 257.775 101.164C257.187 101.046 256.614 100.869 256.07 100.648C255.526 100.427 255.027 100.161 254.541 99.8365C252.116 98.2435 250.485 95.4999 250.426 92.3875C250.426 92.3285 250.426 92.2695 250.426 92.1957V92.181C250.426 91.4729 250.529 90.7797 250.72 90.1011C250.926 89.3931 251.175 88.6851 251.44 87.9918C251.793 87.1068 252.175 86.2217 252.572 85.3662C253.586 83.1979 254.527 81 255.409 78.7579C255.467 78.5957 255.526 78.4482 255.6 78.2859C256.555 75.8816 257.452 73.6837 258.157 71.9727C258.701 70.6746 259.201 69.4356 259.642 68.3145C259.657 68.285 259.657 68.2703 259.671 68.2555C260.509 66.0724 260.421 65.6742 260.406 64.8186C260.406 64.7006 260.318 64.6121 260.201 64.6121C258.775 64.6121 256.291 64.5236 256.291 62.8273C256.291 61.1752 258.628 55.806 260.406 54.1539C260.759 53.8442 261.127 53.5934 261.523 53.4164C261.67 53.3427 261.817 53.2689 261.964 53.2247H261.979C262.082 53.1804 262.185 53.1509 262.288 53.1214C263.184 52.8559 264.14 52.7969 265.198 52.7969C265.286 52.7969 265.36 52.7526 265.389 52.6641C265.404 52.6346 265.419 52.6051 265.419 52.5904C268.946 43.8728 272.048 36.2762 272.048 32.8541C272.048 31.615 273.282 30.6562 275.869 30.6562C281.631 30.6562 289.172 36.704 289.172 40.6867C289.172 42.5747 287.173 46.7491 284.895 52.5019C284.836 52.6346 284.939 52.7969 285.086 52.7969C285.335 52.7969 285.571 52.7969 285.806 52.7821C286.129 52.7821 286.423 52.7821 286.732 52.7674C286.894 52.7674 287.041 52.7674 287.188 52.7526H287.202C287.408 52.7526 287.599 52.7526 287.79 52.7379C288.319 52.7084 288.79 52.6789 289.201 52.6641C290.877 52.5166 291.7 52.3396 292.464 52.2806C292.553 52.2659 292.641 52.2659 292.729 52.2659C292.744 52.2659 292.744 52.2659 292.758 52.2659C292.847 52.2511 292.935 52.2511 293.008 52.2511C293.905 52.3101 294.316 52.8559 294.316 53.8147Z" fill="url(#paint1_linear)"/>
<path d="M278.78 95.7223C278.266 94.616 277.075 94.2767 276.09 94.734C275.811 94.8667 275.605 95.1912 275.414 95.6485C273.474 103.245 266.595 108.865 258.407 108.865C257.261 108.865 256.144 108.747 255.056 108.541C253.91 108.319 252.807 107.98 251.749 107.552C250.72 107.124 249.72 106.608 248.794 105.989C244.003 102.847 240.842 97.4186 240.842 91.2381V91.2086C240.842 89.8515 241.048 88.4945 241.416 87.1964C241.813 85.8246 242.283 84.4676 242.797 83.1252C244.826 77.8888 247.589 72.9473 249.441 68.4336C249.471 68.3746 249.485 68.3304 249.515 68.2714C250.647 65.4688 251.411 62.8284 251.411 60.3946C251.411 60.0995 251.396 59.8045 251.367 59.5095C251.367 59.362 251.352 59.2145 251.323 59.067C251.308 58.8162 251.264 58.5655 251.22 58.3295C251.176 58.0787 251.132 57.8427 251.058 57.6067C251.043 57.5034 250.999 57.4149 250.97 57.3117C250.911 57.0904 250.838 56.8692 250.749 56.6627C250.647 56.3971 250.514 56.1316 250.382 55.8661C250.308 55.7334 250.25 55.6154 250.161 55.4826C250.103 55.3941 250.044 55.3056 249.985 55.2171C249.882 55.0696 249.779 54.9221 249.676 54.7893C249.618 54.7156 249.559 54.6271 249.485 54.5533C249.353 54.3911 249.191 54.2141 249.03 54.0666C248.853 53.8895 248.677 53.7273 248.471 53.565C248.295 53.4175 248.104 53.27 247.898 53.1373L247.883 53.1225C247.78 53.0488 247.663 52.975 247.56 52.916C247.545 52.9013 247.516 52.8865 247.501 52.8865C247.413 52.8275 247.325 52.7832 247.222 52.7242C246.766 52.4735 246.266 52.2522 245.737 52.0752C245.634 52.0457 245.531 52.0015 245.428 51.972C245.414 51.972 245.399 51.9572 245.384 51.9572C245.149 51.8835 244.899 51.8097 244.649 51.7655C244.311 51.677 243.959 51.6032 243.591 51.5589C243.444 51.5294 243.297 51.5147 243.135 51.4999C242.489 51.4114 241.768 51.3672 241.033 51.3672C228.701 51.3672 219.514 61.3976 218.971 61.3976C218.427 61.3976 217.868 51.3672 205.683 51.3672C203.066 51.3672 201.846 52.3407 201.846 53.7125V53.801C201.846 53.9338 201.846 54.0666 201.832 54.1993C201.832 54.4058 201.817 54.6271 201.802 54.8483C201.788 55.0696 201.773 55.3056 201.744 55.5416C201.729 55.6891 201.714 55.8514 201.685 56.0136C201.567 57.0167 201.361 58.0492 201.097 59.1408C200.979 59.6423 200.847 60.1586 200.7 60.6896C200.23 62.4154 199.612 64.2297 198.936 66.103C198.657 66.8996 198.348 67.7256 198.01 68.5516C197.437 70.0415 196.819 71.546 196.202 73.0506C196.011 73.5226 195.82 73.9946 195.629 74.4666C194.159 78.0363 192.689 81.5912 191.543 84.8511C191.469 85.0576 191.41 85.2493 191.337 85.4411C190.94 86.5916 190.602 87.6979 190.308 88.76C190.234 88.996 190.176 89.2467 190.117 89.4828C190.014 89.8958 189.926 90.3235 189.837 90.7366C189.749 91.1348 189.676 91.5183 189.617 91.9166C189.543 92.3591 189.485 92.7869 189.455 93.1999C189.441 93.3327 189.426 93.4802 189.426 93.5982C189.411 93.8637 189.396 94.1292 189.396 94.3947C189.396 94.6012 189.411 94.793 189.455 94.9847C189.441 95.029 189.455 95.0732 189.47 95.1027C189.499 95.2945 189.543 95.4863 189.617 95.6633C189.646 95.7518 189.676 95.8403 189.72 95.914C189.764 96.0615 189.837 96.1943 189.926 96.3123C189.999 96.445 190.073 96.563 190.176 96.6958C190.308 96.8876 190.455 97.0646 190.631 97.2416C190.763 97.4038 190.925 97.5366 191.102 97.6841C191.513 98.0234 192.013 98.3331 192.542 98.6281C192.836 98.7904 193.145 98.9379 193.483 99.0707C193.806 99.2182 194.144 99.3509 194.497 99.4689C194.541 99.4837 194.6 99.4984 194.644 99.5132C195.026 99.6459 195.423 99.7639 195.82 99.8672C196.187 99.9704 196.57 100.059 196.952 100.147C197.378 100.236 197.819 100.324 198.26 100.398C198.686 100.487 199.142 100.546 199.583 100.605C200.009 100.664 200.45 100.708 200.876 100.752C201.17 100.782 201.464 100.811 201.773 100.826C202.302 100.87 202.831 100.9 203.331 100.914C203.816 100.929 204.301 100.944 204.757 100.944C206.947 100.944 207.358 99.7049 207.358 97.6546C207.358 91.7396 212.988 79.7621 217.78 72.2245C221.749 66.0293 226.276 63.0054 228.334 63.0054C229.848 63.0054 230.524 63.979 230.524 65.2033C230.524 68.3304 226.482 74.2306 222.998 81.6944C222.675 82.3877 222.351 83.1105 222.043 83.8333C221.999 83.9218 221.969 84.0103 221.925 84.0988C213.738 103.363 227.408 124.973 248.28 125.459C248.545 125.459 248.809 125.474 249.074 125.474C262.979 125.474 274.738 116.948 278.574 105.236V105.222C278.942 104.101 279.177 102.95 279.265 101.785C279.339 100.9 279.383 99.9999 279.383 99.0854C279.368 97.7431 279.148 96.504 278.78 95.7223ZM242.562 61.6189C242.533 61.6041 242.503 61.6041 242.474 61.5894C242.503 61.6041 242.533 61.6041 242.562 61.6189ZM228.054 100.221C228.054 100.221 228.054 100.206 228.054 100.221C228.054 100.192 228.054 100.177 228.054 100.162C228.054 100.177 228.054 100.192 228.054 100.221Z" fill="url(#paint2_linear)"/>
<path d="M193.336 61.5C193.336 60.379 192.277 58.8302 190.411 57.2519C186.956 54.3755 180.724 51.4844 173.11 51.4844C160.837 51.4844 149.842 57.3551 142.463 65.6007C136.407 72.327 132.762 80.6611 132.762 88.6707V88.8624C132.835 96.4295 137.186 101.017 144.109 101.017C156.544 101.017 163.526 93.3319 165.173 93.3319C166.099 93.3319 170.097 100.294 180.019 100.958C180.518 101.002 181.062 101.017 181.591 101.017C182.958 101.017 183.649 100.338 183.649 99.3796C183.649 97.7275 182.679 97.3145 182.679 93.1991C182.664 76.3244 193.336 64.1109 193.336 61.5ZM155.045 87.8594C153.399 87.8594 152.59 86.7531 152.59 85.396C152.59 76.4719 163.673 60.6888 172.008 60.6888C173.11 60.6888 173.654 61.2345 173.654 62.4736C173.654 65.4827 162.292 87.8594 155.045 87.8594Z" fill="url(#paint3_linear)"/>
<path d="M144.653 28.8261C144.653 28.9294 144.653 29.0326 144.638 29.1506C144.623 29.2686 144.623 29.3866 144.594 29.5194C144.579 29.6521 144.565 29.7849 144.535 29.9324C144.506 30.0947 144.476 30.2717 144.432 30.4634C144.432 30.4929 144.432 30.5372 144.418 30.5667C144.374 30.7437 144.33 30.9354 144.285 31.1272C144.271 31.1715 144.271 31.2157 144.241 31.2747C144.168 31.5992 144.065 31.9385 143.962 32.322C143.271 34.6968 142.095 37.8682 140.625 41.5411C140.39 42.1164 140.14 42.7212 139.905 43.3112C139.273 44.8748 138.582 46.4973 137.877 48.1936C137.642 48.7542 137.392 49.3294 137.156 49.89C136.671 51.0405 136.172 52.2058 135.657 53.4006C135.393 53.9906 135.143 54.5954 134.893 55.1854C134.614 55.7902 134.364 56.395 134.114 56.9998C133.732 57.8553 133.364 58.7256 132.982 59.5811C132.967 59.5959 132.967 59.6106 132.967 59.6106C130.513 65.2453 127.999 71.0128 125.809 76.3525C125.471 77.1638 125.133 77.9751 124.809 78.7569C124.633 79.1847 124.457 79.6124 124.295 80.0402C124.001 80.8072 123.707 81.5595 123.413 82.2823C123.222 82.7691 123.046 83.2558 122.869 83.7131C122.605 84.3916 122.355 85.0701 122.105 85.7192C121.973 86.0879 121.84 86.442 121.723 86.8107C120.635 89.7903 119.797 92.4012 119.327 94.4663C119.283 94.6285 119.253 94.776 119.224 94.9383C119.15 95.2481 119.092 95.5283 119.047 95.8086C119.003 96.0741 118.959 96.3396 118.93 96.5904C118.901 96.7084 118.886 96.8411 118.886 96.9739C118.871 97.0034 118.871 97.0329 118.871 97.0624C118.856 97.2984 118.842 97.5197 118.842 97.7262C118.842 99.7765 118.43 101.016 116.24 101.016C109.817 101.016 100.924 99.3782 100.924 94.4368C100.924 94.3188 100.924 94.2008 100.939 94.068C100.939 93.95 100.953 93.832 100.968 93.714C100.983 93.537 101.012 93.3452 101.041 93.1387C101.071 92.9322 101.1 92.7257 101.144 92.5044C101.188 92.2832 101.233 92.0619 101.291 91.8259C101.335 91.5899 101.394 91.3391 101.468 91.0736C101.512 90.8819 101.571 90.6754 101.629 90.4541C101.776 89.9083 101.938 89.3036 102.129 88.6988C102.203 88.4628 102.276 88.212 102.364 87.9613C102.849 86.3829 103.467 84.6424 104.172 82.7543C104.305 82.3855 104.452 82.0168 104.584 81.6185C105.084 80.291 105.627 78.9044 106.201 77.4736C106.436 76.8983 106.671 76.3083 106.906 75.7183C106.95 75.5855 107.009 75.438 107.068 75.3053C107.597 73.9777 108.17 72.6354 108.729 71.2341C109.082 70.349 109.449 69.464 109.846 68.5642L121.635 40.1693C121.855 39.6088 122.075 39.0483 122.281 38.5025C122.311 38.473 122.325 38.4435 122.325 38.3992C122.59 37.7355 122.84 37.0569 123.09 36.4079C123.354 35.7294 123.604 35.0509 123.839 34.3871C123.957 34.0773 124.075 33.7676 124.177 33.4578C124.324 33.0595 124.457 32.676 124.589 32.2925C125.471 29.7701 126.206 27.5133 126.691 25.6105C126.794 25.2122 126.882 24.8434 126.97 24.4599C126.97 24.4599 126.97 24.4452 126.97 24.4304C127.058 24.0617 127.132 23.7224 127.191 23.3684C127.22 23.1766 127.249 22.9996 127.279 22.8226C127.382 22.2031 127.426 21.6426 127.426 21.1705C127.426 19.7987 128.661 18.8399 131.248 18.8399C136.995 18.8104 144.653 24.991 144.653 28.8261Z" fill="url(#paint4_linear)"/>
<path d="M112.918 38.5781C112.918 39.2418 112.889 39.9056 112.83 40.5546C112.801 40.9234 112.771 41.3069 112.727 41.6904C112.654 42.4427 112.536 43.1802 112.374 43.903C112.345 44.0653 112.315 44.198 112.286 44.3455C112.271 44.4193 112.257 44.493 112.242 44.552C112.169 44.8766 112.08 45.2158 111.992 45.5256C111.757 46.4254 111.463 47.3252 111.14 48.1807C111.022 48.4905 110.904 48.8002 110.757 49.0952C110.669 49.3312 110.566 49.5672 110.449 49.8033C110.39 49.936 110.331 50.0835 110.258 50.2163C110.14 50.467 110.022 50.703 109.89 50.9538C108.714 53.2402 107.23 55.379 105.451 57.2966C105.245 57.5326 105.025 57.7538 104.804 57.9751C104.202 58.6241 103.54 59.2436 102.849 59.8042C102.335 60.2762 101.762 60.7187 101.203 61.1317C101.056 61.2645 100.895 61.3825 100.718 61.4857C100.439 61.6922 100.145 61.8988 99.8362 62.0905C99.7039 62.1643 99.5716 62.2528 99.454 62.3413C99.0131 62.6215 98.5721 62.887 98.1017 63.1378C97.94 63.2411 97.7637 63.3296 97.602 63.4181C97.161 63.6688 96.72 63.8901 96.2497 64.0966C95.941 64.2589 95.6176 64.4064 95.2943 64.5391C94.8974 64.7161 94.4858 64.8784 94.0595 65.0406C93.942 65.0996 93.8244 65.1439 93.7068 65.1734C93.1923 65.3799 92.6779 65.5569 92.134 65.7192C91.8988 65.7929 91.6783 65.8667 91.4432 65.9257C91.2227 65.9994 90.9875 66.0584 90.767 66.1174C90.5171 66.1912 90.2525 66.2502 90.0027 66.3092C89.2236 66.5009 88.4005 66.6632 87.5921 66.7812C87.1511 66.855 86.7101 66.914 86.2398 66.9582C85.9899 67.0025 85.7547 67.0172 85.5195 67.0467C84.52 67.1352 83.5058 67.1795 82.4769 67.1795C73.3048 67.1795 66.6168 61.6922 66.6168 58.1079C66.6168 57.2966 67.293 56.6033 67.9838 56.6033C68.9539 56.6033 70.8501 57.9751 73.9956 57.9751C83.447 57.9751 93.4275 48.0922 93.4275 33.4006C93.4275 23.1194 86.2986 18.8712 80.2867 18.8712C78.3759 18.8712 77.0089 20.9216 75.0833 25.45C65.6467 47.0006 54.5638 71.9734 49.2428 98.1852C48.6989 100.649 48.1404 102.168 45.9503 102.168C39.5269 102.168 28.8555 100.516 28.8555 95.5744C28.8555 89.2759 45.9503 41.7789 54.1522 26.8218C57.577 20.6561 60.8549 19.004 61.2811 18.7237C48.1404 20.5086 30.9133 27.9281 30.9133 42.605C30.9133 51.2488 34.3382 53.1664 34.3382 54.6857C34.3382 55.497 33.6473 56.0575 32.148 56.0575C25.5924 56.0575 12.04 49.6115 12.04 36.985C12.04 18.591 34.8967 9.12109 67.8515 9.12109C69.3655 9.12109 70.8795 9.1506 72.3641 9.22435C72.5404 9.22435 72.7021 9.2391 72.8638 9.25385C73.3342 9.2686 73.8339 9.2981 74.3043 9.3276C75.4508 9.3866 76.5826 9.48986 77.7144 9.60786C78.273 9.66687 78.8463 9.72587 79.4048 9.79962C79.6694 9.82912 79.9487 9.85862 80.2279 9.90288C80.5072 9.94713 80.7718 9.97663 81.0511 10.0209C81.5655 10.0799 82.1094 10.1684 82.6385 10.2569C83.447 10.3896 84.2554 10.5372 85.0492 10.6994C85.7253 10.8322 86.4161 10.9797 87.0776 11.1419C87.4451 11.2157 87.8125 11.3042 88.18 11.4074C88.5475 11.4959 88.915 11.5992 89.2824 11.7024C90.1497 11.9237 91.0169 12.1892 91.8547 12.4695C92.1928 12.5727 92.5456 12.6907 92.8836 12.8235C93.1482 12.8972 93.3981 13.0005 93.6627 13.1038C93.9273 13.1923 94.1771 13.2955 94.4417 13.3988C95.0297 13.62 95.6323 13.8708 96.2056 14.1363C96.7935 14.3871 97.3668 14.6526 97.9253 14.9476C98.1752 15.0508 98.4251 15.1836 98.675 15.3311C98.9543 15.4786 99.2335 15.6409 99.5128 15.7884C99.7186 15.8916 99.9097 16.0096 100.115 16.1424C100.395 16.3046 100.674 16.4669 100.953 16.6439C101.556 17.0274 102.173 17.4404 102.747 17.883C103.055 18.1042 103.349 18.3402 103.628 18.5615C103.82 18.709 104.011 18.8565 104.187 19.0187C104.804 19.535 105.407 20.0955 105.966 20.6561C106.318 21.0101 106.656 21.3788 106.98 21.7624C107.318 22.1311 107.641 22.5294 107.965 22.9572C108.273 23.3554 108.567 23.7684 108.847 24.1962C109.096 24.565 109.332 24.9337 109.552 25.332C109.596 25.4058 109.64 25.4943 109.684 25.568C109.876 25.8925 110.052 26.2318 110.228 26.5711C110.302 26.7481 110.39 26.9103 110.478 27.0873C110.89 27.9429 111.257 28.8574 111.581 29.8014C111.654 30.0079 111.728 30.2145 111.786 30.4357C111.875 30.7012 111.948 30.9962 112.022 31.2618C112.124 31.6305 112.213 31.9993 112.286 32.3975C112.33 32.5893 112.374 32.7958 112.404 32.9876C112.565 33.8284 112.698 34.7281 112.771 35.6279C112.815 36.0409 112.845 36.454 112.859 36.8965C112.903 37.5455 112.918 38.0618 112.918 38.5781Z" fill="url(#paint5_linear)"/>
</g>
</g>
<defs>
<linearGradient id="paint0_linear" x1="310.25" y1="52.421" x2="310.25" y2="145.942" gradientUnits="userSpaceOnUse">
<stop offset="0.0966564" stop-color="#EDEE00"/>
<stop offset="0.1873" stop-color="#E7ED03"/>
<stop offset="0.3048" stop-color="#D7E90D"/>
<stop offset="0.437" stop-color="#BCE31D"/>
<stop offset="0.5799" stop-color="#97DA33"/>
<stop offset="0.7316" stop-color="#67CF50"/>
<stop offset="0.8881" stop-color="#2EC272"/>
<stop offset="1" stop-color="#00B78D"/>
</linearGradient>
<linearGradient id="paint1_linear" x1="272.337" y1="30.7176" x2="272.337" y2="101.378" gradientUnits="userSpaceOnUse">
<stop offset="0.0966564" stop-color="#EDEE00"/>
<stop offset="0.2542" stop-color="#E8ED02"/>
<stop offset="0.4307" stop-color="#DBEA08"/>
<stop offset="0.6164" stop-color="#C4E513"/>
<stop offset="0.8081" stop-color="#A5DE21"/>
<stop offset="1" stop-color="#7ED633"/>
</linearGradient>
<linearGradient id="paint2_linear" x1="234.342" y1="51.344" x2="234.342" y2="125.517" gradientUnits="userSpaceOnUse">
<stop offset="0.0966564" stop-color="#EDEE00"/>
<stop offset="0.1873" stop-color="#E7ED03"/>
<stop offset="0.3048" stop-color="#D7E90D"/>
<stop offset="0.437" stop-color="#BCE31D"/>
<stop offset="0.5799" stop-color="#97DA33"/>
<stop offset="0.7316" stop-color="#67CF50"/>
<stop offset="0.8881" stop-color="#2EC272"/>
<stop offset="1" stop-color="#00B78D"/>
</linearGradient>
<linearGradient id="paint3_linear" x1="163.043" y1="51.4838" x2="163.043" y2="101.023" gradientUnits="userSpaceOnUse">
<stop offset="0.0966564" stop-color="#EDEE00"/>
<stop offset="0.1873" stop-color="#E7ED03"/>
<stop offset="0.3048" stop-color="#D7E90D"/>
<stop offset="0.437" stop-color="#BCE31D"/>
<stop offset="0.5799" stop-color="#97DA33"/>
<stop offset="0.7316" stop-color="#67CF50"/>
<stop offset="0.8881" stop-color="#2EC272"/>
<stop offset="1" stop-color="#00B78D"/>
</linearGradient>
<linearGradient id="paint4_linear" x1="122.765" y1="18.8134" x2="122.765" y2="101.021" gradientUnits="userSpaceOnUse">
<stop offset="0.0966564" stop-color="#EDEE00"/>
<stop offset="0.1873" stop-color="#E7ED03"/>
<stop offset="0.3048" stop-color="#D7E90D"/>
<stop offset="0.437" stop-color="#BCE31D"/>
<stop offset="0.5799" stop-color="#97DA33"/>
<stop offset="0.7316" stop-color="#67CF50"/>
<stop offset="0.8881" stop-color="#2EC272"/>
<stop offset="1" stop-color="#00B78D"/>
</linearGradient>
<linearGradient id="paint5_linear" x1="62.4546" y1="9.21367" x2="62.4546" y2="102.272" gradientUnits="userSpaceOnUse">
<stop offset="0.0966564" stop-color="#EDEE00"/>
<stop offset="0.1873" stop-color="#E7ED03"/>
<stop offset="0.3048" stop-color="#D7E90D"/>
<stop offset="0.437" stop-color="#BCE31D"/>
<stop offset="0.5799" stop-color="#97DA33"/>
<stop offset="0.7316" stop-color="#67CF50"/>
<stop offset="0.8881" stop-color="#2EC272"/>
<stop offset="1" stop-color="#00B78D"/>
</linearGradient>
<clipPath id="clip0">
<rect width="359.24" height="157.433" fill="white" transform="translate(0.854492 0.609375)"/>
</clipPath>
</defs>
</svg>
