<svg width="361" height="156" viewBox="0 0 361 156" fill="none" xmlns="http://www.w3.org/2000/svg">
<g clip-path="url(#clip0)">
<path d="M171.985 59.5594C163.611 59.5594 152.475 75.1945 152.475 84.0349C152.475 85.3938 153.288 86.4751 154.942 86.4751C162.223 86.4751 173.64 64.3084 173.64 61.3275C173.64 60.1 173.078 59.5594 171.985 59.5594ZM171.985 59.5594C163.611 59.5594 152.475 75.1945 152.475 84.0349C152.475 85.3938 153.288 86.4751 154.942 86.4751C162.223 86.4751 173.64 64.3084 173.64 61.3275C173.64 60.1 173.078 59.5594 171.985 59.5594ZM171.985 59.5594C163.611 59.5594 152.475 75.1945 152.475 84.0349C152.475 85.3938 153.288 86.4751 154.942 86.4751C162.223 86.4751 173.64 64.3084 173.64 61.3275C173.64 60.1 173.078 59.5594 171.985 59.5594ZM171.985 59.5594C163.611 59.5594 152.475 75.1945 152.475 84.0349C152.475 85.3938 153.288 86.4751 154.942 86.4751C162.223 86.4751 173.64 64.3084 173.64 61.3275C173.64 60.1 173.078 59.5594 171.985 59.5594ZM171.985 59.5594C163.611 59.5594 152.475 75.1945 152.475 84.0349C152.475 85.3938 153.288 86.4751 154.942 86.4751C162.223 86.4751 173.64 64.3084 173.64 61.3275C173.64 60.1 173.078 59.5594 171.985 59.5594ZM171.985 59.5594C163.611 59.5594 152.475 75.1945 152.475 84.0349C152.475 85.3938 153.288 86.4751 154.942 86.4751C162.223 86.4751 173.64 64.3084 173.64 61.3275C173.64 60.1 173.078 59.5594 171.985 59.5594ZM358.371 53.32C356.924 51.0112 354.959 48.9655 352.537 47.2413C347.722 43.822 341.608 42.0101 334.844 42.0101C331.521 42.0101 328.419 43.1791 326.086 45.2979C324.757 46.4961 323.708 47.9573 323.029 49.6085C322.763 49.3455 322.497 49.0824 322.231 48.834C318.199 45.0787 313.118 42.7115 307.861 42.1416C307.048 42.0393 306.236 41.9955 305.424 41.9955C303.681 41.9809 301.953 42.2293 300.299 42.7553C300.343 42.3024 300.373 41.8494 300.373 41.3818C300.373 38.3132 299.324 35.2885 297.242 32.3953C295.735 30.3496 293.948 28.5377 291.91 27.018C289.872 25.4691 287.642 24.1832 285.279 23.2042C282.428 22.0352 279.608 21.4507 276.875 21.4507C273.715 21.4507 270.938 22.1667 268.634 23.5987C265.134 25.7613 263.037 29.4144 262.963 33.3889C262.918 33.7396 262.653 35.0693 261.353 38.5909C260.674 40.432 259.861 42.5069 258.96 44.728C258.606 44.8741 258.281 45.0202 258.015 45.1517C257.188 45.5317 256.405 45.9993 255.667 46.5399L255.578 46.4668C255.224 46.1746 254.855 45.9116 254.5 45.6632C254.234 45.4732 253.968 45.2979 253.673 45.1225C253.466 44.991 253.26 44.8741 253.053 44.7572L252.949 44.6988C252.905 44.6695 252.846 44.6403 252.802 44.6257C251.797 44.0704 250.749 43.6175 249.656 43.2668L249.582 43.2375L249.42 43.1791C249.228 43.1206 249.05 43.0622 248.858 43.0037C248.504 42.9015 248.076 42.7846 247.588 42.6823C246.997 42.5362 246.407 42.4339 245.845 42.3462C245.491 42.2878 245.196 42.2585 244.974 42.2293C243.896 42.0978 242.803 42.0393 241.71 42.0393C233.853 42.0393 227.118 44.7864 222.141 47.7089C218.995 44.9033 213.856 42.0393 205.954 42.0393C202.705 42.0393 199.884 42.7992 197.551 44.2896C196.059 45.2394 194.804 46.5107 193.858 48.0011C191.643 46.613 189.28 45.4732 186.814 44.5819C182.398 42.9891 177.731 42.1709 173.034 42.1709C165.546 42.1709 158.25 43.822 151.338 47.0952C150.349 47.5628 149.359 48.0742 148.384 48.6148C148.503 48.3226 148.635 48.0304 148.754 47.7381L148.783 47.6651C148.901 47.3436 149.049 47.0075 149.197 46.6568C149.285 46.4376 149.389 46.2184 149.477 45.9993C149.492 45.97 149.492 45.9408 149.507 45.9116C151.264 41.5571 152.446 38.3571 153.184 35.8292C153.199 35.7853 153.214 35.7415 153.214 35.6976C153.229 35.61 153.258 35.5369 153.273 35.4638C153.347 35.2301 153.421 34.967 153.495 34.6602C153.539 34.5141 153.583 34.3533 153.613 34.2072C153.627 34.1634 153.627 34.1341 153.642 34.0903L153.672 33.988C153.687 33.9296 153.701 33.8857 153.701 33.8419C153.79 33.4912 153.879 33.1405 153.923 32.7898C153.952 32.6437 153.967 32.5268 153.997 32.4245C154.056 32.103 154.1 31.8254 154.13 31.6062C154.174 31.2994 154.203 31.051 154.218 30.8464C154.263 30.408 154.292 29.955 154.277 29.5167C154.277 22.6928 148.931 17.6077 145.741 15.1967C143.703 13.6478 141.473 12.3619 139.109 11.3683C136.229 10.1847 133.394 9.571 130.662 9.571C122.332 9.571 117.62 14.7145 116.852 20.2379C116.69 19.9749 116.513 19.7119 116.321 19.4342C115.907 18.8351 115.508 18.2799 115.095 17.7538C114.593 17.0963 114.076 16.4972 113.603 15.9712C113.131 15.4305 112.673 14.9483 112.2 14.4953C111.432 13.7355 110.649 13.0341 109.867 12.3765C109.483 12.0405 109.143 11.7774 108.907 11.6021L108.892 11.5875C108.597 11.3683 108.213 11.0468 107.755 10.7254C107.002 10.1701 106.204 9.62945 105.392 9.11802C105.022 8.88423 104.698 8.70888 104.373 8.51892C104.048 8.32896 103.649 8.08055 103.176 7.84676L102.97 7.72986C102.851 7.6568 102.718 7.59835 102.571 7.51068C102.128 7.26227 101.699 7.04309 101.271 6.83852C100.621 6.50244 99.9567 6.19558 99.2625 5.90334C98.4945 5.55264 97.7413 5.24579 97.0029 4.96815L96.8995 4.92432C96.6779 4.83664 96.4121 4.73436 96.0724 4.61746C95.8213 4.51517 95.4669 4.39828 95.0681 4.25215C94.6841 4.10603 94.2706 3.97452 93.8275 3.84301C92.7051 3.47771 91.7303 3.18546 90.8146 2.95167C90.3863 2.83477 90.0023 2.71787 89.6183 2.6302C89.131 2.49869 88.6436 2.38179 88.1267 2.27951C87.3882 2.10416 86.6202 1.92881 85.8522 1.78269C84.9218 1.59273 84.0209 1.432 83.0904 1.28587C82.5144 1.1982 81.8793 1.0813 81.1852 1.00824L80.8012 0.935182L80.5944 0.905957C80.1218 0.832896 79.7083 0.78906 79.3834 0.745223C78.7483 0.65755 78.1575 0.599101 77.5372 0.540652C76.0308 0.379918 74.7902 0.277632 73.6087 0.219183C73.1656 0.189959 72.6782 0.160734 72.1908 0.146122C71.9841 0.13151 71.7035 0.116898 71.3933 0.102286C69.8573 0.0292244 68.2623 0 66.5048 0C57.5842 0 49.3136 0.642938 41.9143 1.9142C34.1014 3.24391 27.2338 5.28962 21.4887 7.97827C14.9755 11.0176 9.83588 14.9191 6.21746 19.595C2.1412 24.7823 -0.0446232 31.1825 -0.000316023 37.7434C-0.000316023 46.4084 4.13502 54.2698 11.6672 59.9101C15.8469 63.0371 20.8979 65.2874 25.6535 66.2226C23.5563 72.0236 21.6954 77.4886 20.2924 81.9599C17.3976 91.1218 17.0136 94.2196 17.0136 96.1776C17.0136 100.459 19.037 104.36 22.7145 107.166C24.7674 108.729 27.2929 109.942 30.4092 110.848C36.11 112.514 42.0472 112.704 44.3364 112.704C46.345 112.719 48.324 112.28 50.1259 111.418C52.0163 110.498 53.6557 109.124 54.852 107.4C56.3436 105.281 56.9935 103.045 57.4661 100.956C57.4809 100.897 57.4956 100.839 57.5104 100.78C59.4156 91.5455 62.1036 82.4421 65.1903 73.5579C69.8721 76.305 75.5434 77.8101 81.2886 77.8101C82.6326 77.8101 83.9618 77.7516 85.2615 77.6347C85.3648 77.6201 85.483 77.6201 85.5864 77.6055H85.6602C85.8375 77.5909 86.0885 77.5616 86.3839 77.5178C86.9304 77.4594 87.4621 77.3863 88.0233 77.2986C89.0866 77.1379 90.1648 76.9333 91.2577 76.6703L91.3316 76.6557C91.5974 76.5972 91.9519 76.5096 92.3654 76.3927H92.3949C92.6017 76.3342 92.8675 76.2612 93.1924 76.1735C93.5174 76.0858 93.7832 75.9981 93.9752 75.9397L94.0638 75.9105C94.5807 75.7497 95.0829 75.589 95.5555 75.4136C95.1272 76.4949 94.7137 77.547 94.3001 78.6137C94.2558 78.7014 94.2263 78.8183 94.1967 78.906C94.1672 78.9936 94.1081 79.1398 94.049 79.3005C93.99 79.4612 93.9161 79.6366 93.8423 79.8411C93.0743 81.843 92.4245 83.7134 91.8928 85.3646C91.7894 85.6422 91.7155 85.8906 91.6565 86.0806C91.6417 86.1244 91.6269 86.1682 91.6122 86.1975C91.3611 86.9719 91.1691 87.7025 90.9771 88.3601V88.3747L90.9475 88.5062C90.9032 88.6523 90.8442 88.8569 90.7851 89.0907C90.6817 89.456 90.5931 89.8213 90.5192 90.1866C90.4454 90.5081 90.3863 90.7857 90.342 91.0049V91.0341V91.0633C90.2534 91.5309 90.1943 91.9255 90.15 92.1885L90.1352 92.3054C90.1057 92.5099 90.0614 92.7876 90.0319 93.1383C90.0023 93.3428 89.9728 93.6351 89.958 94.0004C89.9285 94.4388 89.9285 94.7748 89.9285 94.9648C89.9285 98.9393 91.6269 102.665 94.7284 105.442C96.6484 107.166 99.1148 108.525 102.054 109.519C107.134 111.228 112.643 111.477 115.464 111.477C117.266 111.491 119.068 111.155 120.737 110.468C122.863 109.577 124.68 108.101 125.965 106.216C126.423 105.544 126.807 104.828 127.117 104.083C127.412 104.448 127.723 104.784 128.047 105.135C130.071 107.254 132.537 108.905 135.27 109.972C137.957 111.009 140.823 111.52 143.703 111.506C149.034 111.506 154.307 110.454 159.225 108.393C160.85 107.707 162.445 106.932 163.981 106.07C167.422 108.481 172.443 110.951 179.252 111.418C179.975 111.477 180.758 111.506 181.615 111.506C184.657 111.506 187.419 110.556 189.605 108.744C189.62 108.759 189.634 108.759 189.649 108.759C190.196 108.993 190.757 109.212 191.348 109.416L191.377 109.431C191.51 109.475 191.628 109.519 191.732 109.548C192.278 109.738 192.795 109.884 193.356 110.03C193.917 110.191 194.42 110.308 194.848 110.395L195.055 110.439C195.527 110.527 196.029 110.629 196.591 110.731C197.285 110.863 197.905 110.951 198.407 111.009C198.983 111.082 199.5 111.141 199.958 111.184H200.061C200.386 111.214 200.8 111.257 201.272 111.287C201.967 111.345 202.602 111.374 203.237 111.389C203.754 111.404 204.344 111.418 204.979 111.418C206.796 111.433 208.583 111.082 210.267 110.395C210.917 110.118 211.537 109.796 212.113 109.416C215.259 118.33 221.521 125.84 229.762 130.619C232.583 132.241 235.596 133.497 238.727 134.389C241.991 135.309 245.358 135.806 248.755 135.879C249.095 135.894 249.449 135.894 249.789 135.894C254.22 135.894 258.621 135.236 262.859 133.921C263.834 133.614 264.809 133.278 265.754 132.913C266.256 134.359 266.891 135.777 267.645 137.121C269.432 140.307 271.706 143.2 274.394 145.698C277.614 148.738 281.35 151.178 285.441 152.931C290.286 154.977 295.499 156.029 300.772 156C308.186 156 314.965 153.94 320.946 149.848C325.909 146.458 330.206 141.797 334.076 135.616C340.471 125.373 344.473 112.733 348.003 101.584C348.874 98.837 349.687 96.2507 350.514 93.8104V93.7958C352.36 88.2724 354.383 82.9097 356.17 78.1607C359.759 68.6628 361 65.2143 361 62.0142C360.97 59.0187 360.069 56.0232 358.371 53.32ZM252.876 84.0641C253.895 81.9161 254.84 79.7243 255.726 77.5178C255.785 77.3571 255.844 77.2109 255.918 77.0502C256.878 74.6684 257.764 72.4912 258.488 70.7962C259.034 69.5103 259.536 68.2829 259.979 67.1724C259.979 67.1431 259.994 67.1285 260.009 67.1139C260.851 64.9513 260.762 64.5568 260.747 63.7093C260.747 63.5924 260.659 63.5047 260.541 63.5047C259.108 63.5047 256.612 63.417 256.612 61.7366C256.612 60.1 258.96 54.7958 260.747 53.1446C261.087 52.8378 261.456 52.5894 261.87 52.414C262.018 52.341 262.165 52.2679 262.313 52.2241H262.328C262.431 52.1802 262.534 52.151 262.638 52.1218C263.539 51.8588 264.499 51.8003 265.562 51.8003C265.651 51.8003 265.725 51.7565 265.754 51.6688C265.769 51.6396 265.784 51.6103 265.784 51.5957C269.328 42.9599 272.459 35.4346 272.459 32.0446C272.459 30.8172 273.7 29.8674 276.299 29.8674C282.089 29.8674 289.665 35.8584 289.665 39.8037C289.665 41.674 287.657 45.8093 285.367 51.5081C285.323 51.6103 285.367 51.7419 285.471 51.7857C285.5 51.8003 285.53 51.8003 285.559 51.8003C285.811 51.8003 286.047 51.8003 286.283 51.7857C286.608 51.7857 286.903 51.7857 287.214 51.7711C287.376 51.7711 287.524 51.7711 287.671 51.7565H287.686C287.893 51.7565 288.085 51.7565 288.277 51.7419C288.809 51.7126 289.281 51.6834 289.695 51.6688C291.378 51.5227 292.206 51.3473 292.974 51.2889C293.062 51.2743 293.151 51.2743 293.239 51.2743H293.269C293.358 51.2597 293.446 51.2597 293.52 51.2597C294.48 51.2597 294.893 51.8149 294.893 52.7501C294.893 53.5245 294.82 54.299 294.657 55.0588C294.598 55.3072 294.539 55.5556 294.465 55.8187C294.391 56.0817 294.303 56.3301 294.214 56.5785C294.126 56.8269 294.007 57.0607 293.889 57.3091C293.786 57.5283 293.668 57.7475 293.549 57.952C293.461 58.0982 293.372 58.2443 293.269 58.3904C293.195 58.5073 293.121 58.6096 293.033 58.7265C292.87 58.9603 292.693 59.1941 292.501 59.4133C292.309 59.6471 292.087 59.8516 291.881 60.0562C291.644 60.2754 291.408 60.4946 291.142 60.6845C290.935 60.8453 290.714 61.006 290.478 61.1667C290.418 61.2106 290.359 61.2398 290.286 61.2836C290.049 61.4444 289.783 61.5905 289.518 61.7366C289.473 61.7658 289.429 61.7804 289.385 61.8097C289.119 61.9412 288.838 62.0727 288.543 62.1896C288.203 62.3357 287.849 62.4672 287.465 62.5987C287.465 62.6133 287.45 62.6133 287.435 62.6133C287.258 62.6718 287.095 62.7156 286.918 62.7595C286.711 62.8179 286.505 62.8764 286.283 62.9348C286.062 62.9933 285.87 63.0371 285.663 63.0809C285.456 63.1248 285.235 63.1686 285.013 63.2124C284.334 63.3293 283.654 63.4316 282.975 63.4755C282.606 63.5193 282.222 63.5485 281.823 63.5631H281.749C281.395 63.5924 280.996 63.5924 280.612 63.5924C280.553 63.5924 280.508 63.6216 280.464 63.6654C280.376 63.87 280.272 64.0746 280.184 64.2791C279.652 65.4043 279.076 66.6463 278.515 67.9468C278.264 68.5021 278.012 69.0719 277.761 69.6564C277.525 70.1971 277.274 70.767 277.038 71.3368C276.27 73.0903 275.502 74.873 274.763 76.6557C274.645 76.9479 274.527 77.2256 274.409 77.5178C274.305 77.7516 274.217 77.9708 274.128 78.2046C272.696 81.6677 270.392 88.287 268.959 92.6853C268.959 92.6999 268.944 92.7291 268.93 92.7437C268.87 92.8314 268.826 92.9191 268.782 93.0214C268.782 93.036 268.767 93.036 268.767 93.0506C267.556 97.668 262.918 100.561 258.178 99.6553C257.587 99.5384 257.011 99.3777 256.464 99.1439C255.933 98.9247 255.416 98.6617 254.928 98.3402C252.403 96.7036 250.852 93.9419 250.793 90.961V90.7565C250.793 90.0551 250.896 89.3683 251.088 88.6962C251.295 87.9948 251.532 87.2934 251.812 86.6066C252.078 85.7883 252.477 84.9116 252.876 84.0641ZM99.4398 60.9768C99.3068 61.0498 99.1739 61.1375 99.0558 61.2252C98.6127 61.5028 98.1696 61.7658 97.697 62.0142C97.5346 62.1165 97.3573 62.2042 97.1949 62.2919C96.7518 62.5403 96.3087 62.7595 95.8361 62.964C95.526 63.1248 95.201 63.2709 94.8761 63.4024C94.4774 63.5778 94.049 63.7385 93.6355 63.8992C93.5174 63.9577 93.3992 64.0015 93.2811 64.0307C92.7641 64.2353 92.2472 64.4106 91.7008 64.5714C91.4645 64.6444 91.2429 64.7175 91.0066 64.7759C90.7703 64.8344 90.5488 64.9075 90.3272 64.9659C90.0762 65.039 89.8103 65.0974 89.5593 65.1559C88.7765 65.3458 87.9494 65.5066 87.1371 65.6235C86.6941 65.6965 86.2362 65.755 85.7784 65.7988C85.5273 65.8426 85.291 65.8573 85.0547 65.8865C84.0504 65.9742 83.0313 66.018 81.9975 66.018C72.7816 66.0326 66.0469 60.5969 66.0469 57.0607C66.0469 56.257 66.7263 55.5703 67.4204 55.5703C68.3952 55.5703 70.3004 56.9292 73.461 56.9292C82.9575 56.9292 92.9857 47.139 92.9857 32.5852C92.9857 22.4005 85.8227 18.1922 79.7821 18.1922C77.8622 18.1922 76.4886 20.2233 74.5539 24.7093C65.0869 46.0577 53.9511 70.7962 48.5899 96.7621C48.0434 99.2023 47.4822 100.707 45.2816 100.707C38.8275 100.707 28.1052 99.0708 28.1052 94.1757C28.1052 87.9363 45.2816 40.885 53.5228 26.0682C56.9639 19.9603 60.2722 18.3237 60.6857 18.0461C47.4822 19.8142 30.1729 27.1641 30.1729 41.7033C30.1729 50.266 33.6141 52.1656 33.6141 53.6707C33.6141 54.4743 32.9199 55.0296 31.4135 55.0296C24.8265 55.0296 11.2094 48.6441 11.2094 36.136C11.2094 17.9146 34.1753 8.53353 67.2875 8.53353C68.8087 8.53353 70.3299 8.56276 71.8216 8.63582C71.9841 8.63582 72.1613 8.65043 72.3238 8.66504C72.7964 8.67966 73.2838 8.70888 73.7711 8.7381C74.9231 8.79655 76.0603 8.89884 77.1976 9.01574C77.7588 9.07419 78.3348 9.13264 78.896 9.2057C79.1618 9.23492 79.4425 9.26414 79.7378 9.30798C80.0184 9.35182 80.2843 9.38104 80.5649 9.42488C81.0818 9.48333 81.6283 9.571 82.16 9.65867C82.9723 9.79018 83.7846 9.93631 84.5821 10.097C85.2615 10.2286 85.9556 10.3747 86.6202 10.5354C86.9894 10.6085 87.3587 10.6961 87.7279 10.7984C88.0971 10.9007 88.4663 10.9884 88.8356 11.0907C89.7069 11.3099 90.5783 11.5729 91.4202 11.8505C91.7598 11.9528 92.1143 12.0697 92.454 12.2012C92.7198 12.2743 92.9709 12.3765 93.2368 12.4788C93.5026 12.5811 93.7537 12.6688 94.0195 12.7711C94.6103 12.9903 95.2158 13.2387 95.7918 13.5017C96.3678 13.7647 96.9586 14.0131 97.5198 14.3054C97.7856 14.4223 98.0367 14.5392 98.273 14.6853C98.5536 14.8314 98.8342 14.9921 99.1148 15.1383C99.3216 15.2405 99.5284 15.3574 99.7204 15.4889C100.001 15.6497 100.282 15.8104 100.577 15.9858C101.183 16.3657 101.803 16.7748 102.379 17.2132C102.689 17.4324 102.984 17.6662 103.265 17.8854C103.457 18.0315 103.649 18.1776 103.826 18.3383C104.446 18.8498 105.052 19.3904 105.613 19.9603C105.968 20.311 106.307 20.6763 106.647 21.0562C106.972 21.4215 107.312 21.816 107.622 22.2398C107.932 22.6635 108.227 23.0435 108.508 23.4672C108.759 23.8325 108.995 24.1978 109.217 24.5924C109.261 24.6654 109.305 24.7531 109.35 24.8262C109.542 25.1476 109.719 25.4837 109.896 25.8198C109.97 25.9951 110.059 26.1559 110.147 26.3312C110.576 27.2079 110.945 28.0993 111.255 29.0199C111.329 29.2244 111.403 29.429 111.462 29.6482C111.55 29.9112 111.624 30.2034 111.698 30.4665C111.801 30.8318 111.89 31.1971 111.964 31.5916C112.008 31.7816 112.053 31.9861 112.082 32.1761C112.259 33.0382 112.377 33.915 112.451 34.7917C112.496 35.2008 112.525 35.61 112.54 36.0483C112.584 36.5744 112.599 37.0858 112.599 37.5972C112.599 38.2548 112.569 38.9123 112.51 39.5553C112.481 39.9206 112.451 40.3005 112.407 40.6804C112.333 41.411 112.215 42.1562 112.053 42.8722C112.023 43.033 111.993 43.1645 111.964 43.3106C111.949 43.3837 111.934 43.4567 111.92 43.5152C111.846 43.8366 111.757 44.1727 111.669 44.4796C111.432 45.3709 111.137 46.2477 110.812 47.1098C110.694 47.4166 110.576 47.7235 110.428 48.0157C110.339 48.2641 110.236 48.4979 110.118 48.7171C110.059 48.8486 110 48.9948 109.926 49.1263C109.808 49.3747 109.689 49.6085 109.557 49.8569C108.36 52.1364 106.869 54.2552 105.096 56.1401C104.89 56.3739 104.668 56.5931 104.446 56.8123C103.841 57.4552 103.176 58.0689 102.482 58.6242C101.965 59.0918 101.404 59.5302 100.828 59.9393C100.68 60.0708 100.518 60.1877 100.341 60.29C100.045 60.5822 99.7499 60.7868 99.4398 60.9768ZM125.551 75.0776C125.212 75.8812 124.872 76.6849 124.547 77.4594C124.37 77.8831 124.193 78.3069 124.03 78.7306C123.735 79.4905 123.439 80.2357 123.144 80.9517C122.952 81.4339 122.775 81.9161 122.598 82.3691C122.332 83.0412 122.081 83.7134 121.83 84.3563C121.697 84.7216 121.564 85.0723 121.446 85.4376C120.368 88.3893 119.511 90.9757 119.038 93.0214C118.994 93.1821 118.964 93.3282 118.935 93.489C118.861 93.7958 118.802 94.0734 118.758 94.3511C118.713 94.6287 118.669 94.8771 118.64 95.1255C118.61 95.257 118.595 95.3739 118.595 95.5054C118.58 95.5347 118.58 95.5639 118.58 95.5931C118.566 95.8269 118.551 96.0461 118.551 96.2507C118.551 98.2818 118.137 99.5092 115.937 99.5092C109.483 99.5092 100.547 97.9018 100.547 92.9921C100.547 92.8752 100.547 92.7437 100.562 92.6268C100.562 92.5099 100.577 92.393 100.592 92.2761C100.607 92.1008 100.636 91.9108 100.666 91.7063C100.695 91.5017 100.725 91.2971 100.769 91.0779C100.813 90.8588 100.858 90.6396 100.917 90.4058C100.976 90.172 101.02 89.9236 101.094 89.6606C101.138 89.4706 101.197 89.266 101.256 89.0468C101.404 88.5062 101.567 87.9071 101.758 87.308C101.832 87.0742 101.906 86.8258 101.995 86.5774C102.482 85.0139 103.102 83.2896 103.811 81.4193C103.944 81.054 104.092 80.6887 104.225 80.2941C104.727 78.979 105.274 77.6055 105.85 76.1881C106.086 75.6182 106.322 75.0337 106.558 74.4492C106.603 74.3177 106.662 74.1716 106.721 74.0401C107.253 72.725 107.829 71.3953 108.39 70.0071C108.744 69.1304 109.113 68.2537 109.512 67.3623L121.357 39.2338C121.579 38.6785 121.8 38.1379 122.007 37.5826C122.036 37.5534 122.051 37.5242 122.051 37.4803C122.317 36.8228 122.568 36.1506 122.819 35.5077C123.085 34.8355 123.336 34.1634 123.572 33.5058C123.691 33.199 123.809 32.8921 123.912 32.5852C124.06 32.1907 124.193 31.8108 124.326 31.4309C125.212 28.9322 125.95 26.6965 126.438 24.8115C126.541 24.417 126.63 24.0517 126.718 23.6718V23.6426C126.807 23.2773 126.881 22.9412 126.94 22.5905C126.969 22.4005 126.999 22.2252 127.028 22.0498C127.117 21.5092 127.176 20.9685 127.176 20.4133C127.176 19.0543 128.417 18.1045 131.016 18.1045C136.791 18.1045 144.485 24.2271 144.485 28.0262C144.485 28.1285 144.485 28.2454 144.471 28.3477C144.456 28.4792 144.441 28.5961 144.426 28.713C144.412 28.8445 144.397 28.976 144.367 29.1221C144.338 29.2683 144.308 29.4582 144.264 29.6482C144.264 29.6774 144.264 29.7212 144.249 29.7505C144.205 29.9258 144.16 30.1158 144.116 30.3057C144.101 30.3496 144.087 30.408 144.072 30.4519C143.998 30.7733 143.895 31.1094 143.791 31.4893C143.097 33.8419 141.916 36.9835 140.439 40.622C140.202 41.1918 139.951 41.7909 139.715 42.3754C139.08 43.9243 138.386 45.5317 137.677 47.1975C137.441 47.7527 137.189 48.3226 136.953 48.8779C136.466 50.0176 135.949 51.172 135.447 52.3556C135.181 52.9401 134.93 53.5392 134.679 54.1236C134.398 54.7227 134.147 55.3218 133.881 55.921C133.497 56.7685 133.128 57.6306 132.759 58.4781C132.744 58.4781 132.744 58.4927 132.744 58.5073C130.263 64.0746 127.752 69.7879 125.551 75.0776ZM181.585 99.5092C181.039 99.5092 180.507 99.4946 180.005 99.4507C170.036 98.7932 166.004 91.8962 165.088 91.8962C163.434 91.8962 156.434 99.5092 143.924 99.5092C136.968 99.5092 132.596 94.9648 132.522 87.4687V87.2788C132.522 79.3443 136.185 71.103 142.27 64.4253C149.684 56.257 160.731 50.4414 173.064 50.4414C180.714 50.4414 186.976 53.2907 190.447 56.1547C192.352 57.7183 193.401 59.2671 193.401 60.3631C193.401 62.9494 182.678 75.0483 182.678 91.7647C182.678 95.8415 183.638 96.2507 183.638 97.8872C183.653 98.837 182.959 99.5092 181.585 99.5092ZM249.346 123.78C249.08 123.78 248.814 123.765 248.563 123.765C227.606 123.298 213.856 101.876 222.097 82.7782C222.141 82.6905 222.171 82.6029 222.215 82.5006C222.525 81.7846 222.85 81.0686 223.175 80.3818C226.675 72.988 230.737 67.1431 230.737 64.0453C230.737 62.8179 230.057 61.8681 228.536 61.8681C226.483 61.8681 221.934 64.8636 217.932 71.0008C213.117 78.4822 207.461 90.3327 207.461 96.1922C207.461 98.2233 207.062 99.4507 204.847 99.4507C204.389 99.4507 203.931 99.4361 203.414 99.4215C202.912 99.4069 202.38 99.3777 201.848 99.3338C201.538 99.3192 201.243 99.29 200.948 99.2608C200.519 99.2169 200.091 99.1731 199.648 99.1147C199.205 99.0562 198.762 98.9832 198.319 98.9101C197.876 98.837 197.447 98.7494 197.004 98.6617C196.62 98.574 196.236 98.4863 195.867 98.384C195.453 98.2818 195.069 98.1649 194.685 98.0334C194.641 98.0187 194.582 98.0041 194.538 97.9895C194.198 97.8726 193.858 97.7411 193.519 97.595C193.194 97.4635 192.884 97.3174 192.573 97.1566C192.057 96.8936 191.569 96.5867 191.126 96.2214C190.949 96.0899 190.801 95.9438 190.653 95.7831C190.476 95.6077 190.329 95.4324 190.196 95.2424C190.107 95.1255 190.018 94.994 189.945 94.8625C189.856 94.7456 189.782 94.6141 189.738 94.468C189.693 94.3949 189.664 94.3072 189.634 94.2196C189.561 94.0442 189.516 93.8543 189.487 93.6643C189.472 93.6351 189.457 93.5912 189.472 93.5474C189.428 93.3574 189.413 93.1529 189.413 92.9629C189.413 92.6999 189.428 92.4369 189.442 92.1592C189.442 92.0424 189.457 91.8962 189.472 91.7647C189.501 91.3556 189.561 90.9318 189.634 90.4935C189.693 90.0989 189.767 89.7336 189.856 89.3245C189.945 88.9153 190.033 88.4916 190.137 88.0824C190.196 87.8486 190.255 87.6002 190.329 87.3664C190.609 86.3144 190.964 85.2184 191.362 84.0787C191.436 83.8887 191.495 83.6988 191.569 83.4942C192.721 80.2649 194.198 76.758 195.675 73.2072C195.867 72.7396 196.059 72.272 196.251 71.8044C196.871 70.314 197.492 68.8235 198.068 67.3477C198.407 66.544 198.703 65.7257 198.998 64.9367C199.677 63.0809 200.298 61.2982 200.77 59.574C200.918 59.048 201.051 58.5365 201.169 58.0397C201.435 57.0169 201.627 55.994 201.76 54.9419C201.789 54.7812 201.804 54.6205 201.819 54.4743C201.848 54.2405 201.863 54.0068 201.878 53.7876C201.893 53.5684 201.908 53.3492 201.908 53.1446C201.922 53.0131 201.922 52.8816 201.922 52.7501V52.6624C201.922 51.3035 203.163 50.3537 205.777 50.3537C218.021 50.3537 218.567 60.29 219.128 60.29C219.689 60.29 228.905 50.3537 241.297 50.3537C242.006 50.3537 242.714 50.3975 243.409 50.4852C243.571 50.4998 243.719 50.5144 243.866 50.5437C244.221 50.5875 244.575 50.6605 244.93 50.7482C245.181 50.7921 245.432 50.8651 245.668 50.9382C245.683 50.9382 245.698 50.9528 245.713 50.9528C245.816 50.982 245.919 51.0259 246.023 51.0551C246.54 51.2304 247.042 51.4496 247.514 51.698C247.618 51.7565 247.706 51.8003 247.795 51.8588C247.825 51.8588 247.839 51.8734 247.854 51.888C247.972 51.9464 248.076 52.0195 248.179 52.0925L248.194 52.1072C248.4 52.2387 248.592 52.3848 248.77 52.5309C248.962 52.6917 249.154 52.8524 249.331 53.0277C249.493 53.1739 249.656 53.3492 249.789 53.5099C249.863 53.583 249.922 53.6561 249.981 53.7437C250.084 53.8752 250.188 54.0214 250.291 54.1675C250.35 54.2552 250.409 54.3428 250.468 54.4305C250.542 54.5474 250.616 54.6789 250.675 54.8104C250.823 55.0588 250.941 55.3218 251.044 55.5849C251.133 55.7894 251.207 56.0086 251.266 56.2278C251.295 56.3301 251.34 56.4178 251.354 56.5201C251.428 56.7538 251.472 57.0023 251.517 57.236C251.576 57.4845 251.605 57.7329 251.62 57.9667C251.65 58.1128 251.664 58.2589 251.664 58.405C251.694 58.6973 251.709 58.9895 251.709 59.2818C251.709 61.6928 250.941 64.3084 249.804 67.0847L249.73 67.2454C247.884 71.7168 245.107 76.6118 243.054 81.7992C242.537 83.1289 242.065 84.4732 241.666 85.8322C241.282 87.118 241.09 88.4623 241.09 89.8067V89.8359C241.09 97.7996 246.54 104.755 254.338 106.742C263.775 109.139 273.39 103.528 275.812 94.1903C276.004 93.7374 276.211 93.4159 276.491 93.2844C276.506 93.2698 276.536 93.2698 276.565 93.2552C277.569 92.8168 278.751 93.2698 279.194 94.2634C279.563 95.0378 279.785 96.2653 279.726 97.6242C279.726 98.5302 279.681 99.4215 279.608 100.298C279.504 101.453 279.268 102.592 278.913 103.703V103.718C275.133 115.32 263.317 123.78 249.346 123.78ZM338.521 89.456C331.152 111.477 324.048 144.018 298.94 144.018C281.882 144.018 273.419 130.239 273.419 125.782V125.709C273.434 124.613 274.35 123.736 275.472 123.751C277.377 123.751 279.017 126.863 287.346 126.863C307.551 126.863 315.334 105.529 319.425 93.5036C319.425 93.0944 319.558 92.8314 319.558 92.5538C319.543 92.4077 319.425 92.2907 319.277 92.2907C317.771 92.2907 311.095 100.123 298.394 100.123C291.984 100.123 287.479 97.1566 287.479 90.5373C287.479 80.674 299.767 64.4691 299.767 53.6707C299.767 52.3263 301.126 51.3766 303.592 51.3766C310.416 51.3766 317.106 57.3237 317.106 62.8471C317.106 70.5478 309.057 78.3799 309.057 85.1308C309.057 86.7527 310.017 87.5564 311.509 87.5564C313.281 87.5564 318.465 85.5253 321.064 81.4777C328.168 70.4016 329.94 61.7658 329.94 53.6561C329.94 52.3117 330.9 51.3619 332.54 51.3619C342.509 51.3619 348.372 56.9 348.372 61.2252C348.357 63.9284 342.893 76.3488 338.521 89.456ZM171.985 59.5594C163.611 59.5594 152.475 75.1945 152.475 84.0349C152.475 85.3938 153.288 86.4751 154.942 86.4751C162.223 86.4751 173.64 64.3084 173.64 61.3275C173.64 60.1 173.078 59.5594 171.985 59.5594ZM171.985 59.5594C163.611 59.5594 152.475 75.1945 152.475 84.0349C152.475 85.3938 153.288 86.4751 154.942 86.4751C162.223 86.4751 173.64 64.3084 173.64 61.3275C173.64 60.1 173.078 59.5594 171.985 59.5594ZM171.985 59.5594C163.611 59.5594 152.475 75.1945 152.475 84.0349C152.475 85.3938 153.288 86.4751 154.942 86.4751C162.223 86.4751 173.64 64.3084 173.64 61.3275C173.64 60.1 173.078 59.5594 171.985 59.5594ZM171.985 59.5594C163.611 59.5594 152.475 75.1945 152.475 84.0349C152.475 85.3938 153.288 86.4751 154.942 86.4751C162.223 86.4751 173.64 64.3084 173.64 61.3275C173.64 60.1 173.078 59.5594 171.985 59.5594ZM171.985 59.5594C163.611 59.5594 152.475 75.1945 152.475 84.0349C152.475 85.3938 153.288 86.4751 154.942 86.4751C162.223 86.4751 173.64 64.3084 173.64 61.3275C173.64 60.1 173.078 59.5594 171.985 59.5594Z" fill="white"/>
</g>
<defs>
<clipPath id="clip0">
<rect width="361" height="156" fill="white"/>
</clipPath>
</defs>
</svg>
