<svg width="2119" height="136" viewBox="0 0 2119 136" fill="none" xmlns="http://www.w3.org/2000/svg">
<path fill-rule="evenodd" clip-rule="evenodd" d="M338.284 101.572C339.139 99.3058 354.817 57.7686 339.883 19.5512C339.883 19.5512 351.084 25.3289 356.823 56.3272C362.541 38.747 371.255 21.5989 384.158 16.2454C384.158 16.2454 354.472 59.4195 364.489 98.3993C364.575 98.7317 364.669 99.251 364.768 99.798C364.97 100.91 365.193 102.135 365.402 102.135C365.402 102.135 365.636 100.291 365.822 98.3993C366.956 87.0521 372.087 46.7739 384.704 37.8761C384.704 37.8761 371.968 83.6746 382.238 98.3993C385.232 102.892 384.14 98.3993 384.14 98.3993C384.362 86.6618 386.673 43.3528 408.052 24.4347C408.052 24.4347 392.002 70.7467 406.029 98.3998C406.271 98.7979 406.487 99.2611 406.717 99.7516L406.717 99.7521L406.717 99.7525L406.717 99.7527C407.08 100.528 407.475 101.372 408.052 102.136C408.052 102.136 408.262 100.312 408.61 98.3998C410.465 88.2395 416.335 54.8396 416.335 37.8766C416.335 37.8766 427.222 76.789 425.02 98.3998H425.26C428.237 84.1969 440.421 23.1481 434.749 0C434.749 0 442.636 20.9773 441.615 85.1686C442.851 72.6427 446.651 55.9071 457.767 46.4278C457.767 46.4278 445.721 82.6679 455.39 98.3998C455.601 98.7425 455.821 99.2292 456.051 99.7385C456.568 100.88 457.136 102.136 457.767 102.136C457.767 102.136 458.259 100.332 459.039 98.3998C463.193 88.1521 475.785 53.7125 468.811 27.4935C468.811 27.4935 483.06 45.0338 479.098 98.3998L478.936 102.136C478.939 102.136 478.963 101.935 479.008 101.561L479.009 101.557L479.009 101.557C479.632 96.4344 484.186 58.9721 489.861 54.8396C489.861 54.8396 489.65 77.7532 491.559 98.4039C491.594 98.7969 491.63 99.4482 491.665 100.098L491.666 100.103C491.722 101.124 491.778 102.14 491.829 102.14C491.829 102.14 491.973 100.32 492.261 98.4039C494.26 85.1091 503.119 31.9143 517.608 24.4347C517.608 24.4347 504.967 74.8056 511.156 98.3998C511.248 98.7512 511.342 99.2829 511.441 99.8357L511.441 99.8369C511.638 100.944 511.85 102.136 512.086 102.136C512.086 102.136 512.938 100.284 514.301 98.3998C520.495 89.8048 537.529 64.7249 536.023 50.7012C536.023 50.7012 547.998 65.979 546.154 97.7425C546.154 97.7425 563.111 64.7566 546.347 37.8766C546.347 37.8766 563.027 47.9689 563.429 74.4749C567.198 53.6088 574.395 24.9083 586.657 13.4419C586.657 13.4419 566.407 61.7061 574.689 95.9145C574.689 95.9145 596.177 69.962 586.657 56.815C586.657 56.815 599.544 64.7566 595.865 96.5196C595.865 96.5196 614.279 73.3078 600.468 37.8766C600.468 37.8766 613.559 54.4889 613.547 82.1935C615.671 65.8515 619.645 43.3369 626.247 32.3799C626.247 32.3799 622.964 79.3538 629.614 98.4035C629.746 98.7778 629.879 99.3325 630.016 99.9006C630.279 100.995 630.554 102.14 630.851 102.14C630.851 102.14 631.499 100.331 632.471 98.4035C636.343 90.7523 645.568 69.1215 641.895 42.7672C641.895 42.7672 651.193 57.2803 645.568 88.7926C650.286 70.0932 661.012 36.1081 678.718 25.665C678.718 25.665 651.043 66.4134 656.888 98.4035C656.949 98.7334 657.013 99.2431 657.081 99.7809C657.222 100.899 657.379 102.14 657.549 102.14C657.549 102.14 659.974 100.419 663.233 98.4035C671.931 93.0185 686.762 80.0944 678.725 57.4282C678.725 57.4282 690.633 72.2045 685.747 98.4035C685.747 98.4035 685.375 101.454 685.333 101.661L685.342 101.637L685.366 101.572C686.221 99.3072 701.9 57.7693 686.966 19.5512C686.966 19.5512 704.248 28.466 706.878 83.5604C711.222 60.8814 721.156 24.5097 741.076 16.2454C741.076 16.2454 711.389 59.4195 721.407 98.3993C721.492 98.7317 721.586 99.251 721.685 99.7979C721.887 100.91 722.11 102.135 722.319 102.135C722.319 102.135 722.553 100.291 722.739 98.3993C723.873 87.0521 729.005 46.7739 741.622 37.8761C741.622 37.8761 728.885 83.6746 739.155 98.3993C742.149 102.892 741.057 98.3993 741.057 98.3993C741.279 86.6618 743.591 43.3528 764.969 24.4347C764.969 24.4347 748.919 70.7467 762.946 98.3998C763.188 98.7981 763.405 99.2615 763.634 99.7524C763.997 100.528 764.392 101.372 764.969 102.136C764.969 102.136 765.179 100.312 765.527 98.3998C767.382 88.2395 773.252 54.8396 773.252 37.8766C773.252 37.8766 784.14 76.789 781.937 98.3998H782.177C785.154 84.1969 797.338 23.1481 791.666 0C791.666 0 799.553 20.9773 798.532 85.1686C799.769 72.6427 803.568 55.9071 814.684 46.4278C814.684 46.4278 802.638 82.6679 812.307 98.3998C812.518 98.7425 812.738 99.2292 812.969 99.7385C813.485 100.88 814.053 102.136 814.684 102.136C814.684 102.136 815.176 100.332 815.956 98.3998C820.11 88.1521 832.702 53.7125 825.728 27.4935C825.728 27.4935 839.977 45.0338 836.016 98.3998L835.854 102.136C835.856 102.136 835.88 101.936 835.925 101.562L835.926 101.556C836.549 96.4338 841.104 58.9721 846.778 54.8396C846.778 54.8396 846.568 77.7532 848.476 98.4039C848.511 98.7977 848.547 99.4508 848.583 100.102L848.583 100.106C848.639 101.127 848.695 102.14 848.746 102.14C848.746 102.14 848.89 100.32 849.178 98.4039C851.177 85.1091 860.036 31.9143 874.525 24.4347C874.525 24.4347 861.885 74.8056 868.073 98.3998C868.165 98.7512 868.259 99.2828 868.358 99.8356L868.358 99.8369C868.555 100.944 868.767 102.136 869.003 102.136C869.003 102.136 869.855 100.284 871.218 98.3998C877.412 89.8048 894.446 64.7249 892.94 50.7012C892.94 50.7012 904.915 65.979 903.071 97.7425C903.071 97.7425 920.028 64.7566 903.264 37.8766C903.264 37.8766 919.944 47.9689 920.346 74.4749C924.115 53.6088 931.312 24.9083 943.575 13.4419C943.575 13.4419 923.324 61.7061 931.607 95.9145C931.607 95.9145 953.094 69.962 943.575 56.815C943.575 56.815 956.461 64.7566 952.782 96.5196C952.782 96.5196 971.197 73.3078 957.385 37.8766C957.385 37.8766 970.477 54.4889 970.464 82.1935C972.588 65.8515 976.562 43.3369 983.165 32.3799C983.165 32.3799 979.881 79.3538 986.531 98.4035C986.663 98.7778 986.796 99.3325 986.933 99.9006C987.196 100.995 987.472 102.14 987.768 102.14C987.768 102.14 988.416 100.331 989.389 98.4035C993.26 90.7523 1002.49 69.1215 998.812 42.7672C998.812 42.7672 1008.11 57.2803 1002.49 88.7926C1007.2 70.0932 1017.93 36.1081 1035.64 25.665C1035.64 25.665 1007.96 66.4134 1013.81 98.4035C1013.87 98.7334 1013.93 99.2431 1014 99.7809C1014.14 100.899 1014.3 102.14 1014.47 102.14C1014.47 102.14 1016.89 100.419 1020.15 98.4035C1028.85 93.0185 1043.68 80.0944 1035.64 57.4282C1035.64 57.4282 1047.55 72.2045 1042.66 98.4035C1042.66 98.4035 1042.29 101.454 1042.25 101.661C1042.25 101.648 1042.27 101.618 1042.28 101.572C1043.14 99.3072 1058.82 57.7693 1043.88 19.5512C1043.88 19.5512 1055.09 25.3297 1060.82 56.3334C1066.54 38.751 1075.26 21.5995 1088.16 16.2454C1088.16 16.2454 1058.47 59.4195 1068.49 98.3993C1068.58 98.7301 1068.67 99.2461 1068.77 99.7901L1068.77 99.7982C1068.97 100.91 1069.2 102.135 1069.41 102.135C1069.41 102.135 1069.64 100.291 1069.83 98.3993C1070.96 87.0521 1076.09 46.7739 1088.71 37.8761C1088.71 37.8761 1075.97 83.6746 1086.24 98.3993C1089.24 102.892 1088.14 98.3993 1088.14 98.3993C1088.37 86.6618 1090.68 43.3528 1112.06 24.4347C1112.06 24.4347 1096 70.7467 1110.03 98.3998C1110.27 98.7981 1110.49 99.2616 1110.72 99.7524C1111.08 100.528 1111.48 101.372 1112.06 102.136C1112.06 102.136 1112.26 100.312 1112.61 98.3998C1114.47 88.2395 1120.34 54.8396 1120.34 37.8766C1120.34 37.8766 1131.23 76.789 1129.02 98.3998H1129.26C1132.24 84.1969 1144.42 23.1481 1138.75 0C1138.75 0 1146.64 20.9773 1145.62 85.1686C1146.85 72.6427 1150.65 55.9071 1161.77 46.4278C1161.77 46.4278 1149.72 82.6679 1159.39 98.3998C1159.6 98.7422 1159.82 99.2284 1160.05 99.7372L1160.05 99.7383C1160.57 100.88 1161.14 102.136 1161.77 102.136C1161.77 102.136 1162.26 100.332 1163.04 98.3998C1167.2 88.1521 1179.79 53.7125 1172.81 27.4935C1172.81 27.4935 1187.06 45.0338 1183.1 98.3998L1182.94 102.136C1182.94 102.136 1182.95 102.063 1182.97 101.924L1183.01 101.556C1183.63 96.4338 1188.19 58.9721 1193.86 54.8396C1193.86 54.8396 1193.65 77.7532 1195.56 98.4039C1195.6 98.7977 1195.63 99.4508 1195.67 100.102L1195.67 100.106C1195.73 101.127 1195.78 102.14 1195.83 102.14C1195.83 102.14 1195.98 100.32 1196.26 98.4039C1198.26 85.1091 1207.12 31.9143 1221.61 24.4347C1221.61 24.4347 1208.97 74.8056 1215.16 98.3998C1215.25 98.7511 1215.35 99.2827 1215.44 99.8354L1215.44 99.8365L1215.44 99.8376C1215.64 100.945 1215.85 102.136 1216.09 102.136C1216.09 102.136 1216.94 100.284 1218.3 98.3998C1224.5 89.8048 1241.53 64.7249 1240.03 50.7012C1240.03 50.7012 1252 65.979 1250.16 97.7425C1250.16 97.7425 1267.11 64.7566 1250.35 37.8766C1250.35 37.8766 1267.03 47.9689 1267.43 74.4749C1271.2 53.6088 1278.4 24.9083 1290.66 13.4419C1290.66 13.4419 1270.41 61.7061 1278.69 95.9145C1278.69 95.9145 1300.18 69.962 1290.66 56.815C1290.66 56.815 1303.55 64.7566 1299.87 96.5196C1299.87 96.5196 1318.28 73.3078 1304.47 37.8766C1304.47 37.8766 1317.56 54.4889 1317.55 82.1935C1319.67 65.8515 1323.65 43.3369 1330.25 32.3799C1330.25 32.3799 1326.97 79.3538 1333.62 98.4035C1333.75 98.7772 1333.88 99.3307 1334.02 99.8978L1334.02 99.9005C1334.28 100.995 1334.56 102.14 1334.85 102.14C1334.85 102.14 1335.5 100.331 1336.47 98.4035C1340.35 90.7523 1349.57 69.1215 1345.9 42.7672C1345.9 42.7672 1355.2 57.2803 1349.57 88.7926C1354.29 70.0932 1365.01 36.1081 1382.72 25.665C1382.72 25.665 1355.05 66.4134 1360.89 98.4035C1360.95 98.7334 1361.02 99.2431 1361.08 99.7809C1361.23 100.899 1361.38 102.14 1361.55 102.14C1361.55 102.14 1363.98 100.419 1367.24 98.4035C1375.93 93.0185 1390.77 80.0944 1382.73 57.4282C1382.73 57.4282 1394.64 72.2045 1389.75 98.4035C1389.75 98.4035 1389.38 101.454 1389.34 101.661L1389.35 101.618L1389.37 101.572C1390.22 99.3073 1405.9 57.7693 1390.97 19.5512C1390.97 19.5512 1408.25 28.4646 1410.88 83.5474C1415.23 60.8675 1425.16 24.5082 1445.08 16.2454C1445.08 16.2454 1415.39 59.4195 1425.41 98.3993C1425.49 98.726 1425.58 99.2332 1425.68 99.7697L1425.68 99.7802L1425.68 99.7901L1425.69 99.7982C1425.89 100.91 1426.11 102.135 1426.32 102.135C1426.32 102.135 1426.55 100.291 1426.74 98.3993C1427.87 87.0521 1433 46.7739 1445.62 37.8761C1445.62 37.8761 1432.89 83.6746 1443.15 98.3993C1446.15 102.892 1445.06 98.3993 1445.06 98.3993C1445.28 86.6618 1447.59 43.3528 1468.97 24.4347C1468.97 24.4347 1452.92 70.7467 1466.95 98.3998C1467.19 98.7981 1467.41 99.2616 1467.63 99.7524C1468 100.528 1468.39 101.372 1468.97 102.136C1468.97 102.136 1469.18 100.312 1469.53 98.3998C1471.38 88.2395 1477.25 54.8396 1477.25 37.8766C1477.25 37.8766 1488.14 76.789 1485.94 98.3998H1486.18C1489.15 84.1969 1501.34 23.1481 1495.67 0C1495.67 0 1503.55 20.9773 1502.53 85.1686C1503.77 72.6427 1507.57 55.9071 1518.68 46.4278C1518.68 46.4278 1506.64 82.6679 1516.31 98.3998C1516.52 98.7422 1516.74 99.2284 1516.97 99.7372L1516.97 99.7383C1517.49 100.88 1518.05 102.136 1518.68 102.136C1518.68 102.136 1519.18 100.332 1519.96 98.3998C1524.11 88.1521 1536.7 53.7125 1529.73 27.4935C1529.73 27.4935 1543.98 45.0338 1540.02 98.3998L1539.85 102.136C1539.86 102.136 1539.88 101.936 1539.93 101.562L1539.93 101.556C1540.55 96.4338 1545.1 58.9721 1550.78 54.8396C1550.78 54.8396 1550.57 77.7532 1552.48 98.4039C1552.51 98.7977 1552.55 99.4508 1552.58 100.102L1552.58 100.106C1552.64 101.127 1552.69 102.14 1552.75 102.14C1552.75 102.14 1552.89 100.32 1553.18 98.4039C1555.18 85.1091 1564.04 31.9143 1578.53 24.4347C1578.53 24.4347 1565.88 74.8056 1572.07 98.3998C1572.16 98.7511 1572.26 99.2827 1572.36 99.8354L1572.36 99.8365L1572.36 99.8376C1572.56 100.945 1572.77 102.136 1573 102.136C1573 102.136 1573.86 100.284 1575.22 98.3998C1581.41 89.8048 1598.45 64.7249 1596.94 50.7012C1596.94 50.7012 1608.91 65.979 1607.07 97.7425C1607.07 97.7425 1624.03 64.7566 1607.26 37.8766C1607.26 37.8766 1623.94 47.9689 1624.35 74.4749C1628.12 53.6088 1635.31 24.9083 1647.57 13.4419C1647.57 13.4419 1627.32 61.7061 1635.61 95.9145C1635.61 95.9145 1657.09 69.962 1647.57 56.815C1647.57 56.815 1660.46 64.7566 1656.78 96.5196C1656.78 96.5196 1675.2 73.3078 1661.39 37.8766C1661.39 37.8766 1674.48 54.4889 1674.46 82.1935C1676.59 65.8515 1680.56 43.3369 1687.16 32.3799C1687.16 32.3799 1683.88 79.3538 1690.53 98.4035C1690.66 98.7772 1690.8 99.3307 1690.93 99.8978L1690.93 99.9005C1691.2 100.995 1691.47 102.14 1691.77 102.14C1691.77 102.14 1692.42 100.331 1693.39 98.4035C1697.26 90.7523 1706.49 69.1215 1702.81 42.7672C1702.81 42.7672 1712.11 57.2803 1706.49 88.7926C1711.2 70.0932 1721.93 36.1081 1739.64 25.665C1739.64 25.665 1711.96 66.4134 1717.81 98.4035C1717.87 98.7334 1717.93 99.2431 1718 99.7809C1718.14 100.899 1718.3 102.14 1718.47 102.14C1718.47 102.14 1720.89 100.419 1724.15 98.4035C1732.85 93.0185 1747.68 80.0944 1739.64 57.4282C1739.64 57.4282 1751.55 72.2045 1746.66 98.4035C1746.66 98.4035 1746.29 101.454 1746.25 101.661C1746.25 101.648 1746.27 101.618 1746.28 101.572C1747.14 99.3073 1762.82 57.7693 1747.88 19.5512C1747.88 19.5512 1760.96 26.297 1766.09 64.3177C1771.67 44.2208 1780.97 22.411 1795.83 16.2454C1795.83 16.2454 1766.14 59.4195 1776.16 98.3993C1776.25 98.7317 1776.34 99.2512 1776.44 99.7982C1776.64 100.91 1776.86 102.135 1777.07 102.135C1777.07 102.135 1777.31 100.291 1777.49 98.3993C1778.63 87.0521 1783.76 46.7739 1796.38 37.8761C1796.38 37.8761 1783.64 83.6746 1793.91 98.3993C1796.9 102.892 1795.81 98.3993 1795.81 98.3993C1796.03 86.6618 1798.34 43.3528 1819.72 24.4347C1819.72 24.4347 1803.67 70.7467 1817.7 98.3998C1817.94 98.7981 1818.16 99.2616 1818.39 99.7524C1818.75 100.528 1819.15 101.372 1819.72 102.136C1819.72 102.136 1819.93 100.312 1820.28 98.3998C1822.14 88.2395 1828.01 54.8396 1828.01 37.8766C1828.01 37.8766 1838.89 76.789 1836.69 98.3998H1836.93C1839.91 84.1969 1852.09 23.1481 1846.42 0C1846.42 0 1854.31 20.9773 1853.29 85.1686C1854.52 72.6427 1858.32 55.9071 1869.44 46.4278C1869.44 46.4278 1857.39 82.6679 1867.06 98.3998C1867.27 98.7425 1867.49 99.2291 1867.72 99.7383C1868.24 100.88 1868.81 102.136 1869.44 102.136C1869.44 102.136 1869.93 100.332 1870.71 98.3998C1874.86 88.1521 1887.46 53.7125 1880.48 27.4935C1880.48 27.4935 1894.73 45.0338 1890.77 98.3998L1890.61 102.136C1890.61 102.136 1890.63 101.934 1890.68 101.556C1891.3 96.4338 1895.86 58.9721 1901.53 54.8396C1901.53 54.8396 1901.32 77.7532 1903.23 98.4039C1903.27 98.7977 1903.3 99.4508 1903.34 100.102C1903.39 101.124 1903.45 102.14 1903.5 102.14C1903.5 102.14 1903.64 100.32 1903.93 98.4039C1905.93 85.1091 1914.79 31.9143 1929.28 24.4347C1929.28 24.4347 1916.64 74.8056 1922.83 98.3998C1922.92 98.7514 1923.01 99.2834 1923.11 99.8365C1923.31 100.944 1923.52 102.136 1923.76 102.136C1923.76 102.136 1924.61 100.284 1925.97 98.3998C1932.17 89.8048 1949.2 64.7249 1947.69 50.7012C1947.69 50.7012 1959.67 65.979 1957.83 97.7425C1957.83 97.7425 1974.78 64.7566 1958.02 37.8766C1958.02 37.8766 1974.7 47.9689 1975.1 74.4749C1978.87 53.6088 1986.07 24.9083 1998.33 13.4419C1998.33 13.4419 1978.08 61.7061 1986.36 95.9145C1986.36 95.9145 2007.85 69.962 1998.33 56.815C1998.33 56.815 2011.21 64.7566 2007.54 96.5196C2007.54 96.5196 2025.95 73.3078 2012.14 37.8766C2012.14 37.8766 2025.23 54.4889 2025.22 82.1935C2027.34 65.8515 2031.32 43.3369 2037.92 32.3799C2037.92 32.3799 2034.64 79.3538 2041.29 98.4035C2041.42 98.7778 2041.55 99.3324 2041.69 99.9005C2041.95 100.995 2042.23 102.14 2042.52 102.14C2042.52 102.14 2043.17 100.331 2044.14 98.4035C2048.01 90.7523 2057.24 69.1215 2053.57 42.7672C2053.57 42.7672 2062.86 57.2803 2057.24 88.7926C2061.96 70.0932 2072.68 36.1081 2090.39 25.665C2090.39 25.665 2062.71 66.4134 2068.56 98.4035C2068.62 98.7331 2068.68 99.2422 2068.75 99.7795C2068.89 100.898 2069.05 102.14 2069.22 102.14C2069.22 102.14 2071.65 100.419 2074.9 98.4035C2083.6 93.0185 2098.43 80.0944 2090.4 57.4282C2090.4 57.4282 2102.3 72.2045 2097.42 98.4035C2097.42 98.4035 2097.05 101.454 2097 101.661L2097.04 101.572C2097.89 99.3072 2113.57 57.7693 2098.64 19.5512C2098.64 19.5512 2118.94 30.0221 2118.88 98.3993V135.735H1768.13H1758.75H1411.21H1408H1064.13H1051.09H707.211H704H360.128H347.083H0V102.131C0 102.131 7.62311 28.4648 37.0755 16.2454C37.0755 16.2454 7.38898 59.4195 17.4067 98.3993C17.4919 98.7317 17.5862 99.251 17.6855 99.7979C17.8873 100.91 18.1098 102.135 18.3193 102.135C18.3193 102.135 18.5534 100.291 18.7392 98.3993C19.8734 87.0521 25.0047 46.7739 37.6216 37.8761C37.6216 37.8761 24.8854 83.6746 35.1548 98.3993C38.1494 102.892 37.0573 98.3993 37.0573 98.3993C37.2795 86.6618 39.5906 43.3528 60.9692 24.4347C60.9692 24.4347 44.9189 70.7467 58.9462 98.3998C59.1882 98.7981 59.405 99.2616 59.6345 99.7524C59.9973 100.528 60.3921 101.372 60.9692 102.136C60.9692 102.136 61.1788 100.312 61.5272 98.3998C63.3819 88.2395 69.252 54.8396 69.252 37.8766C69.252 37.8766 80.1396 76.789 77.9371 98.3998H78.1769C81.1539 84.1969 93.3383 23.1481 87.666 0C87.666 0 95.5528 20.9773 94.5322 85.1686C95.7687 72.6427 99.568 55.9071 110.684 46.4278C110.684 46.4278 98.6378 82.6679 108.307 98.3998C108.518 98.7424 108.738 99.229 108.968 99.7381L108.969 99.7384L108.969 99.7385C109.485 100.88 110.053 102.136 110.684 102.136C110.684 102.136 111.176 100.332 111.956 98.3998C116.11 88.1521 128.702 53.7125 121.728 27.4935C121.728 27.4935 135.977 45.0338 132.016 98.3998L131.854 102.136C131.856 102.136 131.88 101.934 131.926 101.557C132.549 96.4351 137.104 58.9721 142.778 54.8396C142.778 54.8396 142.567 77.7532 144.476 98.4039C144.511 98.7978 144.547 99.4512 144.583 100.102V100.103C144.639 101.124 144.695 102.14 144.746 102.14C144.746 102.14 144.89 100.32 145.178 98.4039C147.177 85.1091 156.036 31.9143 170.525 24.4347C170.525 24.4347 157.885 74.8056 164.073 98.3998C164.165 98.7513 164.26 99.2831 164.358 99.8362L164.358 99.8364L164.358 99.8368C164.555 100.944 164.767 102.136 165.003 102.136C165.003 102.136 165.855 100.284 167.218 98.3998C173.412 89.8048 190.446 64.7249 188.94 50.7012C188.94 50.7012 200.915 65.979 199.071 97.7425C199.071 97.7425 216.028 64.7566 199.264 37.8766C199.264 37.8766 215.944 47.9689 216.346 74.4749C220.115 53.6088 227.312 24.9083 239.575 13.4419C239.575 13.4419 219.324 61.7061 227.607 95.9145C227.607 95.9145 249.094 69.962 239.575 56.815C239.575 56.815 252.461 64.7566 248.782 96.5196C248.782 96.5196 267.197 73.3078 253.385 37.8766C253.385 37.8766 266.477 54.4889 266.464 82.1935C268.588 65.8515 272.562 43.3369 279.165 32.3799C279.165 32.3799 275.881 79.3538 282.531 98.4035C282.663 98.7778 282.796 99.3325 282.933 99.9006C283.196 100.995 283.472 102.14 283.768 102.14C283.768 102.14 284.416 100.331 285.389 98.4035C289.26 90.7523 298.486 69.1215 294.812 42.7672C294.812 42.7672 304.11 57.2803 298.486 88.7926C303.203 70.0932 313.929 36.1081 331.636 25.665C331.636 25.665 303.96 66.4134 309.806 98.4035C309.866 98.7334 309.931 99.2431 309.998 99.7811L309.999 99.7817C310.14 100.9 310.296 102.14 310.466 102.14C310.466 102.14 312.891 100.419 316.15 98.4035C324.848 93.0185 339.679 80.0944 331.642 57.4282C331.642 57.4282 343.55 72.2045 338.664 98.4035C338.664 98.4035 338.292 101.454 338.25 101.661C338.255 101.648 338.266 101.618 338.284 101.572Z" fill="#7CD444"/>
</svg>
