<?xml version="1.0" encoding="utf-8"?>
<!-- Generator: Adobe Illustrator 24.1.2, SVG Export Plug-In . SVG Version: 6.00 Build 0)  -->
<svg version="1.1" id="Layer_1" xmlns="http://www.w3.org/2000/svg" xmlns:xlink="http://www.w3.org/1999/xlink" x="0px" y="0px"
	 viewBox="0 0 145.5 101.8" style="enable-background:new 0 0 145.5 101.8;" xml:space="preserve">
<style type="text/css">
	.st0{fill:#A6A6A6;}
	.st1{fill:#020203;}
	.st2{fill:#FFFFFF;}
	.st3{fill:#FFFFFF;stroke:#FFFFFF;stroke-width:0.2128;stroke-miterlimit:10;}
	.st4{fill:url(#SVGID_1_);}
	.st5{fill:url(#SVGID_2_);}
	.st6{fill:url(#SVGID_3_);}
	.st7{fill:url(#SVGID_4_);}
	.st8{opacity:0.2;fill:#020203;enable-background:new    ;}
	.st9{opacity:0.12;fill:#020203;enable-background:new    ;}
	.st10{opacity:0.25;fill:#FFFFFF;enable-background:new    ;}
</style>
<g>
	<path class="st0" d="M133.1,1.1H9.9c-0.8,0-1.6,0.1-2.4,0.2C6.7,1.4,5.9,1.7,5.2,2.1S3.8,2.9,3.3,3.5C2.7,4.1,2.2,4.7,1.9,5.4
		C1.5,6.1,1.3,6.9,1.1,7.7C1,8.5,0.9,9.3,0.9,10.1c0,0.4,0,0.7,0,1.1V39c0,0.4,0,0.7,0,1.1c0,0.8,0.1,1.6,0.2,2.4
		c0.1,0.8,0.4,1.6,0.8,2.3s0.8,1.4,1.4,1.9c0.6,0.6,1.2,1.1,1.9,1.4c0.7,0.4,1.5,0.6,2.3,0.8c0.8,0.1,1.6,0.2,2.4,0.2h125.6
		c0.8,0,1.6-0.1,2.4-0.2c0.8-0.1,1.6-0.4,2.3-0.8c0.7-0.4,1.4-0.8,1.9-1.4c0.6-0.6,1-1.2,1.4-1.9s0.6-1.5,0.7-2.3
		c0.1-0.8,0.2-1.6,0.2-2.4c0-0.4,0-0.7,0-1.1V11.3c0-0.4,0-0.7,0-1.1c0-0.8-0.1-1.6-0.2-2.4c-0.1-0.8-0.4-1.6-0.7-2.3
		c-0.7-1.4-1.9-2.6-3.4-3.4c-0.7-0.4-1.5-0.6-2.3-0.8c-0.8-0.1-1.6-0.2-2.4-0.2L133.1,1.1L133.1,1.1z"/>
	<path class="st1" d="M11,48.1H9.9c-0.8,0-1.5,0-2.2-0.2c-0.7-0.1-1.4-0.4-2-0.7S4.5,46.5,4,46s-0.9-1.1-1.2-1.7
		c-0.3-0.6-0.5-1.3-0.7-2c-0.1-0.7-0.2-1.5-0.2-2.2c0-0.3,0-1.1,0-1.1V11.3c0,0,0-0.8,0-1.1C1.9,9.4,2,8.7,2.1,8s0.3-1.4,0.6-2
		C3,5.4,3.4,4.8,3.9,4.3S5,3.4,5.6,3.1s1.3-0.5,2-0.7c0.7-0.1,1.5-0.2,2.3-0.2h125.6c0.7,0,1.5,0.1,2.2,0.2s1.4,0.3,2,0.7
		c1.2,0.6,2.3,1.6,2.9,2.9c0.3,0.6,0.5,1.3,0.6,2s0.2,1.5,0.2,2.3v1.1c0,0.5,0,0.9,0,1.3v25.1c0,0.4,0,0.9,0,1.3v1.1
		c0,0.7-0.1,1.5-0.2,2.2c-0.1,0.7-0.3,1.4-0.6,2s-0.7,1.2-1.2,1.7s-1.1,0.9-1.7,1.2c-0.6,0.4-1.3,0.6-2,0.7
		c-0.7,0.1-1.5,0.2-2.2,0.2h-1.1L11,48.1L11,48.1z"/>
	<path class="st2" d="M30.6,25.5c0-2,1.1-3.9,2.8-5c-1.1-1.6-2.9-2.5-4.8-2.6c-2-0.2-4,1.2-5,1.2s-2.6-1.2-4.3-1.2
		c-2.2,0.1-4.3,1.3-5.4,3.3c-2.3,4.1-0.6,9.9,1.6,13.2c1.1,1.6,2.4,3.4,4.1,3.3c1.7-0.1,2.3-1.1,4.3-1.1s2.6,1.1,4.3,1
		c1.7,0,2.9-1.6,4-3.2c0.8-1.1,1.4-2.4,1.8-3.7C32,29.9,30.6,27.8,30.6,25.5z"/>
	<path class="st2" d="M27.3,15.8c1-1.2,1.5-2.7,1.3-4.2c-1.5,0.2-2.9,0.9-3.9,2s-1.5,2.6-1.4,4C24.9,17.7,26.4,17,27.3,15.8z"/>
	<path class="st2" d="M51.7,33.7H46l-1.4,4h-2.4l5.4-14.9h2.5l5.4,15h-2.4L51.7,33.7z M46.6,31.9h4.5l-2.2-6.5h-0.1L46.6,31.9z"/>
	<path class="st2" d="M67.1,32.4c0,3.4-1.8,5.5-4.5,5.5c-1.4,0.1-2.8-0.7-3.4-1.9l0,0v5.4h-2.3V26.9h2.2v1.9l0,0
		c0.7-1.2,2-2,3.5-1.9C65.3,26.8,67.1,29,67.1,32.4z M64.8,32.4c0-2.2-1.2-3.6-2.9-3.6c-1.7,0-2.9,1.5-2.9,3.6s1.2,3.7,2.9,3.7
		C63.6,36.1,64.8,34.5,64.8,32.4z"/>
	<path class="st2" d="M79.1,32.4c0,3.4-1.8,5.5-4.5,5.5c-1.4,0.1-2.8-0.7-3.4-1.9l0,0v5.4h-2.3V26.9h2.2v1.9l0,0
		c0.7-1.2,2-2,3.5-1.9C77.3,26.8,79.1,29,79.1,32.4z M76.8,32.4c0-2.2-1.1-3.6-2.9-3.6c-1.7,0-2.8,1.5-2.8,3.6s1.1,3.6,2.8,3.6
		S76.8,34.5,76.8,32.4L76.8,32.4z"/>
	<path class="st2" d="M87,33.6c0.2,1.5,1.6,2.4,3.6,2.4s3.2-1,3.2-2.3s-0.8-1.8-2.7-2.3l-1.9-0.5c-2.7-0.7-4-1.9-4-4
		c0-2.6,2.2-4.3,5.4-4.3c3.2,0,5.3,1.8,5.4,4.3h-2.3c-0.1-1.5-1.4-2.4-3.2-2.4c-1.8,0-3,0.9-3,2.2c0,1,0.8,1.7,2.7,2.1l1.6,0.4
		c3.1,0.7,4.3,2,4.3,4.1c0,2.8-2.2,4.5-5.8,4.5c-3.3,0-5.5-1.7-5.7-4.4L87,33.6z"/>
	<path class="st2" d="M101,24.3v2.6h2.1v1.8H101v6c0,0.9,0.4,1.4,1.3,1.4c0.2,0,0.5,0,0.7,0v1.7c-0.4,0.1-0.8,0.1-1.2,0.1
		c-2.2,0-3.1-0.8-3.1-2.9v-6.3h-1.6v-1.8h1.6v-2.6H101z"/>
	<path class="st2" d="M104.2,32.4c0-3.4,2-5.6,5.2-5.6c3.1,0,5.2,2.1,5.2,5.6c0,3.4-2,5.5-5.2,5.5S104.2,35.8,104.2,32.4z
		 M112.3,32.4c0-2.3-1.1-3.7-2.9-3.7s-2.8,1.3-2.8,3.7s1.1,3.7,2.9,3.7C111.2,36.1,112.3,34.7,112.3,32.4L112.3,32.4z"/>
	<path class="st2" d="M116.4,26.9h2.2v1.9l0,0c0.3-1.2,1.4-2,2.6-2c0.3,0,0.5,0,0.8,0.1V29c-0.3-0.1-0.6-0.2-1-0.2
		c-1.2-0.1-2.3,0.9-2.4,2.1c0,0,0,0,0,0.1s0,0.2,0,0.3v6.5h-2.2V26.9L116.4,26.9z"/>
	<path class="st2" d="M132.2,34.6c-0.3,2-2.2,3.3-4.7,3.3c-3.2,0-5.1-2.1-5.1-5.5s2-5.6,5-5.6s4.9,2.1,4.9,5.4V33h-7.7v0.1
		c-0.1,1.6,1,2.9,2.6,3.1h0.4c1.1,0.1,2.1-0.5,2.5-1.5L132.2,34.6z M124.7,31.3h5.4c0.1-1.4-1-2.6-2.4-2.7h-0.2
		C126,28.6,124.8,29.8,124.7,31.3L124.7,31.3L124.7,31.3z"/>
	<path class="st2" d="M46.3,11.6c1.7-0.1,3.3,1.2,3.4,2.9c0,0.2,0,0.4,0,0.6c0,2.3-1.2,3.6-3.4,3.6h-2.6v-7.2L46.3,11.6z M44.8,17.8
		h1.4c1.2,0.1,2.3-0.8,2.4-2.1l0,0c0-0.2,0-0.3,0-0.5c0.2-1.2-0.7-2.4-1.9-2.5l0,0c-0.1,0-0.3,0-0.4,0h-1.4L44.8,17.8L44.8,17.8z"/>
	<path class="st2" d="M50.9,16.1c-0.1-1.4,0.9-2.7,2.3-2.8c1.4-0.1,2.7,0.9,2.8,2.3c0,0.2,0,0.3,0,0.5c0,1.4-1.1,2.6-2.5,2.7
		c-1.3,0-2.4-0.9-2.6-2.1C50.9,16.4,50.9,16.2,50.9,16.1z M54.9,16.1c0-1.2-0.5-1.8-1.4-1.8S52,15,52,16.1c0,1.2,0.5,1.9,1.5,1.9
		S54.9,17.3,54.9,16.1L54.9,16.1z"/>
	<path class="st2" d="M62.8,18.8h-1.1l-1.1-4h-0.1l-1.1,4h-1.1l-1.5-5.4h1.1l1,4.1H59l1.1-4.1h1l1.1,4.1h0.1l1-4.1h1.1L62.8,18.8z"
		/>
	<path class="st2" d="M65.5,13.4h1v0.9h0.1c0.3-0.6,0.9-1,1.6-1c1-0.1,1.8,0.6,1.9,1.6l0,0c0,0.1,0,0.3,0,0.4v3.5H69v-3.2
		c0-0.9-0.4-1.3-1.2-1.3c-0.7-0.1-1.2,0.4-1.3,1.1v0.1v3.3h-1.1L65.5,13.4z"/>
	<path class="st2" d="M71.8,11.3h1.1v7.5h-1.1V11.3z"/>
	<path class="st2" d="M74.4,16.1c-0.1-1.4,0.9-2.7,2.3-2.8s2.7,0.9,2.8,2.3c0,0.2,0,0.3,0,0.5c0,1.4-1.1,2.6-2.5,2.7
		c-1.3,0-2.4-0.9-2.6-2.1C74.4,16.4,74.4,16.2,74.4,16.1z M78.4,16.1c0-1.2-0.5-1.8-1.5-1.8s-1.4,0.7-1.4,1.8c0,1.2,0.5,1.9,1.4,1.9
		C77.9,18,78.4,17.3,78.4,16.1z"/>
	<path class="st2" d="M80.6,17.3c0-1,0.7-1.5,2-1.6l1.5-0.1v-0.5c0-0.6-0.4-0.9-1.1-0.9s-1,0.2-1.1,0.6h-1c0.1-0.9,1-1.5,2.2-1.5
		s2.1,0.7,2.1,1.8v3.7h-1V18h-0.1c-0.3,0.6-1,0.9-1.6,0.9c-0.9,0.1-1.7-0.5-1.8-1.4l0,0C80.6,17.4,80.6,17.3,80.6,17.3z M84.1,16.8
		v-0.5l-1.3,0.1c-0.7,0-1.1,0.3-1.1,0.8s0.4,0.8,1,0.8C83.4,18,84,17.5,84.1,16.8L84.1,16.8L84.1,16.8z"/>
	<path class="st2" d="M86.6,16.1c0-1.7,0.9-2.8,2.2-2.8c0.7,0,1.3,0.3,1.7,0.9h0.1v-3h1.1v7.6h-1V18h-0.1c-0.3,0.6-1,1-1.7,0.9
		C87.4,18.9,86.6,17.8,86.6,16.1z M87.7,16.1c0,1.2,0.5,1.8,1.4,1.8s1.5-0.7,1.5-1.8c0-1.1-0.6-1.8-1.5-1.8S87.7,15,87.7,16.1z"/>
	<path class="st2" d="M96,16.1c-0.1-1.4,0.9-2.7,2.3-2.8s2.7,0.9,2.8,2.3c0,0.2,0,0.3,0,0.5c0,1.4-1.1,2.6-2.5,2.7
		c-1.3,0-2.4-0.9-2.6-2.1C96,16.4,96,16.2,96,16.1z M100,16.1c0-1.2-0.5-1.8-1.4-1.8s-1.5,0.7-1.5,1.8c0,1.2,0.5,1.9,1.5,1.9
		C99.5,18,100,17.3,100,16.1z"/>
	<path class="st2" d="M102.6,13.4h1v0.9h0.1c0.3-0.6,0.9-1,1.6-1c1-0.1,1.8,0.7,1.9,1.6c0,0.1,0,0.3,0,0.4v3.5h-1.1v-3.2
		c0-0.9-0.4-1.3-1.2-1.3c-0.7-0.1-1.2,0.4-1.3,1.1v0.1c0,0.1,0,0.1,0,0.2v3.1h-1.1L102.6,13.4z"/>
	<path class="st2" d="M113.2,12v1.4h1.2v0.9h-1.2v2.8c0,0.6,0.2,0.8,0.8,0.8h0.4v0.9c-0.2,0-0.4,0-0.6,0c-1.2,0-1.7-0.4-1.7-1.5v-3
		h-0.9v-0.9h0.9V12H113.2z"/>
	<path class="st2" d="M115.8,11.3h1.1v3h0.1c0.3-0.6,0.9-1,1.6-1c1-0.1,1.8,0.7,1.9,1.7l0,0c0,0.1,0,0.2,0,0.3v3.5h-1.1v-3.2
		c0-0.9-0.4-1.3-1.2-1.3c-0.7-0.1-1.3,0.5-1.4,1.1c0,0,0,0,0,0.1v3.3h-1V11.3L115.8,11.3z"/>
	<path class="st2" d="M126.7,17.3c-0.3,1-1.3,1.7-2.4,1.6c-1.3,0.1-2.5-1-2.5-2.3v-0.1c0-0.1,0-0.3,0-0.4c-0.2-1.4,0.8-2.6,2.1-2.8
		l0,0c0.1,0,0.2,0,0.4,0c1.5,0,2.4,1,2.4,2.7v0.4h-3.8v0.1c0,0.8,0.5,1.5,1.3,1.5c0,0,0,0,0.1,0h0.1c0.5,0.1,1-0.2,1.3-0.7H126.7z
		 M122.9,15.6h2.7c0-0.7-0.5-1.3-1.2-1.4h-0.1C123.6,14.2,122.9,14.8,122.9,15.6L122.9,15.6z"/>
</g>
<g>
	<path class="st1" d="M6.2,57.8h133c2.9,0,5.3,2.4,5.3,5.3V95c0,2.9-2.4,5.3-5.3,5.3H6.2c-2.9,0-5.3-2.4-5.3-5.3V63.1
		C0.9,60.2,3.3,57.8,6.2,57.8z"/>
	<path class="st0" d="M139.2,58.7c2.5,0,4.5,2,4.5,4.5v31.9c0,2.5-2,4.5-4.5,4.5H6.2c-2.5,0-4.5-2-4.5-4.5l0,0V63.2
		c0-2.5,2-4.5,4.5-4.5l0,0H139.2 M139.2,57.8H6.2c-2.9,0-5.3,2.4-5.3,5.3V95c0,2.9,2.4,5.3,5.3,5.3h133c2.9,0,5.3-2.4,5.3-5.3V63.1
		C144.5,60.2,142.2,57.8,139.2,57.8z"/>
	<path class="st3" d="M51.4,68.8c0,0.8-0.3,1.6-0.8,2.1c-0.6,0.6-1.5,1-2.4,0.9c-0.9,0-1.7-0.4-2.4-0.9c-0.6-0.6-1-1.5-1-2.4
		c0-0.9,0.4-1.7,1-2.4c1-0.9,2.4-1.2,3.7-0.7c0.4,0.2,0.7,0.4,1,0.7l-0.5,0.5c-0.5-0.5-1.1-0.8-1.7-0.7c-1.4,0-2.5,1.1-2.5,2.5v0.1
		c0,1.4,1.1,2.6,2.5,2.6c0.6,0,1.3-0.3,1.8-0.7c0.4-0.4,0.5-0.8,0.5-1.3h-2.3v-0.7h3.1C51.4,68.4,51.4,68.6,51.4,68.8z"/>
	<path class="st3" d="M56.2,66.1h-2.8v2H56v0.7h-2.6v2h2.8v0.8h-3.7v-6.4h3.7V66.1z"/>
	<path class="st3" d="M59.8,71.7h-0.8v-5.6h-1.8v-0.8h4.5v0.8h-1.8V71.7z"/>
	<path class="st3" d="M64.7,71.7v-6.4h0.8v6.4H64.7z"/>
	<path class="st3" d="M69.2,71.7h-0.8v-5.6h-1.8v-0.8h4.4v0.8h-1.7V71.7z"/>
	<path class="st3" d="M79.2,70.9c-1.3,1.3-3.4,1.3-4.7,0l0,0c-0.6-0.6-1-1.5-0.9-2.4c0-0.9,0.3-1.7,0.9-2.4c0.6-0.6,1.5-1,2.4-1
		s1.7,0.4,2.4,1c0.6,0.6,0.9,1.5,0.9,2.4S79.8,70.2,79.2,70.9z M75.2,70.3c0.9,0.9,2.5,1,3.5,0l0,0c0.5-0.5,0.7-1.2,0.7-1.8
		c0-0.7-0.3-1.4-0.7-1.8c-0.9-0.9-2.5-1-3.5,0l0,0c-0.5,0.5-0.7,1.2-0.6,1.8C74.4,69.1,74.7,69.9,75.2,70.3z"/>
	<path class="st3" d="M81.3,71.7v-6.4h1l3.1,4.9l0,0v-1.3v-3.7h0.8v6.4h-0.8l-3.3-5.2l0,0v1.2v4L81.3,71.7L81.3,71.7z"/>
	<path class="st2" d="M73.4,81c-2.5,0-4.6,2-4.6,4.6c0,2.5,2,4.6,4.6,4.6c2.5,0,4.6-2,4.6-4.6c0-2.5-1.9-4.5-4.4-4.6
		C73.5,81,73.4,81,73.4,81z M73.4,88.3c-1.6,0.1-2.8-1-2.9-2.6c-0.1-1.6,1-2.8,2.6-2.9c1.6-0.1,2.8,1,2.9,2.6c0,0.1,0,0.1,0,0.2
		C76,86.9,74.9,88.2,73.4,88.3L73.4,88.3z M63.5,81c-2.5,0-4.6,2-4.6,4.6c0,2.5,2,4.6,4.6,4.6c2.6,0,4.6-2,4.6-4.6
		c0-2.5-1.9-4.5-4.4-4.6C63.6,81,63.5,81,63.5,81z M63.5,88.3c-1.6,0.1-2.8-1-2.9-2.6c-0.1-1.6,1-2.8,2.6-2.9c1.6-0.1,2.8,1,2.9,2.6
		c0,0.1,0,0.1,0,0.2C66.1,86.9,65,88.2,63.5,88.3L63.5,88.3z M51.7,82.4v1.9h4.6c-0.1,0.9-0.5,1.7-1.1,2.4c-0.9,0.9-2.2,1.5-3.6,1.4
		c-2.8,0-5.1-2.3-5.1-5.1c0-2.8,2.3-5.1,5.1-5.1c1.3,0,2.6,0.5,3.5,1.4l1.5-1.3c-1.3-1.3-3-2-4.8-1.9c-3.9-0.2-7.1,2.8-7.3,6.8
		c-0.2,3.9,2.8,7.1,6.8,7.3c0.2,0,0.4,0,0.5,0c1.8,0.1,3.7-0.6,4.9-2c1.1-1.2,1.7-2.8,1.6-4.5c0-0.4,0-0.8-0.1-1.2
		C58.2,82.4,51.7,82.4,51.7,82.4z M99.9,83.9c-0.5-1.6-2.1-2.8-3.8-2.9c-2.4,0-4.3,1.9-4.3,4.3c0,0.1,0,0.2,0,0.3
		c0,2.5,2,4.6,4.5,4.6c1.6,0,2.9-0.7,3.8-2L98.5,87c-0.5,0.8-1.3,1.3-2.2,1.3c-0.9,0-1.8-0.5-2.2-1.4l6-2.5L99.9,83.9z M93.7,85.4
		c-0.1-1.4,0.9-2.6,2.3-2.6c0,0,0,0,0.1,0c0.7,0,1.4,0.4,1.6,0.9L93.7,85.4z M88.9,89.7h2V76.4h-2V89.7z M85.6,82L85.6,82
		c-0.7-0.6-1.6-1-2.5-1c-2.5,0.1-4.5,2.3-4.3,4.7c0.1,2.4,2,4.2,4.3,4.3c0.9,0,1.8-0.4,2.4-1.1h0.1v0.6c0,1.7-0.9,2.6-2.4,2.6
		c-1,0-1.9-0.6-2.3-1.6l-1.7,0.7c0.6,1.6,2.3,2.7,4,2.6c2.4,0,4.3-1.4,4.3-4.7v-8.1h-1.8L85.6,82C85.7,82,85.6,82,85.6,82z
		 M83.3,88.3c-1.6-0.1-2.6-1.4-2.6-2.9c0.1-1.4,1.2-2.5,2.6-2.6c1.4,0.1,2.5,1.3,2.5,2.6v0.1c0.1,1.4-0.9,2.6-2.3,2.7
		C83.4,88.3,83.3,88.3,83.3,88.3z M109.2,76.4h-4.7v13.3h2v-5h2.7c2.3,0.2,4.3-1.6,4.4-3.8c0.2-2.3-1.6-4.3-3.8-4.4
		C109.7,76.4,109.4,76.4,109.2,76.4z M109.2,82.8h-2.7v-4.6h2.8c1.3,0,2.3,1,2.3,2.3S110.5,82.9,109.2,82.8L109.2,82.8L109.2,82.8z
		 M121.5,80.9c-1.5-0.1-2.8,0.7-3.6,2l1.7,0.7c0.4-0.6,1.1-1,1.8-1c1.1-0.1,2,0.6,2.1,1.6l0,0v0.1c-0.6-0.4-1.4-0.5-2.1-0.5
		c-1.9,0-3.8,1.1-3.8,3c0.1,1.7,1.6,3,3.2,2.9h0.1c1,0.1,2-0.5,2.6-1.3h0.1v1.3h1.9v-5.1C125.6,82.4,123.8,81,121.5,80.9L121.5,80.9
		z M121.3,88.2c-0.6,0-1.6-0.4-1.6-1.1c0-1.1,1.1-1.5,2.1-1.5c0.6,0,1.3,0.2,1.8,0.5C123.5,87.3,122.5,88.2,121.3,88.2L121.3,88.2z
		 M132.6,81.3l-2.3,5.7h-0.1l-2.4-5.7h-2.1l3.6,8l-2,4.5h2.1l5.4-12.5C134.8,81.3,132.6,81.3,132.6,81.3z M114.7,89.7h2V76.4h-2
		V89.7z"/>
	
		<linearGradient id="SVGID_1_" gradientUnits="userSpaceOnUse" x1="24.0831" y1="1514.2118" x2="6.2281" y2="1532.0668" gradientTransform="matrix(1 0 0 1 0 -1447.1045)">
		<stop  offset="0" style="stop-color:#4696D2"/>
		<stop  offset="1.000000e-02" style="stop-color:#4598D3"/>
		<stop  offset="0.26" style="stop-color:#3FB9EB"/>
		<stop  offset="0.51" style="stop-color:#4AC1ED"/>
		<stop  offset="0.76" style="stop-color:#5CC4E6"/>
		<stop  offset="1" style="stop-color:#60C4E5"/>
	</linearGradient>
	<path class="st4" d="M12,65.8c-0.4,0.5-0.5,0.9-0.5,1.5v23.5c0,0.5,0.2,1.1,0.5,1.5l0.1,0.1l13.1-13.1V79L12,65.8L12,65.8z"/>
	
		<linearGradient id="SVGID_2_" gradientUnits="userSpaceOnUse" x1="36.876" y1="1526.2212" x2="11.1363" y2="1526.2212" gradientTransform="matrix(1 0 0 1 0 -1447.1045)">
		<stop  offset="0" style="stop-color:#FFE00A"/>
		<stop  offset="0.41" style="stop-color:#FBBC0F"/>
		<stop  offset="0.78" style="stop-color:#F7A418"/>
		<stop  offset="1" style="stop-color:#F59A1B"/>
	</linearGradient>
	<path class="st5" d="M29.6,83.6l-4.4-4.4V79l4.4-4.4l0.1,0.1l5.2,2.9c1.5,0.8,1.5,2.2,0,3.1L29.6,83.6L29.6,83.6z"/>
	
		<linearGradient id="SVGID_3_" gradientUnits="userSpaceOnUse" x1="27.3169" y1="1528.682" x2="3.0987" y2="1552.8895" gradientTransform="matrix(1 0 0 1 0 -1447.1045)">
		<stop  offset="0" style="stop-color:#E8404A"/>
		<stop  offset="1" style="stop-color:#C31262"/>
	</linearGradient>
	<path class="st6" d="M29.7,83.6l-4.5-4.5L12,92.4c0.6,0.5,1.6,0.5,2.2,0.1L29.7,83.6"/>
	
		<linearGradient id="SVGID_4_" gradientUnits="userSpaceOnUse" x1="8.6652" y1="1505.1088" x2="19.476" y2="1515.9196" gradientTransform="matrix(1 0 0 1 0 -1447.1045)">
		<stop  offset="0" style="stop-color:#32A071"/>
		<stop  offset="7.000000e-02" style="stop-color:#2DA771"/>
		<stop  offset="0.48" style="stop-color:#4FB26F"/>
		<stop  offset="0.8" style="stop-color:#61B668"/>
		<stop  offset="1" style="stop-color:#64B664"/>
	</linearGradient>
	<path class="st7" d="M29.7,74.6l-15.5-8.9c-0.6-0.5-1.6-0.5-2.2,0.1l13.2,13.2L29.7,74.6z"/>
	<path class="st8" d="M29.6,83.5l-15.4,8.8c-0.6,0.5-1.5,0.5-2.1,0l0,0L12,92.4l0,0l0.1,0.1l0,0c0.6,0.5,1.5,0.5,2.1,0L29.6,83.5
		L29.6,83.5z"/>
	<path class="st9" d="M12,92.2c-0.4-0.5-0.5-1-0.5-1.5v0.2c0,0.5,0.2,1.1,0.5,1.5V92.2L12,92.2z"/>
	<path class="st9" d="M34.9,80.5l-5.3,3l0.1,0.1L34.9,80.5c0.6-0.2,1.1-0.7,1.1-1.5l0,0C35.9,79.7,35.6,80.3,34.9,80.5z"/>
	<path class="st10" d="M14.2,65.9l20.7,11.8c0.5,0.3,1,0.7,1.1,1.4l0,0c-0.1-0.6-0.5-1.3-1.1-1.6L14.2,65.7
		c-1.5-0.8-2.6-0.2-2.6,1.6v0.2C11.6,65.8,12.8,65.1,14.2,65.9z"/>
</g>
</svg>
