<?xml version="1.0" encoding="utf-8"?>
<!-- Generator: Adobe Illustrator 24.1.2, SVG Export Plug-In . SVG Version: 6.00 Build 0)  -->
<svg version="1.1" id="Layer_1" xmlns="http://www.w3.org/2000/svg" xmlns:xlink="http://www.w3.org/1999/xlink" x="0px" y="0px"
	 viewBox="0 0 337.3 53.8" style="enable-background:new 0 0 337.3 53.8;" xml:space="preserve">
<style type="text/css">
	.st0{fill:#A6A6A6;}
	.st1{fill:#020203;}
	.st2{fill:#FFFFFF;}
	.st3{fill:#FFFFFF;stroke:#FFFFFF;stroke-width:0.2332;stroke-miterlimit:10;}
	.st4{fill:url(#SVGID_1_);}
	.st5{fill:url(#SVGID_2_);}
	.st6{fill:url(#SVGID_3_);}
	.st7{fill:url(#SVGID_4_);}
	.st8{opacity:0.2;fill:#020203;enable-background:new    ;}
	.st9{opacity:0.12;fill:#020203;enable-background:new    ;}
	.st10{opacity:0.25;fill:#FFFFFF;enable-background:new    ;}
</style>
<g>
	<path class="st0" d="M134.1,2.7H10.9c-0.8,0-1.6,0.1-2.4,0.2C7.7,3,6.9,3.3,6.2,3.7C5.5,4.1,4.8,4.5,4.3,5.1C3.7,5.7,3.2,6.3,2.9,7
		C2.5,7.7,2.3,8.5,2.1,9.3c-0.1,0.8-0.2,1.6-0.2,2.4c0,0.4,0,0.7,0,1.1v27.8c0,0.4,0,0.7,0,1.1c0,0.8,0.1,1.6,0.2,2.4
		c0.1,0.8,0.4,1.6,0.8,2.3s0.8,1.4,1.4,1.9c0.6,0.6,1.2,1.1,1.9,1.4c0.7,0.4,1.5,0.6,2.3,0.8c0.8,0.1,1.6,0.2,2.4,0.2h125.6
		c0.8,0,1.6-0.1,2.4-0.2c0.8-0.1,1.6-0.4,2.3-0.8c0.7-0.4,1.4-0.8,1.9-1.4c0.6-0.6,1-1.2,1.4-1.9s0.6-1.5,0.7-2.3
		c0.1-0.8,0.2-1.6,0.2-2.4c0-0.4,0-0.7,0-1.1V12.9c0-0.4,0-0.7,0-1.1c0-0.8-0.1-1.6-0.2-2.4c-0.1-0.8-0.4-1.6-0.7-2.3
		c-0.7-1.4-1.9-2.6-3.4-3.4c-0.7-0.4-1.5-0.6-2.3-0.8c-0.8-0.1-1.6-0.2-2.4-0.2L134.1,2.7L134.1,2.7z"/>
	<path class="st1" d="M12,49.7h-1.1c-0.8,0-1.5,0-2.2-0.2c-0.7-0.1-1.4-0.4-2-0.7S5.5,48.1,5,47.6s-0.9-1.1-1.2-1.7
		c-0.3-0.6-0.5-1.3-0.7-2c-0.1-0.7-0.2-1.5-0.2-2.2c0-0.3,0-1.1,0-1.1V12.9c0,0,0-0.8,0-1.1c0-0.8,0.1-1.5,0.2-2.2s0.3-1.4,0.6-2
		C4,7,4.4,6.4,4.9,5.9S6,5,6.6,4.7s1.3-0.5,2-0.7c0.7-0.1,1.5-0.2,2.3-0.2h125.6c0.7,0,1.5,0.1,2.2,0.2c0.7,0.1,1.4,0.3,2,0.7
		c1.2,0.6,2.3,1.6,2.9,2.9c0.3,0.6,0.5,1.3,0.6,2s0.2,1.5,0.2,2.3V13c0,0.5,0,0.9,0,1.3v25.1c0,0.4,0,0.9,0,1.3v1.1
		c0,0.7-0.1,1.5-0.2,2.2c-0.1,0.7-0.3,1.4-0.6,2s-0.7,1.2-1.2,1.7s-1.1,0.9-1.7,1.2c-0.6,0.4-1.3,0.6-2,0.7
		c-0.7,0.1-1.5,0.2-2.2,0.2h-1.1L12,49.7L12,49.7z"/>
	<path class="st2" d="M31.6,27.1c0-2,1.1-3.9,2.8-5c-1.1-1.6-2.9-2.5-4.8-2.6c-2-0.2-4,1.2-5,1.2s-2.6-1.2-4.3-1.2
		c-2.2,0.1-4.3,1.3-5.4,3.3c-2.3,4.1-0.6,9.9,1.6,13.2c1.1,1.6,2.4,3.4,4.1,3.3c1.7-0.1,2.3-1.1,4.3-1.1s2.6,1.1,4.3,1
		c1.7,0,2.9-1.6,4-3.2c0.8-1.1,1.4-2.4,1.8-3.7C33,31.5,31.6,29.4,31.6,27.1z"/>
	<path class="st2" d="M28.3,17.4c1-1.2,1.5-2.7,1.3-4.2c-1.5,0.2-2.9,0.9-3.9,2s-1.5,2.6-1.4,4C25.9,19.3,27.4,18.6,28.3,17.4z"/>
	<path class="st2" d="M52.7,35.3H47l-1.4,4h-2.4l5.4-14.9h2.5l5.4,15h-2.4L52.7,35.3z M47.6,33.5h4.5L49.9,27h-0.1L47.6,33.5z"/>
	<path class="st2" d="M68.1,34c0,3.4-1.8,5.5-4.5,5.5c-1.4,0.1-2.8-0.7-3.4-1.9l0,0V43h-2.3V28.5h2.2v1.9l0,0c0.7-1.2,2-2,3.5-1.9
		C66.3,28.4,68.1,30.6,68.1,34z M65.8,34c0-2.2-1.2-3.6-2.9-3.6c-1.7,0-2.9,1.5-2.9,3.6s1.2,3.7,2.9,3.7
		C64.6,37.7,65.8,36.1,65.8,34z"/>
	<path class="st2" d="M80.1,34c0,3.4-1.8,5.5-4.5,5.5c-1.4,0.1-2.8-0.7-3.4-1.9l0,0V43h-2.3V28.5h2.2v1.9l0,0c0.7-1.2,2-2,3.5-1.9
		C78.3,28.4,80.1,30.6,80.1,34z M77.8,34c0-2.2-1.1-3.6-2.9-3.6c-1.7,0-2.8,1.5-2.8,3.6s1.1,3.6,2.8,3.6S77.8,36.1,77.8,34L77.8,34z
		"/>
	<path class="st2" d="M88,35.2c0.2,1.5,1.6,2.4,3.6,2.4s3.2-1,3.2-2.3S94,33.5,92.1,33l-1.9-0.5c-2.7-0.7-4-1.9-4-4
		c0-2.6,2.2-4.3,5.4-4.3c3.2,0,5.3,1.8,5.4,4.3h-2.3c-0.1-1.5-1.4-2.4-3.2-2.4c-1.8,0-3,0.9-3,2.2c0,1,0.8,1.7,2.7,2.1l1.6,0.4
		c3.1,0.7,4.3,2,4.3,4.1c0,2.8-2.2,4.5-5.8,4.5c-3.3,0-5.5-1.7-5.7-4.4L88,35.2z"/>
	<path class="st2" d="M102,25.9v2.6h2.1v1.8H102v6c0,0.9,0.4,1.4,1.3,1.4c0.2,0,0.5,0,0.7,0v1.7c-0.4,0.1-0.8,0.1-1.2,0.1
		c-2.2,0-3.1-0.8-3.1-2.9v-6.3h-1.6v-1.8h1.6v-2.6H102z"/>
	<path class="st2" d="M105.2,34c0-3.4,2-5.6,5.2-5.6c3.1,0,5.2,2.1,5.2,5.6c0,3.4-2,5.5-5.2,5.5S105.2,37.4,105.2,34z M113.3,34
		c0-2.3-1.1-3.7-2.9-3.7s-2.8,1.3-2.8,3.7s1.1,3.7,2.9,3.7C112.2,37.7,113.3,36.3,113.3,34L113.3,34z"/>
	<path class="st2" d="M117.4,28.5h2.2v1.9l0,0c0.3-1.2,1.4-2,2.6-2c0.3,0,0.5,0,0.8,0.1v2.1c-0.3-0.1-0.6-0.2-1-0.2
		c-1.2-0.1-2.3,0.9-2.4,2.1c0,0,0,0,0,0.1s0,0.2,0,0.3v6.5h-2.2L117.4,28.5L117.4,28.5z"/>
	<path class="st2" d="M133.2,36.2c-0.3,2-2.2,3.3-4.7,3.3c-3.2,0-5.1-2.1-5.1-5.5s2-5.6,5-5.6c3,0,4.9,2.1,4.9,5.4v0.8h-7.7v0.1
		c-0.1,1.6,1,2.9,2.6,3.1h0.4c1.1,0.1,2.1-0.5,2.5-1.5L133.2,36.2z M125.7,32.9h5.4c0.1-1.4-1-2.6-2.4-2.7h-0.2
		C127,30.2,125.8,31.4,125.7,32.9L125.7,32.9L125.7,32.9z"/>
	<path class="st2" d="M47.3,13.2c1.7-0.1,3.3,1.2,3.4,2.9c0,0.2,0,0.4,0,0.6c0,2.3-1.2,3.6-3.4,3.6h-2.6v-7.2L47.3,13.2z M45.8,19.4
		h1.4c1.2,0.1,2.3-0.8,2.4-2.1l0,0c0-0.2,0-0.3,0-0.5c0.2-1.2-0.7-2.4-1.9-2.5l0,0c-0.1,0-0.3,0-0.4,0h-1.4L45.8,19.4L45.8,19.4z"/>
	<path class="st2" d="M51.9,17.7c-0.1-1.4,0.9-2.7,2.3-2.8c1.4-0.1,2.7,0.9,2.8,2.3c0,0.2,0,0.3,0,0.5c0,1.4-1.1,2.6-2.5,2.7
		c-1.3,0-2.4-0.9-2.6-2.1C51.9,18,51.9,17.8,51.9,17.7z M55.9,17.7c0-1.2-0.5-1.8-1.4-1.8S53,16.6,53,17.7c0,1.2,0.5,1.9,1.5,1.9
		S55.9,18.9,55.9,17.7L55.9,17.7z"/>
	<path class="st2" d="M63.8,20.4h-1.1l-1.1-4h-0.1l-1.1,4h-1.1L57.8,15h1.1l1,4.1H60l1.1-4.1h1l1.1,4.1h0.1l1-4.1h1.1L63.8,20.4z"/>
	<path class="st2" d="M66.5,15h1v0.9h0.1c0.3-0.6,0.9-1,1.6-1c1-0.1,1.8,0.6,1.9,1.6l0,0c0,0.1,0,0.3,0,0.4v3.5H70v-3.2
		c0-0.9-0.4-1.3-1.2-1.3c-0.7-0.1-1.2,0.4-1.3,1.1v0.1v3.3h-1.1L66.5,15z"/>
	<path class="st2" d="M72.8,12.9h1.1v7.5h-1.1V12.9z"/>
	<path class="st2" d="M75.4,17.7c-0.1-1.4,0.9-2.7,2.3-2.8c1.4-0.1,2.7,0.9,2.8,2.3c0,0.2,0,0.3,0,0.5c0,1.4-1.1,2.6-2.5,2.7
		c-1.3,0-2.4-0.9-2.6-2.1C75.4,18,75.4,17.8,75.4,17.7z M79.4,17.7c0-1.2-0.5-1.8-1.5-1.8s-1.4,0.7-1.4,1.8c0,1.2,0.5,1.9,1.4,1.9
		C78.9,19.6,79.4,18.9,79.4,17.7z"/>
	<path class="st2" d="M81.6,18.9c0-1,0.7-1.5,2-1.6l1.5-0.1v-0.5c0-0.6-0.4-0.9-1.1-0.9s-1,0.2-1.1,0.6h-1c0.1-0.9,1-1.5,2.2-1.5
		s2.1,0.7,2.1,1.8v3.7h-1v-0.8h-0.1c-0.3,0.6-1,0.9-1.6,0.9c-0.9,0.1-1.7-0.5-1.8-1.4l0,0C81.6,19,81.6,18.9,81.6,18.9z M85.1,18.4
		v-0.5L83.8,18c-0.7,0-1.1,0.3-1.1,0.8s0.4,0.8,1,0.8C84.4,19.6,85,19.1,85.1,18.4L85.1,18.4L85.1,18.4z"/>
	<path class="st2" d="M87.6,17.7c0-1.7,0.9-2.8,2.2-2.8c0.7,0,1.3,0.3,1.7,0.9h0.1v-3h1.1v7.6h-1v-0.8h-0.1c-0.3,0.6-1,1-1.7,0.9
		C88.4,20.5,87.6,19.4,87.6,17.7z M88.7,17.7c0,1.2,0.5,1.8,1.4,1.8s1.5-0.7,1.5-1.8c0-1.1-0.6-1.8-1.5-1.8S88.7,16.6,88.7,17.7z"/>
	<path class="st2" d="M97,17.7c-0.1-1.4,0.9-2.7,2.3-2.8c1.4-0.1,2.7,0.9,2.8,2.3c0,0.2,0,0.3,0,0.5c0,1.4-1.1,2.6-2.5,2.7
		c-1.3,0-2.4-0.9-2.6-2.1C97,18,97,17.8,97,17.7z M101,17.7c0-1.2-0.5-1.8-1.4-1.8s-1.5,0.7-1.5,1.8c0,1.2,0.5,1.9,1.5,1.9
		C100.5,19.6,101,18.9,101,17.7z"/>
	<path class="st2" d="M103.6,15h1v0.9h0.1c0.3-0.6,0.9-1,1.6-1c1-0.1,1.8,0.7,1.9,1.6c0,0.1,0,0.3,0,0.4v3.5h-1.1v-3.2
		c0-0.9-0.4-1.3-1.2-1.3c-0.7-0.1-1.2,0.4-1.3,1.1v0.1c0,0.1,0,0.1,0,0.2v3.1h-1.1L103.6,15z"/>
	<path class="st2" d="M114.2,13.6V15h1.2v0.9h-1.2v2.8c0,0.6,0.2,0.8,0.8,0.8h0.4v0.9c-0.2,0-0.4,0-0.6,0c-1.2,0-1.7-0.4-1.7-1.5v-3
		h-0.9V15h0.9v-1.4H114.2z"/>
	<path class="st2" d="M116.8,12.9h1.1v3h0.1c0.3-0.6,0.9-1,1.6-1c1-0.1,1.8,0.7,1.9,1.7l0,0c0,0.1,0,0.2,0,0.3v3.5h-1.1v-3.2
		c0-0.9-0.4-1.3-1.2-1.3c-0.7-0.1-1.3,0.5-1.4,1.1c0,0,0,0,0,0.1v3.3h-1L116.8,12.9L116.8,12.9z"/>
	<path class="st2" d="M127.7,18.9c-0.3,1-1.3,1.7-2.4,1.6c-1.3,0.1-2.5-1-2.5-2.3v-0.1c0-0.1,0-0.3,0-0.4c-0.2-1.4,0.8-2.6,2.1-2.8
		l0,0c0.1,0,0.2,0,0.4,0c1.5,0,2.4,1,2.4,2.7V18h-3.8v0.1c0,0.8,0.5,1.5,1.3,1.5c0,0,0,0,0.1,0h0.1c0.5,0.1,1-0.2,1.3-0.7
		L127.7,18.9z M123.9,17.2h2.7c0-0.7-0.5-1.3-1.2-1.4h-0.1C124.6,15.8,123.9,16.4,123.9,17.2L123.9,17.2z"/>
</g>
<g>
	<path class="st1" d="M184,3.4h145.7c3.2,0,5.8,2.6,5.8,5.8v35c0,3.2-2.6,5.8-5.8,5.8H184c-3.2,0-5.8-2.6-5.8-5.8v-35
		C178.2,6,180.8,3.4,184,3.4z"/>
	<path class="st0" d="M329.8,4.4c2.7,0,4.9,2.2,4.9,4.9v35c0,2.7-2.2,4.9-4.9,4.9H184c-2.7,0-4.9-2.2-4.9-4.9l0,0v-35
		c0-2.7,2.2-4.9,4.9-4.9l0,0L329.8,4.4 M329.8,3.4H184c-3.2,0-5.8,2.6-5.8,5.8v35c0,3.2,2.6,5.8,5.8,5.8h145.7
		c3.2,0,5.8-2.6,5.8-5.8v-35C335.6,6,333,3.4,329.8,3.4z"/>
	<path class="st3" d="M233.5,15.4c0,0.9-0.3,1.7-0.9,2.3c-0.7,0.7-1.6,1.1-2.6,1c-1,0-1.9-0.4-2.6-1c-0.7-0.7-1.1-1.6-1.1-2.6
		s0.4-1.9,1.1-2.6c1.1-1,2.6-1.3,4-0.8c0.4,0.2,0.8,0.4,1.1,0.8l-0.6,0.6c-0.5-0.6-1.2-0.9-1.9-0.8c-1.5,0-2.7,1.2-2.7,2.7v0.1
		c0,1.5,1.2,2.8,2.7,2.8c0.7,0,1.4-0.3,2-0.8c0.4-0.4,0.6-0.9,0.6-1.4h-2.5v-0.8h3.4C233.5,15,233.5,15.2,233.5,15.4z"/>
	<path class="st3" d="M238.8,12.5h-3.1v2.2h2.9v0.8h-2.9v2.2h3.1v0.9h-4.1v-7h4.1V12.5z"/>
	<path class="st3" d="M242.7,18.6h-0.9v-6.1h-2v-0.9h4.9v0.9h-2V18.6z"/>
	<path class="st3" d="M248.1,18.6v-7h0.9v7H248.1z"/>
	<path class="st3" d="M253,18.6h-0.9v-6.1h-2v-0.9h4.8v0.9H253V18.6z"/>
	<path class="st3" d="M264,17.7c-1.4,1.4-3.7,1.4-5.1,0l0,0c-0.7-0.7-1.1-1.6-1-2.6c0-1,0.3-1.9,1-2.6s1.6-1.1,2.6-1.1
		s1.9,0.4,2.6,1.1s1,1.6,1,2.6S264.7,17,264,17.7z M259.6,17.1c1,1,2.7,1.1,3.8,0l0,0c0.5-0.5,0.8-1.3,0.8-2c0-0.8-0.3-1.5-0.8-2
		c-1-1-2.7-1.1-3.8,0l0,0c-0.5,0.5-0.8,1.3-0.7,2C258.8,15.8,259.1,16.6,259.6,17.1z"/>
	<path class="st3" d="M266.3,18.6v-7h1.1l3.4,5.4l0,0v-1.4v-4.1h0.9v7h-0.9l-3.6-5.7l0,0v1.3v4.4h-0.9V18.6z"/>
	<path class="st2" d="M257.7,28.8c-2.7,0-5,2.2-5,5c0,2.7,2.2,5,5,5c2.7,0,5-2.2,5-5c0-2.7-2.1-4.9-4.8-5
		C257.8,28.8,257.7,28.8,257.7,28.8z M257.7,36.8c-1.7,0.1-3.1-1.1-3.2-2.8s1.1-3.1,2.8-3.2c1.7-0.1,3.1,1.1,3.2,2.8
		c0,0.1,0,0.1,0,0.2C260.5,35.3,259.3,36.7,257.7,36.8L257.7,36.8z M246.8,28.8c-2.7,0-5,2.2-5,5c0,2.7,2.2,5,5,5s5-2.2,5-5
		c0-2.7-2.1-4.9-4.8-5C246.9,28.8,246.8,28.8,246.8,28.8z M246.8,36.8c-1.7,0.1-3.1-1.1-3.2-2.8s1.1-3.1,2.8-3.2
		c1.7-0.1,3.1,1.1,3.2,2.8c0,0.1,0,0.1,0,0.2C249.7,35.3,248.5,36.7,246.8,36.8L246.8,36.8z M233.9,30.3v2.1h5
		c-0.1,1-0.5,1.9-1.2,2.6c-1,1-2.4,1.6-3.9,1.5c-3.1,0-5.6-2.5-5.6-5.6s2.5-5.6,5.6-5.6c1.4,0,2.8,0.5,3.8,1.5l1.6-1.4
		c-1.4-1.4-3.3-2.2-5.3-2.1c-4.3-0.2-7.8,3.1-8,7.4s3.1,7.8,7.4,8c0.2,0,0.4,0,0.6,0c2,0.1,4-0.7,5.4-2.2c1.2-1.3,1.9-3.1,1.8-4.9
		c0-0.4,0-0.9-0.1-1.3H233.9z M286.7,32c-0.6-1.8-2.3-3.1-4.2-3.2c-2.6,0-4.7,2.1-4.7,4.7c0,0.1,0,0.2,0,0.3c0,2.7,2.2,5,4.9,5
		c1.7,0,3.2-0.8,4.2-2.2l-1.7-1.2c-0.5,0.9-1.4,1.4-2.4,1.4s-2-0.6-2.4-1.5l6.6-2.7L286.7,32z M279.9,33.6c-0.1-1.5,1-2.8,2.5-2.9
		c0,0,0,0,0.1,0c0.8,0,1.5,0.4,1.8,1L279.9,33.6z M274.6,38.4h2.2V23.8h-2.2V38.4z M271,29.9L271,29.9c-0.8-0.7-1.7-1.1-2.7-1.1
		c-2.7,0.1-4.9,2.5-4.7,5.2c0.1,2.6,2.2,4.6,4.7,4.7c1,0,2-0.4,2.6-1.2h0.1v0.7c0,1.9-1,2.9-2.6,2.9c-1.1,0-2.1-0.7-2.5-1.8
		l-1.9,0.8c0.7,1.8,2.5,3,4.4,2.9c2.6,0,4.7-1.5,4.7-5.2v-8.9h-2v1H271z M268.5,36.8c-1.7-0.1-2.9-1.5-2.8-3.2
		c0.1-1.5,1.3-2.7,2.8-2.8c1.5,0.1,2.7,1.4,2.7,2.9v0.1c0.1,1.5-1,2.9-2.5,3C268.6,36.8,268.5,36.8,268.5,36.8z M296.9,23.8h-5.2
		v14.6h2.2v-5.5h3c2.5,0.2,4.7-1.7,4.8-4.2c0.2-2.5-1.7-4.7-4.2-4.8C297.4,23.8,297.1,23.8,296.9,23.8z M296.9,30.8h-3v-5h3.1
		c1.4,0,2.5,1.1,2.5,2.5S298.3,30.9,296.9,30.8L296.9,30.8L296.9,30.8z M310.4,28.7c-1.6-0.1-3.1,0.8-3.9,2.2l1.9,0.8
		c0.4-0.7,1.2-1.1,2-1.1c1.2-0.1,2.2,0.7,2.3,1.8l0,0v0.1c-0.7-0.4-1.5-0.6-2.3-0.6c-2.1,0-4.2,1.2-4.2,3.3c0.1,1.9,1.7,3.3,3.5,3.2
		h0.1c1.1,0.1,2.2-0.5,2.8-1.4h0.1v1.4h2.1v-5.6C314.8,30.3,312.9,28.8,310.4,28.7L310.4,28.7z M310.1,36.7c-0.7,0-1.7-0.4-1.7-1.2
		c0-1.2,1.2-1.6,2.3-1.6c0.7,0,1.4,0.2,2,0.5C312.6,35.7,311.5,36.7,310.1,36.7L310.1,36.7z M322.5,29.1l-2.5,6.3h-0.1l-2.6-6.3H315
		l3.9,8.8l-2.2,4.9h2.3l5.9-13.7H322.5z M302.9,38.4h2.2V23.8h-2.2V38.4z"/>
	
		<linearGradient id="SVGID_1_" gradientUnits="userSpaceOnUse" x1="203.592" y1="-618.787" x2="184.0266" y2="-638.3525" gradientTransform="matrix(1 0 0 -1 0 -605.2148)">
		<stop  offset="0" style="stop-color:#4696D2"/>
		<stop  offset="1.000000e-02" style="stop-color:#4598D3"/>
		<stop  offset="0.26" style="stop-color:#3FB9EB"/>
		<stop  offset="0.51" style="stop-color:#4AC1ED"/>
		<stop  offset="0.76" style="stop-color:#5CC4E6"/>
		<stop  offset="1" style="stop-color:#60C4E5"/>
	</linearGradient>
	<path class="st4" d="M190.4,12.2c-0.4,0.5-0.6,1-0.5,1.6v25.8c0,0.6,0.2,1.2,0.5,1.6l0.1,0.1l14.4-14.4v-0.3L190.4,12.2L190.4,12.2
		z"/>
	
		<linearGradient id="SVGID_2_" gradientUnits="userSpaceOnUse" x1="217.6283" y1="-631.9574" x2="189.4229" y2="-631.9574" gradientTransform="matrix(1 0 0 -1 0 -605.2148)">
		<stop  offset="0" style="stop-color:#FFE00A"/>
		<stop  offset="0.41" style="stop-color:#FBBC0F"/>
		<stop  offset="0.78" style="stop-color:#F7A418"/>
		<stop  offset="1" style="stop-color:#F59A1B"/>
	</linearGradient>
	<path class="st5" d="M209.7,31.7l-4.8-4.8v-0.3l4.8-4.8l0.1,0.1l5.7,3.2c1.6,0.9,1.6,2.4,0,3.4l-5.7,3.2L209.7,31.7z"/>
	
		<linearGradient id="SVGID_3_" gradientUnits="userSpaceOnUse" x1="207.1356" y1="-634.6434" x2="180.5975" y2="-661.1699" gradientTransform="matrix(1 0 0 -1 0 -605.2148)">
		<stop  offset="0" style="stop-color:#E8404A"/>
		<stop  offset="1" style="stop-color:#C31262"/>
	</linearGradient>
	<path class="st6" d="M209.8,31.7l-4.9-4.9l-14.5,14.5c0.7,0.6,1.7,0.6,2.4,0.1L209.8,31.7"/>
	
		<linearGradient id="SVGID_4_" gradientUnits="userSpaceOnUse" x1="186.7045" y1="-608.8404" x2="198.551" y2="-620.6868" gradientTransform="matrix(1 0 0 -1 0 -605.2148)">
		<stop  offset="0" style="stop-color:#32A071"/>
		<stop  offset="7.000000e-02" style="stop-color:#2DA771"/>
		<stop  offset="0.48" style="stop-color:#4FB26F"/>
		<stop  offset="0.8" style="stop-color:#61B668"/>
		<stop  offset="1" style="stop-color:#64B664"/>
	</linearGradient>
	<path class="st7" d="M209.8,21.8l-17-9.7c-0.7-0.6-1.7-0.5-2.4,0.1l14.5,14.5L209.8,21.8z"/>
	<path class="st8" d="M209.7,31.6l-16.9,9.6c-0.7,0.5-1.6,0.5-2.3,0l0,0l-0.1,0.1l0,0l0.1,0.1l0,0c0.7,0.5,1.6,0.5,2.3,0l17-9.7
		L209.7,31.6z"/>
	<path class="st9" d="M190.4,41.1c-0.4-0.5-0.6-1.1-0.5-1.6v0.2c0,0.6,0.2,1.2,0.5,1.6l0.1-0.1L190.4,41.1z"/>
	<path class="st9" d="M215.5,28.3l-5.8,3.3l0.1,0.1L215.5,28.3c0.7-0.2,1.2-0.8,1.2-1.6l0,0C216.6,27.4,216.2,28,215.5,28.3z"/>
	<path class="st10" d="M192.8,12.3l22.7,12.9c0.6,0.3,1.1,0.8,1.2,1.5l0,0c-0.1-0.7-0.5-1.4-1.2-1.7l-22.7-12.9
		c-1.6-0.9-2.9-0.2-2.9,1.7V14C189.9,12.2,191.2,11.4,192.8,12.3z"/>
</g>
</svg>
