<svg width="355" height="88" viewBox="0 0 355 88" fill="none" xmlns="http://www.w3.org/2000/svg">
<g filter="url(#filter0_d)">
<rect x="4" width="347" height="80" rx="40" fill="#614BDA"/>
<rect x="6" y="2" width="343" height="76" rx="38" stroke="white" stroke-width="4"/>
</g>
<path d="M87.6975 33.09L82.9575 48.48C82.3775 50.36 81.2875 51.3 79.6875 51.3C78.0675 51.3 76.9775 50.36 76.4175 48.48L72.8175 36.63H72.7275L69.1275 48.48C68.5675 50.36 67.4775 51.3 65.8575 51.3C64.2375 51.3 63.1375 50.36 62.5575 48.48L57.8775 33.24C57.7575 32.84 57.6975 32.44 57.6975 32.04C57.6975 31.3 57.9475 30.69 58.4475 30.21C58.9475 29.71 59.5575 29.46 60.2775 29.46C61.6375 29.46 62.5275 30.28 62.9475 31.92L66.1275 43.89H66.2175L69.3975 32.76C69.7775 31.42 70.2575 30.54 70.8375 30.12C71.4375 29.68 72.0975 29.46 72.8175 29.46C73.1375 29.46 73.4275 29.5 73.6875 29.58C73.9675 29.64 74.2675 29.77 74.5875 29.97C74.9075 30.17 75.2075 30.51 75.4875 30.99C75.7875 31.45 76.0375 32.04 76.2375 32.76L79.4475 43.89H79.5375L82.8075 31.8C83.2275 30.24 84.0875 29.46 85.3875 29.46C86.0675 29.46 86.6475 29.68 87.1275 30.12C87.6275 30.56 87.8775 31.16 87.8775 31.92C87.8775 32.24 87.8175 32.63 87.6975 33.09ZM104.278 49.35L103.258 46.83H94.1076L93.0576 49.38C92.5176 50.66 91.6776 51.3 90.5376 51.3C89.8376 51.3 89.2476 51.08 88.7676 50.64C88.2876 50.2 88.0476 49.6 88.0476 48.84C88.0476 48.4 88.1576 47.92 88.3776 47.4L95.3976 31.98C96.1576 30.3 97.2876 29.46 98.7876 29.46C100.288 29.46 101.408 30.3 102.148 31.98L109.108 47.34C109.308 47.82 109.408 48.28 109.408 48.72C109.408 49.5 109.158 50.13 108.658 50.61C108.158 51.07 107.558 51.3 106.858 51.3C105.658 51.3 104.798 50.65 104.278 49.35ZM98.6976 35.67L95.7876 42.72H101.578L98.6976 35.67ZM114.026 34.14H110.156C109.236 34.14 108.596 33.91 108.236 33.45C107.896 32.99 107.726 32.49 107.726 31.95C107.726 31.63 107.776 31.33 107.876 31.05C107.976 30.75 108.216 30.46 108.596 30.18C108.996 29.9 109.516 29.76 110.156 29.76H123.026C123.946 29.76 124.576 29.99 124.916 30.45C125.276 30.91 125.456 31.41 125.456 31.95C125.456 32.27 125.406 32.58 125.306 32.88C125.206 33.16 124.956 33.44 124.556 33.72C124.176 34 123.666 34.14 123.026 34.14H119.156V48.42C119.156 49.5 118.876 50.25 118.316 50.67C117.776 51.09 117.206 51.3 116.606 51.3C115.986 51.3 115.396 51.09 114.836 50.67C114.296 50.25 114.026 49.5 114.026 48.42V34.14ZM140.059 34.56C139.279 34.08 138.359 33.84 137.299 33.84C135.519 33.84 134.049 34.46 132.889 35.7C131.749 36.92 131.179 38.47 131.179 40.35C131.179 42.27 131.739 43.84 132.859 45.06C133.979 46.26 135.429 46.86 137.209 46.86C138.349 46.86 139.369 46.55 140.269 45.93C140.929 45.47 141.529 45.24 142.069 45.24C142.709 45.24 143.249 45.46 143.689 45.9C144.129 46.32 144.349 46.87 144.349 47.55C144.349 48.35 143.959 49.06 143.179 49.68C142.539 50.2 141.659 50.64 140.539 51C139.439 51.38 138.269 51.57 137.029 51.57C133.729 51.57 130.999 50.53 128.839 48.45C126.679 46.35 125.599 43.65 125.599 40.35C125.599 37.01 126.689 34.32 128.869 32.28C131.069 30.22 133.819 29.19 137.119 29.19C138.219 29.19 139.309 29.34 140.389 29.64C141.489 29.92 142.329 30.27 142.909 30.69C143.729 31.29 144.139 32.02 144.139 32.88C144.139 33.54 143.909 34.09 143.449 34.53C143.009 34.97 142.459 35.19 141.799 35.19C141.299 35.19 140.719 34.98 140.059 34.56ZM147.478 48.42V32.34C147.478 31.26 147.748 30.51 148.288 30.09C148.848 29.67 149.438 29.46 150.058 29.46C150.658 29.46 151.228 29.67 151.768 30.09C152.328 30.51 152.608 31.26 152.608 32.34V37.8H160.888V32.34C160.888 31.26 161.158 30.51 161.698 30.09C162.258 29.67 162.848 29.46 163.468 29.46C164.068 29.46 164.638 29.67 165.178 30.09C165.738 30.51 166.018 31.26 166.018 32.34V48.42C166.018 49.5 165.738 50.25 165.178 50.67C164.638 51.09 164.068 51.3 163.468 51.3C162.848 51.3 162.258 51.09 161.698 50.67C161.158 50.25 160.888 49.5 160.888 48.42V42.12H152.608V48.42C152.608 49.5 152.328 50.25 151.768 50.67C151.228 51.09 150.658 51.3 150.058 51.3C149.438 51.3 148.848 51.09 148.288 50.67C147.748 50.25 147.478 49.5 147.478 48.42ZM181.116 34.14H177.246C176.326 34.14 175.686 33.91 175.326 33.45C174.986 32.99 174.816 32.49 174.816 31.95C174.816 31.63 174.866 31.33 174.966 31.05C175.066 30.75 175.306 30.46 175.686 30.18C176.086 29.9 176.606 29.76 177.246 29.76H190.116C191.036 29.76 191.666 29.99 192.006 30.45C192.366 30.91 192.546 31.41 192.546 31.95C192.546 32.27 192.496 32.58 192.396 32.88C192.296 33.16 192.046 33.44 191.646 33.72C191.266 34 190.756 34.14 190.116 34.14H186.246V48.42C186.246 49.5 185.966 50.25 185.406 50.67C184.866 51.09 184.296 51.3 183.696 51.3C183.076 51.3 182.486 51.09 181.926 50.67C181.386 50.25 181.116 49.5 181.116 48.42V34.14ZM205.747 36.27C205.747 34.69 204.607 33.9 202.327 33.9H199.597V38.85H202.027C204.507 38.85 205.747 37.99 205.747 36.27ZM206.407 49.98L201.457 42.57H199.627V48.48C199.627 49.54 199.357 50.28 198.817 50.7C198.277 51.1 197.707 51.3 197.107 51.3C196.507 51.3 195.937 51.1 195.397 50.7C194.857 50.28 194.587 49.54 194.587 48.48V32.7C194.587 30.74 195.567 29.76 197.527 29.76H202.687C205.467 29.76 207.517 30.36 208.837 31.56C210.157 32.74 210.817 34.28 210.817 36.18C210.817 37.58 210.437 38.78 209.677 39.78C208.917 40.76 207.857 41.46 206.497 41.88L210.427 47.13C210.867 47.73 211.087 48.32 211.087 48.9C211.087 49.58 210.847 50.15 210.367 50.61C209.887 51.07 209.297 51.3 208.597 51.3C207.717 51.3 206.987 50.86 206.407 49.98ZM228.76 49.35L227.74 46.83H218.59L217.54 49.38C217 50.66 216.16 51.3 215.02 51.3C214.32 51.3 213.73 51.08 213.25 50.64C212.77 50.2 212.53 49.6 212.53 48.84C212.53 48.4 212.64 47.92 212.86 47.4L219.88 31.98C220.64 30.3 221.77 29.46 223.27 29.46C224.77 29.46 225.89 30.3 226.63 31.98L233.59 47.34C233.79 47.82 233.89 48.28 233.89 48.72C233.89 49.5 233.64 50.13 233.14 50.61C232.64 51.07 232.04 51.3 231.34 51.3C230.14 51.3 229.28 50.65 228.76 49.35ZM223.18 35.67L220.27 42.72H226.06L223.18 35.67ZM236.336 48.42V32.34C236.336 31.26 236.606 30.51 237.146 30.09C237.706 29.67 238.296 29.46 238.916 29.46C239.536 29.46 240.116 29.67 240.656 30.09C241.216 30.51 241.496 31.26 241.496 32.34V48.42C241.496 49.5 241.216 50.25 240.656 50.67C240.116 51.09 239.536 51.3 238.916 51.3C238.296 51.3 237.706 51.09 237.146 50.67C236.606 50.25 236.336 49.5 236.336 48.42ZM257.046 51H248.826C246.866 51 245.886 50.02 245.886 48.06V32.34C245.886 31.26 246.156 30.51 246.696 30.09C247.256 29.67 247.846 29.46 248.466 29.46C249.086 29.46 249.666 29.67 250.206 30.09C250.766 30.51 251.046 31.26 251.046 32.34V46.53H257.046C257.986 46.53 258.636 46.77 258.996 47.25C259.376 47.73 259.566 48.23 259.566 48.75C259.566 49.29 259.376 49.8 258.996 50.28C258.636 50.76 257.986 51 257.046 51ZM266.627 38.1H273.377C274.297 38.1 274.917 38.32 275.237 38.76C275.577 39.18 275.747 39.64 275.747 40.14C275.747 40.44 275.697 40.73 275.597 41.01C275.517 41.27 275.287 41.54 274.907 41.82C274.527 42.08 274.017 42.21 273.377 42.21H266.627V46.62H274.367C275.287 46.62 275.917 46.85 276.257 47.31C276.617 47.77 276.797 48.27 276.797 48.81C276.797 49.13 276.747 49.44 276.647 49.74C276.547 50.02 276.297 50.3 275.897 50.58C275.517 50.86 275.007 51 274.367 51H264.617C262.657 51 261.677 50.02 261.677 48.06V32.7C261.677 30.74 262.657 29.76 264.617 29.76H273.827C274.747 29.76 275.377 29.99 275.717 30.45C276.077 30.91 276.257 31.4 276.257 31.92C276.257 32.24 276.207 32.55 276.107 32.85C276.007 33.13 275.757 33.41 275.357 33.69C274.977 33.97 274.467 34.11 273.827 34.11H266.627V38.1ZM291.06 36.27C291.06 34.69 289.92 33.9 287.64 33.9H284.91V38.85H287.34C289.82 38.85 291.06 37.99 291.06 36.27ZM291.72 49.98L286.77 42.57H284.94V48.48C284.94 49.54 284.67 50.28 284.13 50.7C283.59 51.1 283.02 51.3 282.42 51.3C281.82 51.3 281.25 51.1 280.71 50.7C280.17 50.28 279.9 49.54 279.9 48.48V32.7C279.9 30.74 280.88 29.76 282.84 29.76H288C290.78 29.76 292.83 30.36 294.15 31.56C295.47 32.74 296.13 34.28 296.13 36.18C296.13 37.58 295.75 38.78 294.99 39.78C294.23 40.76 293.17 41.46 291.81 41.88L295.74 47.13C296.18 47.73 296.4 48.32 296.4 48.9C296.4 49.58 296.16 50.15 295.68 50.61C295.2 51.07 294.61 51.3 293.91 51.3C293.03 51.3 292.3 50.86 291.72 49.98Z" fill="white"/>
<defs>
<filter id="filter0_d" x="0" y="0" width="355" height="88" filterUnits="userSpaceOnUse" color-interpolation-filters="sRGB">
<feFlood flood-opacity="0" result="BackgroundImageFix"/>
<feColorMatrix in="SourceAlpha" type="matrix" values="0 0 0 0 0 0 0 0 0 0 0 0 0 0 0 0 0 0 127 0"/>
<feOffset dy="4"/>
<feGaussianBlur stdDeviation="2"/>
<feColorMatrix type="matrix" values="0 0 0 0 0 0 0 0 0 0 0 0 0 0 0 0 0 0 0.25 0"/>
<feBlend mode="normal" in2="BackgroundImageFix" result="effect1_dropShadow"/>
<feBlend mode="normal" in="SourceGraphic" in2="effect1_dropShadow" result="shape"/>
</filter>
</defs>
</svg>
